<?xml version="1.0" encoding="UTF-8" standalone="no"?>
<!-- Created with Inkscape (http://www.inkscape.org/) -->

<svg
   width="2200"
   height="2200"
   viewBox="0 0 582.08333 582.08331"
   version="1.1"
   id="svg6993"
   inkscape:version="1.3.2 (091e20e, 2023-11-25, custom)"
   sodipodi:docname="megacircle2w.svg"
   xmlns:inkscape="http://www.inkscape.org/namespaces/inkscape"
   xmlns:sodipodi="http://sodipodi.sourceforge.net/DTD/sodipodi-0.dtd"
   xmlns="http://www.w3.org/2000/svg"
   xmlns:svg="http://www.w3.org/2000/svg">
  <sodipodi:namedview
     id="namedview6995"
     pagecolor="#5b5b5b"
     bordercolor="#fffa97"
     borderopacity="0.98431373"
     inkscape:showpageshadow="2"
     inkscape:pageopacity="0"
     inkscape:pagecheckerboard="0"
     inkscape:deskcolor="#404040"
     inkscape:document-units="mm"
     showgrid="false"
     showguides="true"
     shape-rendering="crispEdges"
     inkscape:clip-to-page="false"
     inkscape:zoom="0.20989583"
     inkscape:cx="428.78413"
     inkscape:cy="1555.5335"
     inkscape:window-width="1920"
     inkscape:window-height="1027"
     inkscape:window-x="-8"
     inkscape:window-y="-8"
     inkscape:window-maximized="1"
     inkscape:current-layer="g153" />
  <defs
     id="defs6990" />
  <g
     inkscape:groupmode="layer"
     id="g153"
     inkscape:label="Outer Lines copy"
     style="display:inline"
     transform="translate(37.041667,148.16667)">
    <path
       d="M 254,-148.16667 A 291.04168,291.04168 0 0 0 -37.041667,142.875 291.04168,291.04168 0 0 0 254,433.91667 291.04168,291.04168 0 0 0 545.04167,142.875 291.04168,291.04168 0 0 0 254,-148.16667 Z m 0,6.61459 A 284.4271,284.4271 0 0 1 538.42708,142.875 284.4271,284.4271 0 0 1 254,427.30208 284.4271,284.4271 0 0 1 -30.427083,142.875 284.4271,284.4271 0 0 1 254,-141.55208 Z"
       style="fill:none;fill-opacity:0.150124;stroke:#ffffff;stroke-width:3.00002;stroke-opacity:0.24937965"
       id="path198" />
    <path
       d="M 254,-134.9375 A 277.81252,277.81252 0 0 0 -23.8125,142.875 277.81252,277.81252 0 0 0 254,420.6875 277.81252,277.81252 0 0 0 531.8125,142.875 277.81252,277.81252 0 0 0 254,-134.9375 Z m 0,6.61458 A 271.19792,271.19792 0 0 1 525.19792,142.875 271.19792,271.19792 0 0 1 254,414.07292 271.19792,271.19792 0 0 1 -17.197917,142.875 271.19792,271.19792 0 0 1 254,-128.32292 Z"
       style="fill:none;fill-opacity:0.150124;stroke:#ffffff;stroke-width:3.00002;stroke-opacity:0.24937965"
       id="path197" />
    <path
       d="M 254,-121.70833 A 264.58334,264.58334 0 0 0 -10.583333,142.875 264.58334,264.58334 0 0 0 254,407.45833 264.58334,264.58334 0 0 0 518.58333,142.875 264.58334,264.58334 0 0 0 254,-121.70833 Z m 0,6.61458 A 257.96876,257.96876 0 0 1 511.96875,142.875 257.96876,257.96876 0 0 1 254,400.84375 257.96876,257.96876 0 0 1 -3.96875,142.875 257.96876,257.96876 0 0 1 254,-115.09375 Z"
       style="fill:none;fill-opacity:0.150124;stroke:#ffffff;stroke-width:3.00002;stroke-opacity:0.24937965"
       id="path196" />
    <path
       d="M 254,-108.47917 A 251.35417,251.35417 0 0 0 2.6458333,142.875 251.35417,251.35417 0 0 0 254,394.22917 251.35417,251.35417 0 0 0 505.35417,142.875 251.35417,251.35417 0 0 0 254,-108.47917 Z m 0,6.61459 A 244.73959,244.73959 0 0 1 498.73958,142.875 244.73959,244.73959 0 0 1 254,387.61458 244.73959,244.73959 0 0 1 9.2604167,142.875 244.73959,244.73959 0 0 1 254,-101.86458 Z"
       style="fill:none;fill-opacity:0.150124;stroke:#ffffff;stroke-width:3.00002;stroke-opacity:0.24937965"
       id="path195" />
    <path
       d="M 254,-95.25 A 238.125,238.125 0 0 0 15.875,142.875 238.125,238.125 0 0 0 254,381 238.125,238.125 0 0 0 492.125,142.875 238.125,238.125 0 0 0 254,-95.25 Z m 0,6.614583 A 231.5104,231.5104 0 0 1 485.51042,142.875 231.5104,231.5104 0 0 1 254,374.38542 231.5104,231.5104 0 0 1 22.489583,142.875 231.5104,231.5104 0 0 1 254,-88.635417 Z"
       style="fill:none;fill-opacity:0.150124;stroke:#ffffff;stroke-width:3.00002;stroke-opacity:0.24937965"
       id="path194" />
    <path
       d="M 254,-82.020833 A 224.89583,224.89583 0 0 0 29.104167,142.875 224.89583,224.89583 0 0 0 254,367.77083 224.89583,224.89583 0 0 0 478.89583,142.875 224.89583,224.89583 0 0 0 254,-82.020833 Z m 0,6.614583 A 218.28123,218.28123 0 0 1 472.28125,142.875 218.28123,218.28123 0 0 1 254,361.15625 218.28123,218.28123 0 0 1 35.71875,142.875 218.28123,218.28123 0 0 1 254,-75.40625 Z"
       style="fill:none;fill-opacity:0.150124;stroke:#ffffff;stroke-width:3.00002;stroke-opacity:0.24937965"
       id="path193" />
    <path
       d="M 254,-68.791667 A 211.66665,211.66665 0 0 0 42.333333,142.875 211.66665,211.66665 0 0 0 254,354.54167 211.66665,211.66665 0 0 0 465.66667,142.875 211.66665,211.66665 0 0 0 254,-68.791667 Z m 0,6.614584 A 205.05208,205.05208 0 0 1 459.05208,142.875 205.05208,205.05208 0 0 1 254,347.92708 205.05208,205.05208 0 0 1 48.947917,142.875 205.05208,205.05208 0 0 1 254,-62.177083 Z"
       style="fill:none;fill-opacity:0.150124;stroke:#ffffff;stroke-width:3.00002;stroke-opacity:0.24937965"
       id="path192" />
    <path
       d="M 254,-55.5625 A 198.4375,198.4375 0 0 0 55.5625,142.875 198.4375,198.4375 0 0 0 254,341.3125 198.4375,198.4375 0 0 0 452.4375,142.875 198.4375,198.4375 0 0 0 254,-55.5625 Z m 0,6.614583 A 191.82291,191.82291 0 0 1 445.82292,142.875 191.82291,191.82291 0 0 1 254,334.69792 191.82291,191.82291 0 0 1 62.177083,142.875 191.82291,191.82291 0 0 1 254,-48.947917 Z"
       style="fill:none;fill-opacity:0.150124;stroke:#ffffff;stroke-width:3.00002;stroke-opacity:0.24937965"
       id="path191" />
    <path
       d="M 254,-42.333333 A 185.20832,185.20832 0 0 0 68.791667,142.875 185.20832,185.20832 0 0 0 254,328.08333 185.20832,185.20832 0 0 0 439.20833,142.875 185.20832,185.20832 0 0 0 254,-42.333333 Z m 0,6.614583 A 178.59374,178.59374 0 0 1 432.59375,142.875 178.59374,178.59374 0 0 1 254,321.46875 178.59374,178.59374 0 0 1 75.40625,142.875 178.59374,178.59374 0 0 1 254,-35.71875 Z"
       style="fill:none;fill-opacity:0.150124;stroke:#ffffff;stroke-width:3.00002;stroke-opacity:0.24937965"
       id="path190" />
    <path
       d="M 254,-29.104167 A 171.97916,171.97916 0 0 0 82.020833,142.875 171.97916,171.97916 0 0 0 254,314.85417 171.97916,171.97916 0 0 0 425.97917,142.875 171.97916,171.97916 0 0 0 254,-29.104167 Z m 0,6.614584 A 165.36458,165.36458 0 0 1 419.36458,142.875 165.36458,165.36458 0 0 1 254,308.23958 165.36458,165.36458 0 0 1 88.635417,142.875 165.36458,165.36458 0 0 1 254,-22.489583 Z"
       style="fill:none;fill-opacity:0.150124;stroke:#ffffff;stroke-width:3.00002;stroke-opacity:0.24937965"
       id="path189" />
    <path
       d="M 254,-15.875 A 158.74999,158.74999 0 0 0 95.25,142.875 158.74999,158.74999 0 0 0 254,301.625 158.74999,158.74999 0 0 0 412.75,142.875 158.74999,158.74999 0 0 0 254,-15.875 Z m 0,6.6145833 A 152.13542,152.13542 0 0 1 406.13542,142.875 152.13542,152.13542 0 0 1 254,295.01042 152.13542,152.13542 0 0 1 101.86458,142.875 152.13542,152.13542 0 0 1 254,-9.2604167 Z"
       style="fill:none;fill-opacity:0.150124;stroke:#ffffff;stroke-width:3.00002;stroke-opacity:0.24937965"
       id="path188" />
    <path
       d="M 254,-2.6458333 A 145.52083,145.52083 0 0 0 108.47917,142.875 145.52083,145.52083 0 0 0 254,288.39583 145.52083,145.52083 0 0 0 399.52083,142.875 145.52083,145.52083 0 0 0 254,-2.6458333 Z M 254,3.96875 A 138.90625,138.90625 0 0 1 392.90625,142.875 138.90625,138.90625 0 0 1 254,281.78125 138.90625,138.90625 0 0 1 115.09375,142.875 138.90625,138.90625 0 0 1 254,3.96875 Z"
       style="fill:none;fill-opacity:0.150124;stroke:#ffffff;stroke-width:3.00002;stroke-opacity:0.24937965"
       id="path187" />
    <path
       d="M 254,10.583333 A 132.29167,132.29167 0 0 0 121.70833,142.875 132.29167,132.29167 0 0 0 254,275.16667 132.29167,132.29167 0 0 0 386.29167,142.875 132.29167,132.29167 0 0 0 254,10.583333 Z m 0,6.614584 A 125.67708,125.67708 0 0 1 379.67708,142.875 125.67708,125.67708 0 0 1 254,268.55208 125.67708,125.67708 0 0 1 128.32292,142.875 125.67708,125.67708 0 0 1 254,17.197917 Z"
       style="display:inline;fill:none;fill-opacity:0.150124;stroke:#ffffff;stroke-width:3;stroke-opacity:0.24937965"
       id="path134" />
    <path
       d="M 254,23.8125 A 119.0625,119.0625 0 0 0 134.9375,142.875 119.0625,119.0625 0 0 0 254,261.9375 119.0625,119.0625 0 0 0 373.0625,142.875 119.0625,119.0625 0 0 0 254,23.8125 Z m 0,6.614583 A 112.44792,112.44792 0 0 1 366.44792,142.875 112.44792,112.44792 0 0 1 254,255.32292 112.44792,112.44792 0 0 1 141.55208,142.875 112.44792,112.44792 0 0 1 254,30.427083 Z"
       style="display:inline;fill:none;fill-opacity:0.150124;stroke:#ffffff;stroke-width:3;stroke-opacity:0.24937965"
       id="path135" />
    <path
       d="M 254,37.041667 A 105.83334,105.83334 0 0 0 148.16667,142.875 105.83334,105.83334 0 0 0 254,248.70833 105.83334,105.83334 0 0 0 359.83333,142.875 105.83334,105.83334 0 0 0 254,37.041667 Z m 0,6.614583 A 99.218755,99.218755 0 0 1 353.21875,142.875 99.218755,99.218755 0 0 1 254,242.09375 99.218755,99.218755 0 0 1 154.78125,142.875 99.218755,99.218755 0 0 1 254,43.65625 Z"
       style="display:inline;fill:none;fill-opacity:0.150124;stroke:#ffffff;stroke-width:3;stroke-opacity:0.24937965"
       id="path136" />
    <path
       d="M 254,50.270833 A 92.604171,92.604171 0 0 0 161.39583,142.875 92.604171,92.604171 0 0 0 254,235.47917 92.604171,92.604171 0 0 0 346.60417,142.875 92.604171,92.604171 0 0 0 254,50.270833 Z m 0,6.614584 A 85.989589,85.989589 0 0 1 339.98958,142.875 85.989589,85.989589 0 0 1 254,228.86458 85.989589,85.989589 0 0 1 168.01042,142.875 85.989589,85.989589 0 0 1 254,56.885417 Z"
       style="display:inline;fill:none;fill-opacity:0.150124;stroke:#ffffff;stroke-width:3;stroke-opacity:0.24937965"
       id="path137" />
    <path
       d="M 254,63.5 A 79.375004,79.375004 0 0 0 174.625,142.875 79.375004,79.375004 0 0 0 254,222.25 79.375004,79.375004 0 0 0 333.375,142.875 79.375004,79.375004 0 0 0 254,63.5 Z m 0,6.614583 A 72.760421,72.760421 0 0 1 326.76042,142.875 72.760421,72.760421 0 0 1 254,215.63542 72.760421,72.760421 0 0 1 181.23958,142.875 72.760421,72.760421 0 0 1 254,70.114583 Z"
       style="display:inline;fill:none;fill-opacity:0.150124;stroke:#ffffff;stroke-width:3;stroke-opacity:0.24937965"
       id="path138" />
    <path
       d="M 254,76.729167 A 66.145839,66.145839 0 0 0 187.85417,142.875 66.145839,66.145839 0 0 0 254,209.02083 66.145839,66.145839 0 0 0 320.14583,142.875 66.145839,66.145839 0 0 0 254,76.729167 Z m 0,6.614583 A 59.531254,59.531254 0 0 1 313.53125,142.875 59.531254,59.531254 0 0 1 254,202.40625 59.531254,59.531254 0 0 1 194.46875,142.875 59.531254,59.531254 0 0 1 254,83.34375 Z"
       style="display:inline;fill:none;fill-opacity:0.150124;stroke:#ffffff;stroke-width:3;stroke-opacity:0.24937965"
       id="path139" />
    <path
       d="M 254,89.958333 A 52.91667,52.91667 0 0 0 201.08333,142.875 52.91667,52.91667 0 0 0 254,195.79167 52.91667,52.91667 0 0 0 306.91667,142.875 52.91667,52.91667 0 0 0 254,89.958333 Z m 0,6.614584 A 46.302088,46.302088 0 0 1 300.30208,142.875 46.302088,46.302088 0 0 1 254,189.17708 46.302088,46.302088 0 0 1 207.69792,142.875 46.302088,46.302088 0 0 1 254,96.572917 Z"
       style="display:inline;fill:none;fill-opacity:0.150124;stroke:#ffffff;stroke-width:3;stroke-opacity:0.24937965"
       id="path140" />
    <path
       d="M 254,103.1875 A 39.687503,39.687503 0 0 0 214.3125,142.875 39.687503,39.687503 0 0 0 254,182.5625 39.687503,39.687503 0 0 0 293.6875,142.875 39.687503,39.687503 0 0 0 254,103.1875 Z m 0,6.61458 A 33.072919,33.072919 0 0 1 287.07292,142.875 33.072919,33.072919 0 0 1 254,175.94792 33.072919,33.072919 0 0 1 220.92708,142.875 33.072919,33.072919 0 0 1 254,109.80208 Z"
       style="display:inline;fill:none;fill-opacity:0.150124;stroke:#ffffff;stroke-width:3;stroke-opacity:0.24937965"
       id="path141" />
    <path
       d="M 254,116.41667 A 26.458337,26.458337 0 0 0 227.54167,142.875 26.458337,26.458337 0 0 0 254,169.33333 26.458337,26.458337 0 0 0 280.45833,142.875 26.458337,26.458337 0 0 0 254,116.41667 Z m 0,6.61458 A 19.843751,19.843751 0 0 1 273.84375,142.875 19.843751,19.843751 0 0 1 254,162.71875 19.843751,19.843751 0 0 1 234.15625,142.875 19.843751,19.843751 0 0 1 254,123.03125 Z"
       style="display:inline;fill:none;fill-opacity:0.150124;stroke:#ffffff;stroke-width:3;stroke-opacity:0.24937965"
       id="path142" />
    <path
       d="M 254,129.64583 A 13.229167,13.229167 0 0 0 240.77083,142.875 13.229167,13.229167 0 0 0 254,156.10417 13.229167,13.229167 0 0 0 267.22917,142.875 13.229167,13.229167 0 0 0 254,129.64583 Z m 0,6.61459 A 6.6145843,6.6145843 0 0 1 260.61458,142.875 6.6145843,6.6145843 0 0 1 254,149.48958 6.6145843,6.6145843 0 0 1 247.38542,142.875 6.6145843,6.6145843 0 0 1 254,136.26042 Z"
       style="display:inline;fill:none;fill-opacity:0.150124;stroke:#ffffff;stroke-width:3;stroke-opacity:0.24937965"
       id="path143" />
  </g>
</svg>
