<?xml version="1.0" encoding="UTF-8" standalone="no"?>
<!-- Created with Inkscape (http://www.inkscape.org/) -->

<svg
   width="202.48222"
   height="170.07425"
   viewBox="0 0 53.573422 44.99881"
   version="1.1"
   id="svg6993"
   inkscape:version="1.3.2 (091e20e, 2023-11-25, custom)"
   sodipodi:docname="menu_y.svg"
   xmlns:inkscape="http://www.inkscape.org/namespaces/inkscape"
   xmlns:sodipodi="http://sodipodi.sourceforge.net/DTD/sodipodi-0.dtd"
   xmlns:xlink="http://www.w3.org/1999/xlink"
   xmlns="http://www.w3.org/2000/svg"
   xmlns:svg="http://www.w3.org/2000/svg">
  <sodipodi:namedview
     id="namedview6995"
     pagecolor="#5b5b5b"
     bordercolor="#fffa97"
     borderopacity="0.98431373"
     inkscape:showpageshadow="2"
     inkscape:pageopacity="0"
     inkscape:pagecheckerboard="0"
     inkscape:deskcolor="#404040"
     inkscape:document-units="mm"
     showgrid="false"
     showguides="true"
     shape-rendering="crispEdges"
     inkscape:clip-to-page="false"
     inkscape:zoom="2.4465738"
     inkscape:cx="120.57679"
     inkscape:cy="103.61429"
     inkscape:window-width="1920"
     inkscape:window-height="1027"
     inkscape:window-x="1672"
     inkscape:window-y="-8"
     inkscape:window-maximized="1"
     inkscape:current-layer="layer1" />
  <defs
     id="defs6990">
    <linearGradient
       id="linearGradient1"
       inkscape:collect="always">
      <stop
         style="stop-color:#1a1a1a;stop-opacity:1;"
         offset="0"
         id="stop2" />
      <stop
         style="stop-color:#262626;stop-opacity:1;"
         offset="0.5"
         id="stop5" />
      <stop
         style="stop-color:#1a1a1a;stop-opacity:1;"
         offset="1"
         id="stop4" />
    </linearGradient>
    <linearGradient
       inkscape:collect="always"
       xlink:href="#linearGradient1"
       id="linearGradient2"
       x1="0"
       y1="142.875"
       x2="508"
       y2="142.875"
       gradientUnits="userSpaceOnUse" />
  </defs>
  <g
     inkscape:label="Background"
     inkscape:groupmode="layer"
     id="layer1"
     sodipodi:insensitive="true"
     style="display:none"
     transform="translate(-14.804413,-12.630638)">
    <path
       id="rect1"
       style="fill:url(#linearGradient2);stroke-width:2.6"
       d="M 0,0 H 508 V 285.75 H 0 Z"
       inkscape:label="Background"
       sodipodi:insensitive="true" />
  </g>
  <g
     inkscape:groupmode="layer"
     id="g10"
     inkscape:label="Layer 1 copy"
     transform="translate(-14.804413,-12.630638)">
    <path
       id="path13"
       style="fill:#ffee9e;fill-opacity:0.947891;stroke-width:0.499999"
       d="m 41.590893,12.630638 c -7.45817,0 -15.12097,0.57477 -22.37434,4.7625 -2.11673,1.2221 -4.41214,2.49713 -4.41214,4.9413 v 3.78169 c 0,2.44416 1.96795,4.41161 4.41214,4.41161 h 2.52077 v -9.82007 c 0,-1.54289 1.24196,-2.78536 2.78485,-2.78536 h 2.38745 c 0.96019,0 1.8029,0.48173 2.30322,1.21698 l 0.001,-5.2e-4 0.0041,0.0062 c 0.004,0.006 0.0069,0.01219 0.01085,0.01809 l 6.6983,11.36468 h 11.33368 l 6.59495,-11.18278 c 0.47674,-0.84645 1.3724,-1.42265 2.4169,-1.42265 h 2.38745 c 1.54289,0 2.78485,1.24247 2.78485,2.78536 v 9.82007 h 2.52129 c 2.44419,0 4.41162,-1.96745 4.41162,-4.41161 v -3.78169 c 0,-2.44417 -2.28981,-3.72805 -4.41162,-4.9413 -7.56321,-4.32461 -14.91669,-4.7625 -22.37486,-4.7625 z m -24.00163,21.16667 c -1.54289,0 -2.78485,1.24247 -2.78485,2.78536 v 2.38693 c 0,1.54289 1.24196,2.78485 2.78485,2.78485 h 4.14806 v -7.95714 z m 20.26439,0 3.73827,6.34173 3.74034,-6.34173 z m 23.59081,0 v 7.95714 h 4.14807 c 1.54289,0 2.78484,-1.24195 2.78484,-2.78485 v -2.38693 c 0,-1.5429 -1.24195,-2.78536 -2.78484,-2.78536 z m -31.75,0.03256 v 7.92458 h 4.80539 z m 23.79286,0 -4.80539,7.92458 h 4.80539 z m -34.27077,11.19415 c -2.44419,0 -4.41214,1.96794 -4.41214,4.41213 v 3.78168 c 0,2.44419 1.96795,4.41162 4.41214,4.41162 h 44.7492 c 2.44419,0 4.41162,-1.96743 4.41162,-4.41162 v -3.78168 c 0,-2.44419 -1.96743,-4.41213 -4.41162,-4.41213 h -2.52129 v 6.59029 c 0,1.54289 -1.24195,2.78536 -2.78484,2.78536 h -2.38745 c -1.5429,0 -2.78485,-1.24247 -2.78485,-2.78536 v -6.59029 h -6.7877 l -1.13016,1.86345 c 0,0 -0.23198,0.50398 -0.60617,1.08003 -0.51822,0.92903 -1.05778,1.70481 -2.17867,1.70481 h -2.38745 c -1.1209,0 -1.66044,-0.77578 -2.17868,-1.70481 -0.37419,-0.57605 -0.60617,-1.08003 -0.60617,-1.08003 l -1.13016,-1.86345 h -6.7877 v 6.59029 c 0,1.54289 -1.24195,2.78536 -2.78484,2.78536 h -2.38745 c -1.5429,0 -2.78485,-1.24247 -2.78485,-2.78536 v -6.59029 z" />
  </g>
</svg>
