<?xml version="1.0" encoding="UTF-8" standalone="no"?>
<!-- Created with Inkscape (http://www.inkscape.org/) -->

<svg
   width="1920"
   height="1080"
   viewBox="0 0 508 285.74999"
   version="1.1"
   id="svg6993"
   inkscape:version="1.3.2 (091e20e, 2023-11-25, custom)"
   sodipodi:docname="stars_bg3.svg"
   xml:space="preserve"
   xmlns:inkscape="http://www.inkscape.org/namespaces/inkscape"
   xmlns:sodipodi="http://sodipodi.sourceforge.net/DTD/sodipodi-0.dtd"
   xmlns:xlink="http://www.w3.org/1999/xlink"
   xmlns="http://www.w3.org/2000/svg"
   xmlns:svg="http://www.w3.org/2000/svg"><sodipodi:namedview
     id="namedview6995"
     pagecolor="#5b5b5b"
     bordercolor="#fffa97"
     borderopacity="0.98431373"
     inkscape:showpageshadow="2"
     inkscape:pageopacity="0"
     inkscape:pagecheckerboard="0"
     inkscape:deskcolor="#404040"
     inkscape:document-units="mm"
     showgrid="false"
     showguides="true"
     shape-rendering="crispEdges"
     inkscape:clip-to-page="false"
     inkscape:zoom="0.36915152"
     inkscape:cx="1094.4016"
     inkscape:cy="157.11706"
     inkscape:window-width="1680"
     inkscape:window-height="942"
     inkscape:window-x="1680"
     inkscape:window-y="11"
     inkscape:window-maximized="0"
     inkscape:current-layer="g251" /><defs
     id="defs6990"><linearGradient
       id="linearGradient255"
       inkscape:collect="always"><stop
         style="stop-color:#064c51;stop-opacity:0.66027397;"
         offset="0"
         id="stop256" /><stop
         style="stop-color:#064560;stop-opacity:0.15068494;"
         offset="1"
         id="stop257" /></linearGradient><linearGradient
       id="linearGradient254"
       inkscape:collect="always"><stop
         style="stop-color:#063560;stop-opacity:0.65890414;"
         offset="0"
         id="stop254" /><stop
         style="stop-color:#066060;stop-opacity:0.19589041;"
         offset="1"
         id="stop255" /></linearGradient><linearGradient
       id="linearGradient247"><stop
         style="stop-color:#062b60;stop-opacity:1;"
         offset="0"
         id="stop251" /><stop
         style="stop-color:#440554;stop-opacity:0.37123287;"
         offset="1"
         id="stop252" /></linearGradient><linearGradient
       id="linearGradient247-1"><stop
         style="stop-color:#460660;stop-opacity:1;"
         offset="0"
         id="stop248" /><stop
         style="stop-color:#440554;stop-opacity:0.03770492;"
         offset="1"
         id="stop249" /></linearGradient><radialGradient
       inkscape:collect="always"
       xlink:href="#linearGradient254"
       id="radialGradient255"
       cx="-52.965176"
       cy="142.06319"
       fx="-52.965176"
       fy="142.06319"
       r="253.99999"
       gradientTransform="matrix(-1.3745684,-0.03264996,0.00736772,-0.23713322,323.05353,313.02288)"
       gradientUnits="userSpaceOnUse" /><radialGradient
       inkscape:collect="always"
       xlink:href="#linearGradient255"
       id="radialGradient257"
       cx="24.809305"
       cy="-84.121056"
       fx="24.809305"
       fy="-84.121056"
       r="254"
       gradientTransform="matrix(2.0190303,0.1078924,-0.03679236,0.56981524,-95.359525,19.080292)"
       gradientUnits="userSpaceOnUse" /><filter
       inkscape:collect="always"
       style="color-interpolation-filters:sRGB"
       id="filter258"
       x="-0.2181694"
       y="-1.029346"
       width="1.4363388"
       height="3.058692"><feGaussianBlur
         inkscape:collect="always"
         stdDeviation="46.432456"
         id="feGaussianBlur258" /></filter><filter
       inkscape:collect="always"
       style="color-interpolation-filters:sRGB"
       id="filter259"
       x="-0.24775456"
       y="-0.58520984"
       width="1.4955091"
       height="2.1704197"><feGaussianBlur
         inkscape:collect="always"
         stdDeviation="52.441378"
         id="feGaussianBlur259" /></filter></defs><g
     inkscape:groupmode="layer"
     id="g251"
     inkscape:label="BG Overlay2"><path
       style="display:inline;opacity:1;mix-blend-mode:normal;fill:url(#radialGradient257);stroke-width:0.448504;filter:url(#filter259)"
       d="m -31.750001,63.306161 c 0,0 8.95355,97.302649 46.587689,112.522049 19.813876,8.01281 47.971497,-7.11908 58.812947,-25.53803 3.81957,-6.48921 -5.52346,-15.73081 -2.190987,-22.48312 10.017144,-20.2969 45.943932,-16.50782 57.648302,-35.880864 7.92446,-13.116531 -9.18246,-37.028844 3.34758,-45.851475 15.48286,-10.90177 47.06698,-2.109541 54.73518,15.204217 14.2585,32.193728 -66.9513,65.044542 -47.46005,94.367452 13.223,19.89285 52.90798,10.10301 71.49204,-4.90385 16.66548,-13.45757 -3.59567,-60.727274 17.80068,-61.747341 14.40602,-0.6868 2.25569,35.530981 15.8858,40.245321 14.6148,5.05492 34.14042,-9.11868 40.05501,-23.40722 C 298.22355,73.801195 228.91338,23.270403 258.52713,5.2456183 289.59367,-13.663421 305.2505,66.169731 339.51802,78.352445 c 27.41819,9.747654 75.36705,22.131555 87.18412,-4.46036 10.76979,-24.235219 -62.57975,-38.226506 -50.23337,-61.697794 15.53508,-29.533209 99.7812,8.102735 99.7812,8.102735 V -37.041668 H -31.750001 Z"
       id="path257"
       sodipodi:nodetypes="cssssssssssssssscccc"
       transform="matrix(1.2428117,0,0,1,7.7092726,0)" /><path
       style="display:inline;opacity:1;mix-blend-mode:normal;fill:url(#radialGradient255);stroke-width:0.437587;filter:url(#filter258)"
       d="m 0,221.98157 c 0,0 18.232786,26.21918 32.435665,28.38121 22.697316,3.4551 40.437164,-23.54032 62.982585,-27.87735 22.97681,-4.42001 51.84574,-12.00932 70.14723,2.56895 7.93268,6.31887 -1.60342,25.80236 7.88407,29.38608 32.5801,12.30652 52.37982,-54.29621 87.02883,-57.81179 15.6613,-1.58904 39.70516,2.49304 43.7838,17.69718 3.72536,13.88721 -33.56584,21.46955 -26.53181,34.0097 15.97183,28.4743 80.62455,16.91412 97.307,-11.14976 9.20723,-15.48877 -29.47043,-34.63488 -20.2542,-50.1183 8.51909,-14.31221 33.41321,-9.34707 49.64901,-5.6305 39.79389,9.10929 83.8565,29.61531 103.56781,65.36439 6.26873,11.36917 0,38.94862 0,38.94862 H 0 Z"
       id="path258"
       sodipodi:nodetypes="csssssssssssccc"
       transform="matrix(1.3055972,0,0,1,-143.00732,15.875)" /></g></svg>
