<?xml version="1.0" encoding="UTF-8" standalone="no"?>
<!-- Created with Inkscape (http://www.inkscape.org/) -->

<svg
   width="851.54504"
   height="1080.001"
   viewBox="0 0 225.30462 285.75025"
   version="1.1"
   id="svg6993"
   inkscape:version="1.3.2 (091e20e, 2023-11-25, custom)"
   xml:space="preserve"
   sodipodi:docname="trees_left.svg"
   inkscape:export-filename="..\sun"
   inkscape:export-xdpi="96"
   inkscape:export-ydpi="96"
   xmlns:inkscape="http://www.inkscape.org/namespaces/inkscape"
   xmlns:sodipodi="http://sodipodi.sourceforge.net/DTD/sodipodi-0.dtd"
   xmlns:xlink="http://www.w3.org/1999/xlink"
   xmlns="http://www.w3.org/2000/svg"
   xmlns:svg="http://www.w3.org/2000/svg"><sodipodi:namedview
     id="namedview6995"
     pagecolor="#5b5b5b"
     bordercolor="#fffa97"
     borderopacity="0.98431373"
     inkscape:showpageshadow="2"
     inkscape:pageopacity="0"
     inkscape:pagecheckerboard="0"
     inkscape:deskcolor="#404040"
     inkscape:document-units="mm"
     showgrid="false"
     showguides="true"
     shape-rendering="crispEdges"
     inkscape:clip-to-page="false"
     inkscape:zoom="0.35355339"
     inkscape:cx="530.33009"
     inkscape:cy="575.58492"
     inkscape:window-width="1803"
     inkscape:window-height="1007"
     inkscape:window-x="1753"
     inkscape:window-y="2"
     inkscape:window-maximized="0"
     inkscape:current-layer="layer1" /><defs
     id="defs6990"><linearGradient
       id="linearGradient1"
       inkscape:collect="always"><stop
         style="stop-color:#191919;stop-opacity:1;"
         offset="0"
         id="stop3" /><stop
         style="stop-color:#232323;stop-opacity:1;"
         offset="0.30337077"
         id="stop5" /><stop
         style="stop-color:#1a1a1a;stop-opacity:1;"
         offset="1"
         id="stop4" /></linearGradient><linearGradient
       id="linearGradient69768"><stop
         style="stop-color:#fce80e;stop-opacity:1;"
         offset="0"
         id="stop69766" /><stop
         style="stop-color:#fcbe71;stop-opacity:0.66032606;"
         offset="0.07340365"
         id="stop69767" /><stop
         style="stop-color:#4b6bf4;stop-opacity:0;"
         offset="0.49179807"
         id="stop69768" /><stop
         style="stop-color:#010f03;stop-opacity:0;"
         offset="0.81320453"
         id="stop1" /><stop
         style="stop-color:#010f03;stop-opacity:0;"
         offset="1"
         id="stop2" /></linearGradient><linearGradient
       id="linearGradient69702"><stop
         style="stop-color:#fce922;stop-opacity:0.79619563;"
         offset="0.05585747"
         id="stop69763" /><stop
         style="stop-color:#fcb871;stop-opacity:0.39673913;"
         offset="0.39393657"
         id="stop69764" /><stop
         style="stop-color:#031b7b;stop-opacity:0.20380434;"
         offset="1"
         id="stop69765" /></linearGradient><linearGradient
       id="linearGradient69702-1"><stop
         style="stop-color:#fce80e;stop-opacity:1;"
         offset="0"
         id="stop69707" /><stop
         style="stop-color:#fcbe71;stop-opacity:1;"
         offset="0.51678425"
         id="stop69706" /><stop
         style="stop-color:#031b7b;stop-opacity:1;"
         offset="0.92980129"
         id="stop69703" /></linearGradient><linearGradient
       inkscape:collect="always"
       xlink:href="#linearGradient1"
       id="linearGradient4"
       x1="87.3125"
       y1="-0.0002452"
       x2="87.3125"
       y2="285.56439"
       gradientUnits="userSpaceOnUse"
       gradientTransform="translate(-87.3125,-0.03493664)" /></defs><g
     inkscape:groupmode="layer"
     id="layer1"
     inkscape:label="Left"
     inkscape:highlight-color="#a96b36"
     style="display:inline"
     transform="translate(0,0.03518184)"><path
       id="path1"
       style="display:inline;fill:url(#linearGradient4)"
       inkscape:label="L-Light"
       d="M 0,-0.03503568 V 47.482994 c 0.75152146,0.627568 1.5063593,1.251521 2.436027,1.548226 0.6355384,-0.11472 0.8943387,0.612952 1.4138672,0.844393 1.0607379,0.809062 2.3804367,1.09714 3.6059815,1.530656 2.0577563,1.071892 2.8478543,3.407894 4.2193803,5.136637 1.451543,2.075781 3.184981,3.934435 5.053439,5.636349 5.493624,5.690235 9.15555,13.034833 15.475024,17.944124 1.218299,0.75315 2.24285,1.7948 2.871659,3.0887 2.766278,4.840549 2.940691,10.662536 4.986259,15.843478 0.60065,1.610863 1.406901,3.141763 2.36058,4.571293 -0.813919,-0.71539 -1.580316,-1.48143 -2.353345,-2.24017 -1.875958,0.006 -3.441133,2.12941 -2.647384,3.88969 1.710709,3.64102 4.346869,6.73827 6.315377,10.23141 1.522749,2.53792 2.967024,5.10273 3.279903,8.11165 0.33416,5.5733 1.243417,11.11777 1.743046,16.65687 0.61381,6.00583 0.889142,12.08157 0.259933,18.07951 -0.19251,3.05858 -0.460421,6.12458 -1.2361,9.09919 -0.83978,3.59238 -1.875097,7.13981 -2.517676,10.77557 1.908798,4.26372 2.258585,9.16314 1.846916,13.81311 -0.58716,6.79546 -2.559751,13.41427 -2.858741,20.23752 0.35859,3.41165 0.05341,7.0526 -0.476973,10.48722 -0.735369,5.06812 -2.029752,10.08021 -2.144572,15.22026 0.0602,1.37597 0.145527,2.76905 -0.240812,4.11241 -0.16328,0.71494 -0.394738,1.41185 -0.604098,2.11408 -0.367849,0.93379 -0.853338,1.47546 -1.485697,1.52756 0.436639,0.5826 -1.494406,-2.71718 -0.969967,-2.90474 -2.941987,-2.01751 3.07162,-0.23866 -0.109037,-2.46548 3.280027,0.007 -0.0921,-2.25306 -2.880961,-3.41943 -4.694295,-0.346 2.940878,-2.98097 0.709,-3.01067 0.25618,-1.23446 2.414235,-1.82906 3.441134,-3.64939 -4.420895,0.57419 -4.452427,-3.66082 1.888257,-4.40076 -6.940833,-0.87577 -16.091926,-1.78715 -20.852991,-8.85321 1.022369,0.25694 0.289571,-2.28444 3.303158,1.92392 2.833047,-0.80999 1.789833,-1.41435 6.433199,1.01285 3.148827,-0.43251 3.567253,-3.33997 5.862691,-3.18585 4.403266,-2.94552 -5.861918,-0.14487 -8.180896,-3.37292 -0.946539,-1.97514 -3.22857,-2.56683 0.300757,-3.05976 6.619053,-0.0465 3.99732,-2.36225 0.861963,-3.5109 -0.20556,2.37313 -13.832948,-7.65261 -6.850745,-3.50934 0.744019,-1.54335 3.976422,2.15439 6.27817,0.51676 -2.560108,-1.58366 1.831791,-1.59895 -1.561145,-4.60282 1.095109,-3.41215 -1.139046,-2.73651 -4.460193,-3.95066 -1.551978,1.19089 -1.865007,-3.28947 0.499711,-1.87844 6.657393,-0.86526 6.637164,-4.69699 -1.311548,-5.67717 -5.797954,-3.76745 -2.013075,-2.27041 0.574642,-3.00189 2.961587,-1.52879 4.376069,-4.11499 -2.543514,-2.4722 -2.704257,-1.83049 2.01585,-4.25502 -0.02584,-4.62556 5.340705,-2.72462 -0.295138,-0.77903 -1.851567,-4.34133 4.415146,0.35046 -2.357679,-1.69672 -1.30793,-2.72542 2.987287,-1.8028 -2.236751,-1.838 0.788066,-3.89123 -0.91812,0.10505 -2.718617,-5.62227 -2.645317,-10.02626 -0.41773,5.93811 -1.279505,8.75164 -3.081982,9.91154 5.867813,1.0353 -6.632593,7.76655 -0.516248,5.19709 -4.188119,2.82156 0.295281,0.68361 -0.706417,2.26912 1.367458,3.96718 -9.3088071,3.13077 -4.5676797,6.48332 6.4484147,0.0915 -1.1761556,3.25978 5.7107627,1.73685 -3.8163017,2.23604 -14.361854,3.57085 -10.2024762,7.49669 1.4970683,0.12574 2.2083593,1.24116 4.6224548,0.72503 1.4362566,0.0423 1.0012278,3.97275 -1.3068969,3.69073 C 3.4664984,194.48965 1.6339575,195.58203 0,196.69869 v 2.05052 c 0.36624473,-0.0144 0.2665508,0.23358 0,0.57413 v 3.06286 c 1.3339226,0.16497 2.622909,0.84119 2.7414347,3.33158 C 8.1710776,206.63262 4.4481905,207.0504 0,207.80241 v 12.47107 c 0.43231673,0.074 0.88416563,0.19593 1.3270508,0.46716 C 0.93177876,221.08535 0.47729617,221.33668 0,221.55041 v 64.10926 c 71.736037,0.0245 163.0469,0.0553 163.0469,0.0553 -4.73889,-0.93069 -13.20986,-3.76859 -11.6055,-6.93807 -1.25297,-1.76606 -4.67342,2.43873 -8.06566,-5.06688 -0.646,-2.42271 -1.25162,-4.908 0,-10.26345 -3.18137,0.18851 -2.171,-0.63281 -1.58491,-2.74144 -0.50242,0.0926 -0.89089,-1.8196 -3.39256,-3.37602 1.74088,-6.57988 0.24602,-2.23005 -1.95337,-1.60662 -2.50656,-3.12765 -4.19676,0.42144 -6.30659,-1.7508 -5.85304,-7.47981 -4.1116,1.82696 -2.36833,6.51947 -0.57215,1.57082 -2.77548,0.93432 -5.43271,1.30845 -2.65724,0.37414 -5.01896,4.60173 -7.27866,2.27009 -4.46361,2.76476 -6.19962,1.8216 -5.29477,0.92044 -0.84336,-2.69884 4.31074,-5.70655 4.5744,-6.5567 -2.33707,0.45376 -6.12932,2.66374 -5.47925,1.31616 -0.24132,-0.4221 -0.26015,-0.70606 -0.39584,-1.0635 -0.0491,0.94524 -0.118,1.93327 -0.30024,2.79518 -0.66407,1.62218 -0.23379,-2.95211 -0.35244,-2.94711 0.17812,-4.34653 0.49815,-4.26347 0.63976,-2.71249 1.58361,-2.17231 6.8502,-1.24137 2.20968,-2.88148 1.0508,-3.67132 -1.32752,0.30716 -1.09916,-1.44849 -0.18763,1.78863 -5.90547,-3.38369 -4.8705,0.64389 0.25345,0.80119 -1.06691,9.1777 -1.27124,4.27364 1.43391,-1.65114 -1.86257,0.6534 -0.0858,-1.09657 0.93113,-0.20078 -2.53119,-6.24835 -3.54759,-1.00201 -0.182999,1.46355 2.73905,6.8181 -0.396875,6.8678 -1.655038,-2.99332 -9.812209,-2.76443 -3.804935,0.62115 -0.0931,1.3775 0.67974,4.00396 -2.046387,1.84588 -4.682115,0.39024 -5.634189,-2.00447 -7.150468,-3.15433 -1.694128,-1.81595 -4.229926,-0.76361 -2.793628,-2.96209 -1.777498,1.1399 -4.210768,-0.60659 -5.168677,-2.84014 1.476479,-0.84221 1.707394,-2.9271 0.221176,-3.61011 -4.647896,-1.8796 -0.104364,-3.50608 -0.229444,-4.21267 0.39393,-0.94807 -1.207085,-1.69187 -2.877344,0.70074 -0.299309,-0.49384 -7.582347,-3.76783 0.0088,-2.22984 3.914657,0.22173 -5.59955,-2.02947 -7.417118,-3.14141 0.765709,-1.31547 0.463464,-1.92091 -0.417545,-2.11925 0.330439,-1.08844 -0.54495,-2.44825 -1.736329,-2.20504 -0.576669,0.1582 -0.878349,0.16099 -0.7059,-0.55138 0.18774,-9.3684 -0.495773,-18.78466 0.297657,-28.10682 -0.73672,-7.54513 3.11866,-14.55716 3.40496,-22.05808 0.0712,-1.21397 -0.150669,-2.43656 -0.167949,-3.63389 1.761519,-4.6688 1.323167,-9.79113 0.447518,-14.59859 -0.496539,-3.13093 -0.787355,-6.21481 -0.521415,-9.38754 -0.21202,-2.74871 -0.123279,-5.49976 0.127641,-8.24136 0.310869,-4.21501 0.809285,-8.57508 -0.405143,-12.6969 -0.23072,-0.83116 -0.717012,-1.5919 -1.065052,-2.34301 0.4078,-5.28101 -0.96394,-10.4577 -2.079459,-15.56856 -0.81285,-4.127 -1.324436,-8.44312 -0.212907,-12.58579 1.639768,-6.14681 5.760107,-11.160313 9.457304,-16.186093 2.406817,-3.255237 4.892405,-6.522606 6.564974,-10.227799 0.247569,-1.50496 1.732349,-2.278573 2.744018,-3.24528 2.306438,-1.866377 5.105416,-3.272693 6.810954,-5.775875 0.834759,-1.565281 -0.003,-3.819277 -1.77922,-4.244186 -0.689049,-2.783646 0.659811,-5.621528 2.411739,-7.736478 3.162617,-3.820383 7.57844,-6.481314 12.304674,-7.890475 1.78571,-0.956745 3.53055,-2.029285 5.50612,-2.560567 7.16269,-2.222885 14.93503,-1.432446 21.98781,-4.119645 1.0894,-0.371381 2.08726,-0.987856 3.24579,-1.117245 3.24544,-0.741506 6.07981,-2.54594 9.11004,-3.802351 1.10415,0.482165 2.1981,-0.32487 3.30678,-0.390158 0.69528,-0.139336 1.49203,-0.261687 2.25774,-0.297139 0.72819,1.309891 2.63528,1.564648 3.76101,0.620634 0.32835,-0.242953 0.61768,-0.573556 0.96377,-0.191203 0.75981,0.405792 1.72378,0.122663 2.26911,-0.470772 0.64533,0.395126 1.39851,0.6863 2.1606,0.427881 0.51096,-0.138183 0.97876,-0.430576 1.32808,-0.828374 1.03031,0.742242 2.49521,0.664286 3.53881,-0.0093 1.24966,0.559364 2.87971,0.89036 4.0137,-0.101803 0.0999,-0.468606 0.78184,-0.344502 1.0449,-0.714685 0.5412,0.264026 1.15741,0.206436 1.72444,0.07596 1.30889,0.930729 3.45458,0.07217 3.58893,-1.583882 -0.013,-0.529548 0.13419,-0.808338 0.7121,-0.836125 1.19131,-0.468932 2.37882,-1.179507 3.12901,-2.232422 0.25023,-0.330722 0.86487,-0.208904 1.23042,-0.476456 0.43589,-0.260395 1.34316,-0.276733 0.93327,-0.972551 -0.1449,-0.615779 -0.23514,-1.257489 -0.5426,-1.820561 0.66381,-1.438953 0.46897,-3.468024 -1.03353,-4.300512 -0.69832,-0.46103 -1.71706,-0.06802 -2.25877,-0.799951 -0.55058,-0.493783 -1.2225,-0.913095 -1.73117,-1.414901 -0.10863,-1.328057 -1.3272,-2.25488 -2.53317,-2.57452 -0.17372,-0.438384 -0.28497,-0.915057 -0.57413,-1.296562 4.00626,-1.758352 8.34656,-2.757268 12.1853,-4.877221 1.39922,0.335059 2.56109,-0.781711 3.5941,-1.552877 1.01008,-0.622255 2.17568,-1.069686 3.36517,-1.177189 0.46928,0.492485 1.22554,0.601518 1.86087,0.421679 0.24405,1.029112 0.93362,2.114599 2.07222,2.244308 0.99349,1.101821 2.6777,0.875345 3.89744,0.307991 1.00209,-0.476136 2.10672,-0.772163 3.2153,-0.536918 1.01664,0.195944 2.04823,-0.248443 2.71559,-1.011308 1.4356,-0.02482 3.02863,-0.08845 4.37131,0.587561 0.65212,0.09025 1.23971,-0.55323 1.85312,-0.339514 0.54966,1.009198 1.7367,1.611016 2.88768,1.615922 1.83221,0.01934 3.92103,-1.142936 4.24315,-3.067513 0.046,-0.433069 -0.0603,-0.929775 0.46819,-0.564306 2.39703,0.579468 5.28601,-0.02412 6.81612,-2.076359 0.41234,-0.755414 0.76936,-1.563276 0.98547,-2.3941695 0.20426,-1.5246401 -0.96594,-2.8345064 -2.2841,-3.409611 -0.48766,-0.2312305 -1.05707,-0.5395441 -0.99735,-1.1668538 -0.35317,-1.4731138 -1.9006,-2.3191016 -3.33572,-2.2965007 -0.92128,-0.3828596 -1.88356,-0.72631558 -2.9006,-0.5880778 -0.5925,0.03286 -1.21232,0.223574 -1.73632,0.4082438 -0.26184,-0.53890276 -0.57998,-1.04731775 -0.87489,-1.56837968 z M 142.75769,8.9980042 c 0.0895,0.00786 0.1674,0.046278 0.22531,0.1328084 0.84373,0.8903824 2.20161,0.8197486 3.30264,0.5761922 0.701,0.9315952 1.95185,1.3534482 3.08612,1.4257522 1.03421,0.0523 2.11059,-0.53238 2.46703,-1.5347894 0.4039,-0.08839 1.07548,-0.3746668 1.34152,-0.00413 -0.0387,1.1189154 -1.17819,1.7367004 -1.73891,2.6003584 -0.54317,0.599505 -0.86823,1.400946 -1.24385,2.060339 -0.86148,0.408003 -1.7101,1.019366 -2.67736,1.069703 -0.16144,-1.061578 -1.28818,-1.522822 -2.23759,-1.612305 -0.4803,-0.06074 -0.40123,-0.76275 -0.81648,-1.002523 -0.44226,-0.592203 -1.3184,-0.542932 -1.65675,-1.205611 -0.35306,-0.457349 -0.96917,-0.750151 -1.3069,-1.134298 0.17252,-0.3745113 -0.21377,-1.0413385 0.37311,-1.0888225 0.16074,-0.036367 0.37982,-0.1604273 0.58756,-0.2320272 0.10387,-0.0358 0.20504,-0.058502 0.29455,-0.050643 z M 88.725338,36.873304 c 0.330729,0.486978 0.661457,0.973916 0.992187,1.460893 0.34641,0.512381 0.752787,1.3857 0.829407,0.273885 0.16059,-0.757091 0.254283,-0.830083 0.210323,-0.01757 -0.11041,3.393557 -1.183838,6.769822 -3.065446,9.597347 -0.33834,-2.087995 -0.336482,-4.215789 -0.576192,-6.316927 -0.0765,-1.066235 -0.11383,-2.20606 0.03359,-3.298507 0.63918,-0.446444 1.148452,-1.052717 1.576132,-1.699121 z m 19.643762,0.722953 c 0.18389,0.06167 0.36749,0.123335 0.55138,0.185002 4.10059,1.367135 8.51241,1.641647 12.77959,1.037662 0.88254,-0.08105 1.76651,-0.143845 2.65203,-0.181901 -0.77648,0.915383 -1.53768,1.869357 -2.64583,2.402955 -3.62792,2.026238 -7.9168,1.910782 -11.93778,2.233455 -3.85117,0.248252 -7.80933,0.671658 -11.314547,2.406571 2.115527,-2.735799 4.822517,-4.982016 7.708567,-6.867281 0.72063,-0.409207 1.44157,-0.995147 2.20659,-1.216463 z m -62.599797,3.984257 c 0.0536,-0.04298 0.127961,-0.05078 0.215491,0.0057 10e-4,5.95e-4 5.47e-4,0.0015 0.0021,0.0021 0.0291,0.13364 0.05885,0.265285 0.08165,0.40411 -0.14956,0.124666 -0.402243,0.141233 -0.387573,-0.205155 0.003,-0.08469 0.03477,-0.163452 0.08837,-0.206706 z m 34.361727,1.39268 c 0.0166,-0.107511 0.03526,-0.135371 0.07286,0.128674 0.41583,1.999805 0.456957,4.04963 0.725537,6.06888 0.28424,4.324113 -0.965019,8.602607 -2.493388,12.64574 0.0789,-6.232403 0.0685,-12.475089 1.633492,-18.494478 0.0302,-0.05435 0.04489,-0.241307 0.0615,-0.348816 z m -37.797693,0.648022 c 0.0269,0.02101 0.067,0.08516 0.132292,0.120923 0.31903,0.358327 1.05036,0.343513 0.902271,0.943612 0.228129,1.578671 0.854782,3.073609 1.016992,4.668965 0.254419,2.206473 0.470873,4.449864 1.334802,6.520016 1.744018,4.80684 5.171759,8.829324 6.671427,13.736629 0.60632,2.162232 0.456461,4.554365 -0.607198,6.551021 -0.558639,1.576621 -0.297316,3.220131 -0.580326,4.830713 -0.43103,4.292877 -1.135629,8.557479 -1.404049,12.866399 C 47.290531,88.308261 45.378421,82.510998 42.915214,76.940113 42.597044,76.184206 42.863614,75.31347 42.73538,74.508737 42.42479,67.969552 39.748396,61.873849 37.067509,56.00599 35.7799,53.06661 34.59697,50.078428 33.289962,47.150717 c -0.0883,-0.353879 -0.322628,-1.185783 0.341581,-1.019576 1.848778,0.307464 3.437263,1.413006 5.193481,2.019515 0.55326,0.206211 1.107945,0.408323 1.661914,0.612882 -0.354769,-0.953377 -0.71323,-1.905516 -1.0604,-2.861324 1.370579,0.396067 2.724526,-0.793058 2.853056,-2.141471 0.0131,-0.137996 0.02674,-0.160535 0.05374,-0.139527 z m -25.940022,3.771344 0.08268,0.05581 0.03617,0.02429 c 0.52504,0.323328 1.176767,0.449412 1.779737,0.308508 1.008619,0.683813 2.330587,0.736301 3.386356,1.212846 0.27233,1.32783 1.745197,1.814724 2.554366,2.760555 3.555667,3.247268 6.684349,7.109147 8.575188,11.502657 1.062439,2.462998 1.764562,5.111497 1.796272,7.805208 -1.343083,-1.013903 -2.571648,-2.17576 -3.802347,-3.323829 C 27.9002,64.870274 25.084447,61.896528 22.555729,58.691612 19.922892,55.284598 17.642353,51.501653 16.393315,47.39256 Z m 40.841434,5.725749 0.0098,0.0047 c 0.26137,0.224796 0.883793,0.04082 0.986503,0.261999 -0.32531,3.135141 -0.534605,6.303339 -1.328084,9.36532 -1.146379,-1.232092 -1.956455,-2.832602 -2.209685,-4.494816 -0.0406,-1.00843 0.769127,-1.800642 0.722437,-2.821533 0.0671,-0.613315 0.0454,-1.262532 0.325045,-1.828312 0.535029,-0.01961 1.056546,-0.369226 1.493965,-0.487309 z m 6.971151,3.231327 c 0.3635,0.463793 0.743506,1.01776 1.370976,1.19941 0.485309,0.163992 1.170721,0.05641 0.558622,0.691431 -0.850139,1.454824 -1.830172,2.935014 -3.285071,3.841626 0.13015,-1.636312 0.449621,-3.294903 1.042831,-4.861202 0.11433,-0.24058 0.138272,-0.780953 0.312642,-0.871265 z m 5.745386,7.210413 c 0.0458,-0.01272 0.06155,0.04049 0.02945,0.201021 l -0.01188,0.09922 -0.0052,0.04599 c -0.485019,3.130923 -1.197138,6.234847 -1.349788,9.408211 -0.766289,5.993504 -4.249525,11.331082 -8.857341,15.142745 0.15957,-3.632587 0.264276,-7.200394 1.030945,-10.730611 0.54971,-2.522079 1.348209,-4.932075 2.560567,-7.148918 1.375709,-2.545645 3.422139,-4.69088 5.837887,-6.270935 0.21777,-0.08019 0.627838,-0.708563 0.765328,-0.746724 z M 17.84904,178.98246 c 0.246099,-0.002 0.692449,0.0748 1.405599,0.30024 -1.078879,0.42769 -2.143899,-0.2934 -1.405599,-0.30024 z M 4.8818726,205.22479 c 0.0461,0.0394 -0.0796,0.1959 -0.5446696,0.55345 -1.2801478,0.26583 0.4062497,-0.67149 0.5446696,-0.55345 z m -1.1467001,15.55874 c 0.1304689,0.0397 -0.1535109,0.29824 -1.2634887,0.94619 -3.25053082,0.78489 0.8720591,-1.06538 1.2634887,-0.94619 z m 63.8937745,19.86183 c 0.002,0.002 -0.152449,0.0445 -0.155029,0.0481 0.005,-0.007 0.008,-0.0151 0.01344,-0.0222 0.0121,0.001 0.138933,-0.0296 0.141593,-0.0258 z m 37.383763,10.07536 c 0.0942,-0.16652 0.49048,0.1028 1.34152,1.45779 -0.81597,0.30816 -1.49844,-1.18024 -1.34152,-1.45779 z m 23.08438,1.97145 c 0.24534,0.0627 0.91659,0.7686 2.06964,2.63654 -1.70371,-1.05979 -2.47853,-2.74106 -2.06964,-2.63654 z m -20.90777,2.34354 c 0.098,0.0136 0.16292,1.01702 0.12816,3.72225 l -0.0413,2.24379 -0.0527,1.3839 c -0.91867,1.47331 -0.32802,-7.39089 -0.0341,-7.34994 z m -1.24488,0.40876 c 0.0433,-0.3144 0.10067,0.40483 0.16588,3.1781 -0.29796,8.01009 -0.29568,-2.23491 -0.16588,-3.1781 z m 28.03911,0.52914 c 0.0867,0.009 0.26521,0.19477 0.57723,0.70486 -0.27032,0.83066 -0.83722,-0.7322 -0.57723,-0.70486 z m -54.558941,0.89452 c 0.18146,0.0726 0.4065,0.30441 0.63407,0.80201 -1.332368,0.1988 -1.178439,-1.01979 -0.63407,-0.80201 z m 25.375711,0.42271 c 0.039,0.0451 0.0817,0.1875 0.12764,0.46509 -0.4781,3.6778 -0.40062,-0.78072 -0.12764,-0.46509 z m -20.433377,2.71971 c 0.13107,-0.0163 0.255089,0.0843 0.310059,0.40824 -1.159369,0.73933 -0.703278,-0.35942 -0.310059,-0.40824 z m 16.580897,1.25419 c 0.0806,0.0831 0.1762,0.30793 0.26614,0.75964 -0.61147,0.0152 -0.50782,-1.00899 -0.26614,-0.75964 z m -16.118393,0.0749 c 0.12796,0.044 0.213909,0.22113 0.167949,0.62683 -1.311089,0.3084 -0.551808,-0.75865 -0.167949,-0.62683 z m 3.513481,1.56373 c 0.360506,-0.0109 0.944487,0.27812 1.451591,1.16633 -1.626038,-0.23753 -1.963979,-0.82991 -1.72651,-1.0666 0.05937,-0.0592 0.15475,-0.0961 0.274919,-0.0997 z m 1.529106,2.61482 c -0.23184,0.22683 -0.512905,0.50046 -1.341004,0.88315 -3.178657,0.15342 -0.167585,-0.47372 1.341004,-0.88315 z m 18.630386,0.37311 c 0.45208,-0.13456 0.7074,0.014 -0.59014,0.84904 -0.51074,-0.29679 0.13807,-0.71447 0.59014,-0.84904 z m -17.390669,0.34261 c 0.71954,-0.26854 1.849311,1.40591 -0.338997,0.8692 v 5.2e-4 l -0.105937,0.2005 c 0.0105,-0.6752 0.205095,-0.98071 0.444934,-1.07022 z"
       sodipodi:nodetypes="cccccccccccccccccccccccccccccccccccccccccccccccccccccccccccccccccccccccccccccccccccccccccccccccccccccccccccccccccccccccccccccccccccccccccccccccccccccccccccccccccccccccccccccscccccccccccccssssccccccssccccccccccccccccsccccssscccccccccccccccccssccccccccccccccccccccccccccsccccccccssccccccscscccccscsscsccccccscscccscsscsscsscsscsscssscccscsscccs" /></g><path
     id="path69701"
     style="display:inline;fill:#090909;fill-opacity:1"
     inkscape:label="L-Dark"
     d="M 0,-0.03503568 V 21.188475 c 0.74579904,-0.459363 1.4743445,-0.817257 2.109432,-0.829923 0.6271393,-0.01251 1.1704807,0.258282 1.5714803,0.942578 1.021408,0.470822 2.4322074,1.519423 3.9558309,1.062984 2.4278448,1.355639 -6.2020707,2.700578 -4.8193441,3.095418 C 1.9972188,24.595641 1.0753856,25.160701 0,25.999034 v 4.280876 c 3.2008212,-2.240632 1.5606392,0.43321 4.7475138,-1.666565 -1.6862263,4.449734 -1.6821729,0.02773 -2.545581,4.138249 2.9245041,-1.129687 2.8186348,-4.751395 4.5056681,-4.715475 1.971226,-0.572845 3.7831711,-3.281148 1.8644857,1.019059 1.2553777,-1.824198 1.7810934,0.309997 2.4065714,-0.914156 -2.3503541,-2.253927 1.673902,-2.753462 3.460771,-3.628719 0.501159,-0.213361 0.828156,3.749755 -0.347783,2.162659 -0.197499,-3.135036 -1.174502,2.352809 -1.964221,0.65474 -2.4264229,-2.034705 1.759049,1.343902 -1.039213,2.340426 -0.467678,1.783635 1.930359,-0.27351 2.058789,2.299601 2.853427,-0.0062 -1.795001,-4.340257 1.424203,-2.235522 1.389198,-4.513673 3.675991,2.414971 5.412589,2.025199 1.209489,-2.243897 0.570285,4.538755 3.045292,4.387329 -1.082579,-2.706293 0.496814,-2.997091 1.968872,-0.118856 1.335959,2.728956 -1.297481,-4.413324 1.267106,0.672828 1.582339,4.092745 1.019901,1.780789 2.445329,5.084444 1.039769,1.239203 -0.558735,-5.933238 0.898653,-5.986198 1.209819,1.053977 -1.057056,-6.451731 -0.145727,-5.217253 0.33736,2.2541 5.391164,2.783144 2.841687,1.917713 -2.568158,-3.495195 -0.375136,-4.281427 0.649573,-0.408761 0.891769,-1.256931 2.691251,-0.433235 -0.800985,-4.151685 -1.646198,-3.080821 0.985842,-2.11363 0.103353,-4.606954 -1.226199,-1.931022 1.00406,-2.593663 0.324011,-3.797701 1.841258,-1.067864 -0.0756,9.171337 1.153418,4.360975 -0.26144,-4.566119 3.010904,0.732665 3.017904,2.629813 0.958239,2.114562 0.95218,-2.227709 -0.485759,-3.872632 -1.767088,0.484914 0.2768,-4.284934 -0.01447,-2.409672 1.254359,2.394698 0.367688,-2.058579 2.065507,-0.629419 -1.153899,-2.284067 1.181564,-0.273777 2.256193,0.702283 -1.256829,-2.964079 0.49537,0.230434 0.37052,-2.38125 -1.089709,-2.657515 0.573651,-0.140288 2.30942,-1.093473 0.713049,0.919296 1.307308,2.767625 1.592667,1.673283 2.566268,-1.712701 -2.398066,-1.017421 -1.290877,-4.442106 0.734349,1.708173 1.232321,1.893038 2.08256,0.642854 2.576698,2.364094 2.479388,0.919698 1.19631,-0.929142 0.325799,-0.331114 2.020549,-0.04931 3.759977,-1.420585 h 5.17e-4 c 4.680665,-0.476415 2.278927,3.57761 4.351155,4.102075 0.62683,0.633684 2.447816,-0.626024 3.603915,1.189592 2.788207,3.106686 3.225574,4.518915 4.075203,7.635709 -2.548007,0.753048 -1.772463,1.679016 -0.04082,2.948141 2.424787,1.457303 -3.219612,1.387602 -1.077454,2.723865 2.439338,-0.09764 1.559292,-0.382938 1.230933,1.998844 0.373419,-0.295454 3.61629,0.476208 2.020031,1.623157 0.0363,0.108049 2.261625,2.17501 2.722315,2.17041 0.30067,2.485503 2.864083,-0.378264 2.032434,2.337842 -2.631247,-2.462315 -2.010948,1.201449 0.03514,2.538863 0.531919,-1.55613 -0.72085,3.258128 -1.249019,3.237528 -4.213476,-1.060248 1.250873,-0.2393 -0.02791,-2.090828 -1.360248,-0.254957 -0.670834,-0.713676 -2.042252,-1.544609 -0.33801,0.21018 -1.963598,-0.279566 -2.086178,0.548804 -0.919789,-0.296536 1.117445,-2.979551 -1.722892,-2.315104 2.107178,-1.970232 -2.499941,1.011909 -0.756543,1.055749 0.517819,2.671696 -1.500532,1.525957 -1.579232,0.341065 -1.950918,2.224933 -0.09271,-3.562761 -2.698543,1.34152 0.449409,-0.701659 -4.802562,-1.114597 -6.300391,0.646472 -2.760517,-4.025916 -0.804395,8.224514 -1.101225,3.505729 2.064958,-1.704951 2.621962,-2.919133 2.372982,2.755904 -1.453308,2.908907 2.176979,-1.582513 0.5302,-4.251936 -0.310279,-5.20752 0.752405,3.841577 1.027845,1.744079 0.395469,2.121364 -0.597431,1.486211 2.905765,1.69137 -0.428029,-2.13254 -2.42368,-1.297339 -0.648022,-4.493783 -0.24752,1.597851 0.682687,2.207664 1.286226,2.66082 2.852817,-2.077029 -1.228814,2.16936 0.689364,1.449007 0.917429,-2.300636 1.014541,0.783107 1.838131,0.474906 0.08184,-0.0145 2.52762,-1.657631 2.897497,-2.366264 0.164006,1.874302 -1.18443,2.246221 -1.392163,3.847311 2.057508,-2.375852 2.650378,-1.551805 3.846277,-1.212329 3.232717,-0.04844 -2.350792,4.138843 -0.513664,2.86029 3.256637,-1.361129 1.972969,3.207954 1.124479,0.593246 -2.498627,0.721944 0.136944,0.238785 -0.558105,1.240751 -2.885857,1.371667 0.613323,1.113904 0.176733,1.475362 5.531205,-9.479815 4.556537,3.064495 -0.169498,6.463171 -9.340401,10.649846 -4.28735,-8.175693 -3.93206,-8.253243 2.732037,-4.956468 -2.970031,3.941314 -2.528011,7.671883 -0.36423,4.33621 -3.843029,7.643754 -7.048666,0.177767 -0.680759,-3.985669 3.6078,-18.934671 0.298173,-7.169071 -0.830089,8.545174 -2.51922,-1.416053 -1.964221,-0.945679 -0.717279,-7.122214 -0.290836,-1.544682 -0.631486,1.516704 -2.073968,0.05393 -3.280124,-11.534248 -3.389974,-15.656926 0.34235,-1.853129 0.382961,-6.090455 0.111621,-6.908622 0.30872,0.264779 -2.65757,-2.644475 -1.684651,0.283703 -0.28596,1.264092 0.211189,1.393066 1.260388,2.18643 -0.57363,3.632829 -1.98792,2.530317 -0.937411,4.156336 -0.172259,0.940374 -0.434352,2.039435 0.196888,3.656107 -0.30305,3.625152 1.123891,1.693682 0.732771,5.931421 -0.613499,2.640452 2.519082,8.353371 3.055111,12.886552 8.683911,7.970048 2.230314,17.706594 2.909383,27.636556 -2.213138,3.783641 1.164285,20.364482 -3.47679,9.845394 -2.921757,-7.967334 -7.393799,-15.607659 -9.400977,-23.65592 1.090049,-9.721035 -5.958857,-16.870199 -8.227404,-25.594821 -2.285218,-4.634486 -0.610793,-1.547706 -2.259811,-6.144844 -0.0861,8.018372 -0.727661,-5.050305 -1.41335,-1.144633 1.848028,6.640457 -2.398127,-5.229541 -1.014409,-0.262516 0.22718,2.41459 -3.402095,-4.040792 -3.535184,-4.384229 -3.084887,-3.188588 1.810737,4.356202 2.627746,5.893697 1.932818,2.341779 2.925491,4.448803 4.12533,7.255888 -1.650169,6.080371 5.621279,10.824207 6.308659,17.173112 2.942307,12.181738 -9.443526,1.594365 -11.833903,-3.012219 -4.416576,-4.848296 -8.908332,-9.657688 -11.230839,-15.898771 -1.948328,-1.313307 6.529114,11.626324 1.565279,6.301941 -3.149997,-1.67908 -2.402416,-8.570806 -3.957381,-4.199744 -0.3929695,0.947898 0.98276,2.311217 1.30638,2.748153 0.695716,1.559325 1.123554,2.197295 2.658752,3.997172 -0.0799,-0.09717 2.750846,2.473534 3.292306,3.453536 2.252077,1.447654 1.004374,1.275323 3.414262,3.421496 3.037747,4.433994 5.244813,9.714747 10.414868,12.563574 5.799164,3.9087 8.453567,13.226611 8.292517,18.272787 1.419598,2.751354 9.989253,16.853199 5.457548,12.968719 -2.114988,0.3259 -7.738034,-4.92381 -6.553605,-2.48254 5.789444,6.44318 10.476355,14.38563 10.714074,23.23528 1.398589,6.29092 1.697283,12.33724 2.443262,20.84317 0.20307,7.03176 -1.572115,16.99964 -2.910933,22.19089 -0.821379,2.46282 -1.311798,7.15733 0.28422,12.95012 0.803419,11.41935 -3.84584,23.10814 -3.055111,34.60409 -1.345868,9.29845 -1.791978,24.06449 -4.459676,27.48669 -2.063618,3.18947 -7.26365,1.71069 -11.533146,-0.83199 -4.770785,-2.68197 -4.976611,-6.11676 0.195854,-3.51658 7.178253,2.93135 -1.413042,-5.32971 6.22701,-2.10168 2.634417,1.5686 2.881217,-2.03608 -2.226738,-3.31918 -3.239646,1.06973 -6.919915,-6.28309 -4.943367,-5.10356 0.546159,1.24852 1.538094,-3.7141 6.255949,-2.06809 -3.859336,-2.26897 1.383958,-3.02004 3.364136,-3.48403 2.781447,-2.48332 -5.393474,-0.17228 -8.80153,-1.25987 0.376399,-0.19637 -5.746557,-4.07807 -9.661943,-6.53397 -3.582526,-7.32051 0.36553,-2.24859 3.614767,-0.29817 0.0363,-2.17385 3.676016,1.98328 6.073014,0.47232 2.186658,0.56285 3.477641,-3.75605 3.799251,-2.28772 3.287167,-1.26023 -2.264192,-1.24629 -3.425631,-1.04438 -1.228388,-0.78977 -8.756186,-5.11274 -7.046598,-5.50044 -0.564039,-0.84977 9.957233,2.25815 8.035685,-2.23138 -4.529185,1.02117 -9.937759,-2.65923 -12.753226,-6.27507 3.392496,0.75668 3.403257,1.0165 5.021915,2.18023 -1.421988,-2.94968 6.680886,-0.69301 2.85409,-3.59255 0.0174,-3.45567 -2.246311,-4.36856 -7.401616,-5.01933 -0.17725,-4.91692 -0.251022,-0.503 2.881995,-2.14561 1.183589,1.11923 5.964173,-1.61667 4.819344,-2.64945 -0.0136,0.61069 -15.670865,-6.83833 -6.717419,-5.53919 1.865098,0.27285 1.78113,-2.41168 4.536157,-2.56574 -2.295658,0.33534 -11.226935,-0.10942 -6.84196,-1.36994 -1.535768,-1.52515 -0.0373,-2.67103 3.111955,-4.69739 -1.610378,0.8241 -6.114723,-4.49954 -5.852873,-5.82703 1.783318,0.31517 0.365581,-3.6596 -1.380277,-1.83193 -2.002628,1.1894 1.194807,-3.9438 -0.0062,-2.06809 -1.128458,-2.03686 0.566405,-0.94006 0.641305,-2.78898 -0.591459,-4.20487 -0.776051,2.15629 -3.45767,2.69389 1.71044,1.23043 -1.2035987,0.5136 1.651062,2.02882 0.510249,1.69007 -1.709173,3.5682 -2.8427206,4.5284 2.3062476,4.94575 -11.4528319,4.9729 -2.9393555,8.05481 1.5168875,2.35636 5.6164401,0.37928 1.0407634,3.6003 -1.9240031,0.13447 -11.1117615,4.61085 -2.598291,5.3883 4.4851875,-2.38514 2.2189313,0.78717 2.2820312,1.96215 C 5.8757741,194.28961 2.4322549,194.66277 0,196.01966 v 2.57711 c 0.56559876,0.0189 0.81929861,0.14059 0,0.62787 v 0.58549 c 0.61133798,0.28572 1.5667969,0.59582 1.1063924,2.33164 4.9162901,-2.20578 1.1532124,-0.21711 1.2820923,0.66559 1.8769461,-1.51896 2.0033129,1.35959 4.2457357,0.709 C 9.2245524,204.1916 4.0670022,207.13561 0,208.24476 v 3.3445 c 0.67846657,0.28081 1.0444589,0.69155 0.66352539,1.39164 C 0.38922057,213.19314 0.23496199,213.39943 0,213.61342 v 2.80913 c 0.26083304,-0.0725 0.50688904,-0.13262 0.83354085,-0.25941 5.21496675,-2.8979 4.28151535,-1.98738 1.24230145,2.18384 -0.008,-0.33057 -3.4022813,1.16419 1.271757,0.60255 C 3.7140427,220.44631 2.2181195,221.381 0,221.91214 v 35.1901 c 1.7379453,-1.18469 2.2786943,-1.46558 0,0.26097 v 6.46885 c 0.35686125,-0.37855 0.57145784,-0.75838 0.45992025,-1.2702 2.73454125,-2.2032 1.83586765,0.5604 3.36103515,1.37511 0.0384,6.23678 5.371307,-8.94568 0.8035685,-3.68453 -0.8186882,-0.43251 -0.5247114,-4.09405 -4.50050046,-1.79524 -0.55112945,-2.26027 6.41810486,-2.48522 6.75669356,-0.73122 3.263793,-2.40089 -3.7946922,11.37798 -1.3229167,9.18755 2.2539217,-3.05324 1.3208273,-7.3819 5.6012087,-7.24762 6.702817,-1.38141 0.11967,-0.53409 -0.920357,3.098 1.211097,0.13451 9.859379,3.25669 2.153356,2.53421 -2.8805742,0.28902 -3.6801503,3.76927 -4.3346187,1.91823 -0.8793881,0.92498 -3.0444887,6.47277 -3.6064982,2.59106 -0.3981886,-1.28203 0.2642196,-3.56653 -2.1135661,-6.03994 -2.85968111,1.2744 4.4135604,3.66891 -0.7575765,4.24522 C 5.2910106,271.04191 2.5307506,269.33853 0,268.25453 v 3.40031 c 2.3662549,1.97727 4.8558994,3.76979 1.1885579,1.64848 C 0.43515408,272.84027 0.45178995,272.86666 0,272.59328 v 0.84801 c 0.41835519,0.53544 0.59758736,0.99015 0,1.11467 v 10.97349 c 41.286019,0.0106 86.894228,0.0515 149.88336,0.18551 -5.30592,-5.54522 -11.9636,-3.59149 -9.62577,-18.21129 -1.05928,-1.31634 -2.75641,-1.57281 -1.27228,-4.28707 3.01425,-6.18332 -3.02216,-0.17199 -2.32802,-3.71089 -0.003,-7.73785 0.15778,0.56384 -1.33687,-0.44287 -1.29516,-4.7326 -1.1343,2.70343 0.76223,1.37098 0.97194,8.95235 -4.27051,-6.67668 -3.64422,-5.90662 -1.92336,1.44168 0.15328,7.4941 -0.84026,7.76077 1.04777,3.63937 1.00141,5.09286 -1.36374,-0.82321 -1.8424,-7.2843 -3.61983,-4.02256 -0.12713,1.86811 1.02777,3.20409 1.21823,4.68899 -0.44235,2.16472 -2.94329,-2.46184 2.09819,4.07855 -0.53226,1.40819 -0.71998,-2.14091 -5.75883,4.42691 -9.35447,2.60966 0.56214,1.1062 -2.69179,0.25145 -1.58957,-2.65927 1.46286,-1.82896 -9.6783,-1.34647 -11.06909,5.0431 -1.16825,0.57199 -1.70639,-1.36044 -4.08864,5.14697 -1.38494,-0.62952 4.15769,-12.17036 6.76238,-15.69206 7.57716,-4.29618 2.56323,-2.40192 -2.29444,0.64182 -3.57829,5.77087 -3.31564,2.53218 -2.97914,-2.69648 -0.16824,-12.59372 -0.4023,2.26593 -0.64802,6.8001 -0.46598,-5.94435 -0.56549,-3.75828 -2.3425,-7.19646 2.44178,3.81651 1.10486,14.15706 -1.895488,4.48035 -8.642282,-9.44324 3.279888,6.3338 -0.40566,11.2143 1.487168,-4.87729 -12.436997,-14.93318 -6.836792,-7.47344 -1.076259,-2.55383 -0.157854,-2.51887 2.696993,2.64118 -4.962525,-3.7169 0.813158,1.29939 -3.143478,0.65319 2.839168,2.42811 0.231359,3.2243 -0.587561,2.38177 -0.544119,2.17389 -1.470295,0.21931 -3.001884,-1.45159 3.551787,6.20939 -4.288485,-1.14844 -1.773018,3.07526 -4.542185,1.31809 -1.95953,-4.65889 -4.151168,-3.57497 1.988488,-4.75552 -0.529038,-0.25172 -2.362646,-2.18592 5.935454,-3.75722 -0.929957,-3.07136 -1.092957,-0.76378 -7.200363,2.70144 0.628611,-2.2833 0.90072,-2.95434 -9.3262,4.93642 4.295427,-4.79602 -3.309875,0.0884 1.832558,-3.56611 -2.687523,0.55983 0.882633,-3.75739 -3.735656,2.31188 3.929595,-5.27063 1.694987,-3.41995 -3.190896,2.00276 -2.57917,0.10575 -4.943367,4.53409 -4.274076,9.36524 -4.271643,-7.40333 -3.353284,0.80253 0.891769,-2.70193 1.83493,0.76529 1.92133,-2.74866 -3.278107,-0.6847 -2.339115,-5.00793 -4.528923,-6.18877 -0.594589,-2.41904 4.33681,1.65652 2.670122,-2.81637 -1.229619,2.14783 -0.97047,1.25365 -2.739368,-1.57148 -0.007,6.18121 -2.067556,2.41634 -3.234945,5.43533 -0.403409,-6.27799 -0.596711,0.46725 -1.36064,-2.67581 -3.848406,-2.57121 -1.226317,-6.10473 2.836519,-7.55303 -3.490246,0.5534 -6.679632,0.81439 -5.277714,-2.00246 0.3374,-12.427 -0.542896,-24.85871 0.822172,-37.24527 -0.968709,-7.74232 4.912066,-16.25181 2.601909,-22.89214 3.895606,-7.28662 -0.856004,-12.62312 0.377754,-20.09903 -0.792889,-8.39031 0.461988,-18.60676 0.461988,-22.54281 -3.783557,-2.35715 -1.116555,-8.98527 -2.978113,-15.5174 -4.879475,-6.03371 -1.247097,-19.36435 3.609599,-26.333279 7.149502,-7.608813 10.467011,-18.679027 19.258772,-24.590747 7.754733,-4.333535 -2.874792,-2.371085 0.09508,-7.208346 1.067559,-8.398301 8.966925,-13.329779 16.393833,-15.831592 2.24415,-1.536317 6.9295,-3.198954 8.19382,-3.363619 5.42498,-1.511303 13.94418,-1.442922 17.79685,-2.682006 3.18763,-1.48343 2.12909,-1.005174 -0.30335,-0.970484 -4.94738,3.294657 -3.96868,-1.719732 -6.37945,0.104903 -9.41224,1.499577 -19.34933,0.907117 -27.714077,6.390825 -0.083,-5.900006 6.572467,-10.079979 10.268117,-13.381612 1.99222,-3.016855 5.50076,-0.887246 7.32461,-1.596802 2.72752,1.099172 3.58915,-0.702983 -1.38183,-1.116211 -3.24535,-1.741586 3.45142,-2.704362 5.27979,-3.159497 6.4555,-1.875131 -5.69689,0.312356 -7.44813,1.497583 -5.49177,0.184875 -5.86739,-3.365905 -1.92495,-3.651974 1.84069,-0.179292 3.56989,1.166833 5.17282,2.147156 0.002,-0.831413 -5.0212,-3.468406 -2.74557,-3.979085 2.05942,-1.981561 3.97999,0.732523 5.03225,-1.740979 1.94707,0.24311 -0.32151,2.993631 2.63291,1.037146 0.90862,-0.212533 -0.8751,-0.782604 -0.76791,-1.489832 -1.21653,0.937985 -2.72693,-2.32214 -3.68918,0.05219 1.65068,-0.127995 -4.21858,2.587645 -2.78794,0.163815 1.94429,-0.715231 -2.40556,-0.499211 0.79323,-1.516704 0.96014,-1.251185 0.0623,2.993455 0.86868,0.563274 2.12853,-1.35898 3.05041,-0.698036 5.17488,-0.02584 0.96567,-1.396402 3.17742,3.077623 0.293,2.764689 -0.87953,1.451887 5.27769,0.840039 1.69654,-1.814876 0.2357,-1.315329 3.55257,-1.148768 2.41846,-3.555855 0.81883,-3.885457 2.43203,0.994897 4.14703,-0.516764 1.609,2.335114 1.52849,-0.04251 2.26033,-0.52555 2.18165,0.586891 2.13646,-2.346013 4.02249,-1.870687 1.26642,-1.34125 -0.0372,2.662192 2.5709,0.929143 1.95817,0.461379 -2.88176,1.594544 0.0884,2.192114 -0.36181,-1.914934 2.54633,0.321337 -0.031,0.663008 -0.74659,1.411775 -3.0915,-0.828596 -3.1285,-1.580265 -3.10792,-0.271257 -0.58682,1.845082 -3.31142,1.791622 -0.27108,1.713469 5.41185,-1.329112 2.48408,2.165759 -5.91945,2.050409 2.00232,0.801421 -2.06189,2.456181 5.27025,-1.552926 -3.19497,3.632478 -6.44301,2.98018 6.764,-2.641171 2.6075,-1.889531 -1.13585,-0.36897 0.6317,0.285552 -1.72204,3.392874 -6.60425,3.883484 1.9163,0.197984 4.05477,0.553125 6.45077,-0.733288 6.46147,-1.886979 -1.94817,2.788916 4.7749,-0.724504 2.29444,-0.858978 6.73892,-2.320535 1.14774,0.646472 -3.18244,0.411301 -6.71537,2.689576 -8.74366,4.183207 2.22484,-0.907477 6.39166,-2.084117 6.99648,-2.566251 2.94782,-1.044468 5.02741,-4.144139 6.71173,-3.212207 2.27267,-2.799096 4.80274,-4.893401 6.62802,-6.113322 -2.15815,2.343264 -4.83266,4.747708 -5.80688,6.84351 1.72504,-1.728098 4.16661,-3.427821 7.61761,-3.988904 -5.05928,3.164518 -6.12424,4.70984 -0.29454,1.487764 -0.0522,2.790339 -16.72428,5.67448 -7.43624,3.956865 2.82812,-0.20004 6.40474,-2.937752 8.67905,-2.224154 -0.50172,2.007093 -2.59157,3.728318 1.03405,0.74104 1.27697,0.377463 7.95161,-2.887794 5.07773,-0.821655 -2.2909,0.205769 -4.53176,0.95427 -5.5852,3.238562 5.0425,-3.874117 4.23347,0.356118 1.18701,-0.369487 2.24965,1.718705 -1.52535,3.14658 1.98024,1.773536 -0.20778,0.155524 4.51026,-5.558967 3.87057,-3.145545 -4.17821,2.641821 2.28272,-0.01873 3.18947,-0.599963 1.77315,0.644731 -1.38046,2.449256 -0.0129,2.698026 0.92234,-2.024593 1.35821,0.52516 1.84588,0.793234 -4.15449,0.828627 -0.64254,0.141624 -1.52238,2.121834 2.1882,1.573901 1.7469,-0.411708 2.26756,-1.8495 2.71156,-1.762363 -0.83206,1.757383 1.48364,0.813387 -1.57735,1.223877 3.32304,1.716366 1.49293,0.04082 4.45948,-2.519094 2.03559,0.603437 4.77025,-0.86248 -1.0687,0.661643 2.8446,1.333152 2.45928,-0.186035 -0.11843,-1.534267 -0.65581,-0.746964 0.24805,-2.282548 3.0308,-2.965292 2.6214,0.264245 2.72697,-4.026628 -0.57036,-2.280117 2.32902,-3.378412 0.71055,-3.056144 -2.90527,-0.429586 0.78087,-1.45892 -2.12339,-2.202966 -0.97045,0.659996 0.0123,1.12712 -3.65714,-1.358574 0.006,0.898834 -4.75216,-1.488274 -3.09955,1.772502 -2.52208,1.427638 0.28063,-4.415936 -3.83956,-1.407149 -0.18737,-1.701793 -1.11451,0.108845 -2.16214,0.929142 0.15776,-1.022552 -1.11168,-1.548384 -2.21279,-2.069641 -2.01305,-0.191175 -1.24702,-1.859508 -1.74149,-3.037024 -0.43496,0.484464 -0.80545,0.967815 -0.99943,1.449524 -1.17464,1.447457 0.0506,-1.652822 0.25064,-1.890324 -2.27281,-0.81787 -4.78366,-0.898665 -8.87905,-2.838586 -2.33706,-2.25108 -2.99815,-2.744734 -4.29276,-4.009575 -2.5628,-0.37383 -1.10336,-2.3817025 -1.46451,-2.889229 0.26148,0.1066377 3.88723,-0.8920263 3.65301,-0.2289266 -6.64362,4.3261716 1.37018,-0.070342 3.7021,-2.2561931 0.374,-0.330568 2.63409,-2.658667 2.43861,-0.2666504 1.6853,0.5583021 5.55626,0.7497456 5.9309,-1.9042765 0.68349,-1.3301265 2.82822,1.3513625 -0.21239,1.929598 -0.0502,1.8515397 2.50606,-0.2570227 2.69441,-0.7622274 -0.15259,0.4154913 1.74317,0.9810988 3.30884,1.4174846 1.94304,6.2588404 -0.44665,4.7132784 2.05052,-0.9896037 -0.59474,4.3050595 -0.23633,8.0065071 0.59221,2.0525879 3.02018,-5.3713623 -1.27618,-2.9744564 2.40916,-5.8823283 -0.31944,1.2945299 1.22349,0.3054946 1.94717,-0.00723 -0.69538,3.1174609 -4.42388,6.910866 -0.46922,2.4169067 1.31635,-0.4437295 -2.70081,6.5569728 -4.12688,7.7395798 -2.35087,2.372069 -6.46686,4.644902 -8.49871,6.88175 1.58857,1.792652 5.44778,-3.36064 8.87078,-5.744869 3.61904,-5.2879924 5.14688,-6.5043596 9.69243,-9.0165039 -1.07139,2.8780499 1.41529,-1.7168628 1.30121,-0.5157308 -1.66444,2.3184754 2.09492,0.1346828 1.28364,1.850533 -1.80509,1.3234543 -3.99275,2.9474201 -6.12986,3.0065349 -3.05303,1.5867548 4.95127,-1.5577619 6.8585,-1.9833415 2.68582,-0.8746667 1.41432,0.8400797 0.75603,3.3780884 -0.73143,2.0251889 0.71758,-0.9185924 1.68723,-2.3471436 -0.10009,1.0039125 5.34064,-1.6994206 1.72445,0.9880534 0.29096,1.328041 2.29666,0.3966285 1.84174,2.7636561 2.13004,-0.835708 -0.12648,-2.389091 2.2779,-2.0546555 -1.02405,4.3786365 1.34439,-0.9752554 2.3859,-0.4681884 -1.06249,3.3123289 1.22505,-1.6447701 1.15754,0.05426 0.75837,0.232403 2.38391,-0.7477509 0.82839,1.8768879 2.28334,0.01242 4.18072,-4.1077221 4.43383,-3.1941201 -2.29906,1.2415215 4.77404,0.1244634 1.25419,2.3140706 -1.36129,0.6935625 -6.1983,4.6987025 -1.50379,1.5957675 2.63797,-0.83906 4.27246,-2.9520813 4.57853,-1.028878 3.55466,0.236416 2.53325,0.09776 3.84473,1.42782 -0.34943,-0.01807 1.40325,2.362489 0.98443,2.141988 1.71974,0.01171 2.77682,-0.688975 3.83749,-1.303796 -1.49635,-1.865461 4.11019,-2.8699254 3.07268,-2.083594 -1.4749,2.251427 1.3529,1.097581 2.33476,1.946135 1.9307,0.546283 4.71728,0.254838 7.40626,-0.738457 0.5466,4.694101 -0.16495,-0.783168 3.206,-1.8582835 -2.00738,-1.9957248 1.82717,0.2755415 3.18998,0.2919715 0.79907,1.752956 1.41383,-3.0444668 -0.0326,-2.1822954 0.39233,1.7418137 -4.84808,-1.2053004 -4.69481,1.5203206 -1.93673,1.7183218 -3.32213,-2.6828112 -5.00693,-3.5217488 1.84804,-1.1187091 1.66599,-0.7463637 1.67639,-2.7724406 1.3952,-0.3253166 -0.46014,-3.10918934 -0.5395,-3.22770998 h -70.73522 c -4.80609,0.20587454 -9.51482,0.6925704 -10.11101,1.94303388 0.60329,1.5369096 -1.65947,3.2998418 -1.07074,1.3699422 1.05888,1.2331405 -2.92238,-4.358919 0.12609,-1.0412801 0.87259,-4.4559399 -2.92605,-0.8941053 -2.59569,1.8515666 -0.11858,-1.0922158 -1.09274,-3.63662325 -0.97617,-2.1828125 -2.07103,3.9859547 0.97611,-2.06762467 -2.12235,-1.89135747 -1.59274,-0.04120048 -7.21197,-0.04909261 -7.21197,-0.04909261 0,0 -3.50799,1.61355868 -5.20743,1.50223388 3.16063,-1.31411612 -1.27124,-1.50223388 -1.27124,-1.50223388 H 81.419836 c 0,0 -4.522219,2.71500218 -4.987809,0 H 45.638558 C 40.293723,0.5503813 31.335743,0.34516098 29.748055,1.7524521 c 0,0 -1.554181,1.2415873 -3.259749,0.5079793 -1.584161,-2.0022475 -2.489043,-2.27994474 -2.897498,-2.29546708 h -0.278536 c 0,0 -7.805502,-0.02891302 -8.124052,0.72657064 C 14.718141,1.324496 10.457627,0.01393176 6.8683146,-0.03503568 Z M 147.58479,18.850633 c -0.0146,-0.01647 -0.0359,-0.01232 -0.0501,-0.02997 0.01,0.0209 0.007,0.04646 0.0155,0.0677 0.0113,-0.01257 0.0232,-0.02515 0.0346,-0.03772 z M 112.43758,33.68642 c -0.91798,-0.09484 -1.80105,-0.157915 -2.60707,0.02119 0.94341,0.08741 1.80073,0.05984 2.60707,-0.02119 z M 66.41145,245.07403 c 1.500299,-0.23788 3.045802,-0.52101 4.308781,-0.64337 -1.483478,-0.0991 -2.965112,0.16438 -4.308781,0.64337 z m 4.308781,-0.64337 c 0.926669,0.0619 1.84505,0.23514 2.711979,0.59428 -0.1441,-0.66327 -1.24311,-0.73659 -2.711979,-0.59428 z m 49.057989,25.08478 c -0.15252,-0.30012 -0.52697,-0.71564 -1.41645,-1.30845 0.43256,0.63512 0.9107,1.05285 1.41645,1.30845 z M 67.704911,1.333873 c 0.71016,-0.020061 1.416627,0.4442951 0.426848,1.5916341 L 67.602075,3.0939723 67.255843,2.6490382 C 66.280954,1.85839 66.994762,1.3539334 67.704911,1.333873 Z M 12.365137,1.5633164 C 13.417436,1.2639824 13.823015,2.4813497 11.605493,3.127562 11.272964,3.5866026 8.5229638,3.0754963 11.170378,2.4454331 11.591697,1.9313017 12.014367,1.6630943 12.365137,1.5633164 Z m 167.607853,0.0863 c 0.084,0.077062 -0.40348,0.4164477 -1.98799,1.2097453 -3.65825,0.6881456 1.73607,-1.4409297 1.98799,-1.2097453 z m -24.76283,0.016536 c 0.15601,-0.00297 -0.25229,0.8464018 -1.52083,2.6840739 -0.71096,0.7230971 -0.56989,-0.1189609 -0.34313,-0.252181 0.98777,-1.5732642 1.70796,-2.4289208 1.86396,-2.4318929 z m -90.877136,0.00258 c 0.18427,-0.3149678 1.588458,1.316125 1.559078,3.0638996 C 64.550973,2.7472231 64.222474,1.8577193 64.333024,1.6687363 Z m 36.643756,0.039274 c 0.11229,0.047563 0.11657,0.238725 -0.076,0.6671427 -1.648164,2.1917782 1.91662,4.1758414 -0.87282,6.5169149 -0.536561,1.340259 -0.04059,-1.8871366 -1.535304,-1.5740641 -0.0994,-0.7919477 3.008524,-2.8720742 1.133781,-2.5311117 -1.822838,2.3054659 -1.261762,-1.3034792 -0.156063,-2.1704101 -0.13684,0.097136 1.169506,-1.051159 1.506366,-0.9084717 z M 16.903878,2.2914373 c 0.16069,-0.071228 0.330669,-0.044834 0.504879,0.1142049 -1.235439,2.5698528 1.13268,1.067353 -0.763778,3.6535238 -1.535329,2.0090094 -0.86597,-3.2691343 0.258899,-3.7677287 z M 7.6786011,2.3958237 C 7.9101708,2.3969537 7.7745891,2.7541119 6.5949463,3.8040065 5.88683,3.381651 7.2926525,2.3939433 7.6786011,2.3958237 Z M 21.876701,2.5286321 c -0.834439,2.7331332 0.57697,2.5144039 2.338358,2.2675619 -1.611878,1.7364439 -0.699338,3.8080346 -1.380277,4.1087931 l 0.07958,0.3338298 -0.20929,0.1312581 C 20.411486,7.7653768 23.560881,6.5991536 20.675224,7.4854355 18.365016,9.1058476 23.200241,3.5262507 20.534664,5.5718572 18.965815,5.3165744 21.811101,2.9363925 21.876701,2.5286321 Z M 179.50791,2.7978663 c -0.0346,0.1123386 -0.82831,0.6671479 -3.05098,1.9239136 1.05765,-1.0693251 3.10861,-2.1111445 3.05098,-1.9239136 z m -52.18183,0.2113566 c 0.30555,2.1122551 -0.0377,3.3613312 -3.00809,4.1077596 -1.48517,1.0935897 -0.81161,-0.8026631 0.17209,-0.4035929 2.52331,-1.0489009 2.17498,-2.9593235 2.836,-3.7041667 z m -7.58662,0.092501 c 0.55873,-0.1343745 2.43734,1.7251138 0.76223,1.677417 -0.63091,1.0468469 -0.40377,-1.1862842 -0.70022,-0.7338054 -0.28757,-0.6322601 -0.24828,-0.8988201 -0.062,-0.9436116 z m 16.66048,0.2883545 c 0.20351,-0.078019 0.0229,0.5679832 -0.96221,2.2567098 -0.31372,0.4958946 -0.87147,0.7349139 -0.37982,-0.1684652 0.55094,-1.2080809 1.13853,-2.0102255 1.34203,-2.0882446 z m 25.3199,0.00568 c 0.24227,0.00439 0.15465,0.7496081 -0.9188,2.931604 -0.80457,-0.8881626 0.51503,-2.9389183 0.9188,-2.931604 z M 84.724544,3.7073715 c 0.0616,-0.026003 0.150848,-0.021945 0.270268,0.023254 0.31845,0.1205323 0.851185,0.5310726 1.645894,1.4288534 -1.423318,0.4015344 -2.347391,-1.2700852 -1.916162,-1.4521074 z m 80.046796,0.00207 c 0.37806,0.016745 0.1334,0.4477117 -1.86139,1.6619141 -1.12871,-0.5667978 1.23128,-1.6898217 1.86139,-1.6619141 z M 39.825993,3.8551661 c 0.607779,0.013975 1.471853,0.4240266 1.970422,0.8609294 1.494589,-1.5266215 1.25038,2.1297019 1.23455,3.6142497 L 42.823743,8.5990626 C 41.030094,6.1111766 40.929533,8.4346727 39.391394,5.3692856 38.866305,4.2230445 39.218213,3.8411911 39.825993,3.8551661 Z m -1.961121,0.1705323 c 0.38145,0.1156251 0.992136,1.3440588 1.634526,2.1373372 1.812688,1.4978368 -2.123084,-0.5268337 -2.030884,-0.8092529 0.0214,-1.066277 0.167498,-1.3974593 0.396358,-1.3280843 z M 143.92713,4.2349879 c 0.35102,-0.030953 0.71595,0.3619503 0.65009,1.7306437 -0.38758,0.9167879 -0.80175,-0.7750117 -0.22324,-0.6025472 -1.55753,0.151956 -1.01188,-1.0765074 -0.42685,-1.1280965 z M 14.932939,4.364179 c 0.192119,0.1245811 -0.0901,0.6048386 -1.184424,1.5921509 2.945537,-1.2992045 0.382208,2.3984687 -1.79834,0.4149617 -6.6390319,4.7489284 5.667924,-1.4650198 -1.69137,2.3936524 v 0.00103 L 9.5270671,8.756674 C 9.5122671,6.8177048 14.356569,3.9904357 14.932939,4.364179 Z M 154.496,4.464948 c 0.18255,-0.062667 0.31851,-0.07659 0.3793,0.013953 0.0849,0.1264065 0.0224,0.4605024 -0.26562,1.1570353 -0.20136,2.3512228 -1.5535,0.369178 -2.25309,-0.7994344 0.62375,0.4427427 1.59175,-0.1835512 2.13941,-0.3715539 z M 73.485954,5.1811834 c 0.25851,0.048857 0.549165,0.170346 0.871264,0.3844727 0.32015,-0.2146216 -2.219334,0.6468563 -1.208195,2.4246582 -1.699608,0.06734 -1.472577,-3.1511273 0.336931,-2.8091309 z M 36.225696,5.3568833 c 1.761368,0.3983274 2.683647,3.666485 2.226737,4.3211832 -1.195159,-0.1968954 -1.362688,0.2662169 -3.418396,-2.0071126 -0.750339,-2.3055545 1.980388,0.3988109 0.38654,-2.2928833 0.28429,-0.076202 0.553489,-0.078091 0.805119,-0.021187 z M 10.651029,5.5630722 C 10.626329,5.7329214 10.281388,6.1758216 9.3524007,7.052387 7.9176932,6.9996531 10.725239,5.0535248 10.651029,5.5630722 Z m 108.294681,0.00827 c 0.22517,0.1350654 0.17108,0.725123 -0.68006,1.6340087 -0.3663,0.4346127 -1.91065,-2.5646687 -0.31574,-0.5369181 0.26625,-0.9119391 0.77063,-1.2321561 0.9958,-1.0970906 z m 22.49475,0.2382283 c -0.0265,-0.07231 -0.45703,0.1207418 -1.62729,0.837675 -1.85242,1.9846935 1.70667,-0.6207445 1.62729,-0.837675 z m 70.40242,0.8469767 c -0.11811,0.044773 -0.21376,0.3453826 -0.21704,1.1027751 1.12798,0.9334851 0.57138,-1.2370943 0.21704,-1.1027751 z M 92.608301,7.4513291 c 0.605929,-0.3694607 0.295731,2.9178509 1.83503,0.179834 1.689948,1.8728564 0.925106,2.8161259 -0.683163,5.3655639 -1.286448,0.466997 -0.625151,-0.290814 -0.114721,-0.83044 -0.740769,-0.564339 -2.42737,-2.318862 -1.360641,-4.3046471 0.13202,-0.2302748 0.236935,-0.3575306 0.323495,-0.4103108 z m -67.128719,0.059945 c 1.102599,0.098456 2.626026,2.6778289 0.728637,2.1657593 -1.198868,0.8410606 0.527926,-1.3538402 -1.548742,-1.2309326 0.13175,-0.7249441 0.452575,-0.9676454 0.820105,-0.9348267 z M 175.97272,7.6285792 c 0.1823,-0.039625 0.26523,0.3906162 -0.10439,1.7921387 -0.77927,-0.3548915 -0.19944,-1.7260975 0.10439,-1.7921387 z m -99.976842,0.010852 c 0.0491,0.1380662 -1.259923,3.5933168 0.663525,1.7988566 -0.708199,-1.2262383 2.07641,-0.5976187 2.76469,2.2567102 0.297399,0.447575 -4.522112,2.949461 -1.927015,0.417545 2.624918,-0.425769 -1.84016,0.01521 -1.065051,-0.98857 -1.537658,0.275432 -3.42515,1.648988 -2.389001,2.745052 -0.931909,-0.934471 -1.882021,-0.331358 -3.04891,-2.623612 1.292019,-2.9739776 2.549052,-2.2214967 4.88394,-3.4369999 0.0758,-0.1406487 0.110802,-0.1887057 0.117822,-0.1689819 z m 46.745982,0.2247925 c 1.00413,-0.2057118 -0.87123,2.4341703 -2.08049,2.6391153 -0.0846,-0.150793 0.0322,-3.0390873 1.46348,-2.3616129 0.2713,-0.1609291 0.47356,-0.248115 0.61701,-0.2775024 z M 80.386825,8.2828029 c 0.790919,-0.24806 0.661787,1.1549866 0.163297,1.2624552 -1.805008,0.050986 0.182914,-0.1210863 0.160714,2.1363039 -0.6642,-0.703757 -0.76084,-0.46083 -1.442289,-2.491321 0.488539,-0.5586652 0.854648,-0.8247514 1.118278,-0.9074381 z m 47.430695,0.047026 c 0.34731,-0.072651 0.65174,-0.062672 0.86558,0.08785 2.47458,-0.037194 -0.20024,2.3491211 -1.98386,2.5440311 -1.30405,-0.539411 0.59553,-1.1726432 -3.14141,0.836642 -1.90822,0.712111 0.60638,-2.1873488 1.29553,-2.159559 0.49787,-0.1304253 1.92224,-1.0910105 2.96416,-1.3089641 z m -22.73505,0.2935222 c 1.1877,1.4168539 5.16335,3.3016429 2.40554,4.0938079 -0.0365,-1.464227 -3.69218,1.35759 -0.53795,-1.655197 -1.99944,1.069168 -1.30189,-0.629031 -1.86759,-2.4386109 z M 46.866907,8.8419419 c 0.15347,0.016787 0.505916,0.54279 1.086755,1.9647381 0.10146,-2.174215 0.260286,-1.2520993 2.086694,1.174088 -2.305887,1.340459 -3.633839,-3.1891833 -3.173449,-3.1388261 z M 21.264852,9.126679 c 0.18275,-0.360688 2.473153,1.599309 0.746724,1.303796 C 21.377327,9.6250787 21.203942,9.2469084 21.264852,9.126679 Z m 90.987208,0.072347 c 0.10215,-0.00283 0.22619,0.027853 0.3576,0.084233 0.52564,0.2255174 1.16948,0.861523 1.00769,1.404565 -0.56534,0.192788 -0.59075,-0.597798 -1.30483,-0.345199 -0.47669,-0.8247767 -0.36691,-1.1351085 -0.0605,-1.1435986 z m 79.868,0.076998 c 0.63567,-0.049098 1.28233,0.2205462 0.0331,0.956531 -1.29337,-0.5395419 -0.66869,-0.9074328 -0.0331,-0.956531 z M 62.266484,9.405215 c 0.0997,-0.1253659 0.640076,0.5286775 1.896525,2.878894 C 63.1579,11.988261 62.100284,9.614158 62.266484,9.405215 Z m 21.424532,0.929142 c 0.854629,0.02821 1.636186,0.317613 0.987536,0.445451 -0.008,1.974683 -0.874614,3.395385 -1.222664,5.755204 -0.41068,1.52061 -0.402795,-1.803578 -1.289844,-1.67535 0.20499,0.336668 -1.62243,-6.5799084 0.09767,-3.405476 -0.35505,-0.915432 0.572673,-1.148037 1.427302,-1.119829 z m 28.011724,0.165365 c 2.85422,0.602171 0.15543,1.297447 5.2e-4,2.257226 0.87062,0.96101 -0.14016,0.438528 -0.31213,1.16272 -1.82042,-2.601753 -1.79572,1.071468 -2.2164,-1.669149 0.6274,-4.157915 0.3235,1.819337 2.52801,-1.750797 z m 10.86859,0.232544 c 0.15903,0.07383 0.1508,0.553425 -0.40824,1.718241 -0.58594,-0.837219 0.14319,-1.841283 0.40824,-1.718241 z m -2.46083,0.06046 c 1.34672,0.470928 -0.3915,4.203199 -2.02158,3.606498 l -0.1757,0.169499 -0.26304,-0.177767 c 1.84888,-1.19625 -2.06113,-1.553517 1.68465,-3.578076 0.32761,-0.08797 0.58328,-0.08743 0.77567,-0.02015 z m -53.634454,0.08992 c 0.330389,0.08217 1.098866,0.835171 2.251025,2.777608 -2.135398,-1.188183 -2.801685,-2.91456 -2.251025,-2.777608 z m 117.412984,0.183968 c -3.17031,0.94159 -1.00996,0.48903 -2.05258,2.336292 2.07008,-0.14122 1.01567,-1.275301 2.05258,-2.336292 z M 79.963595,11.980768 c 0.0768,-0.206733 0.491642,0.135003 1.456241,1.838131 -0.772729,0.374233 -1.584191,-1.493574 -1.456241,-1.838131 z m -58.859457,0.08268 c 0.57073,0.0064 0.823655,0.346422 -0.392224,1.546675 -0.685929,0.948247 -1.736735,-0.903655 -1.121895,-1.091406 0.0551,-0.13436 0.94339,-0.461657 1.514119,-0.455269 z m -4.287593,0.810286 c 0.522429,-0.0459 1.953669,0.374798 2.726448,1.400431 -2.862467,-0.842048 -3.248868,-1.354535 -2.726448,-1.400431 z m 42.431518,0.583944 c 0.42719,0.02336 0.900364,0.349962 1.553394,1.594218 1.120729,1.325378 3.075699,2.194309 2.41639,2.985347 -0.7942,0.153885 -6.246793,-2.532418 -6.907072,-4.124813 1.458528,1.207182 1.50836,0.940354 1.65933,-0.228409 0.46946,0.03044 0.850779,-0.249697 1.277958,-0.226343 z m 19.188493,0.322461 c 0.44636,0.121756 0.892471,0.555171 1.149801,1.101741 1.639708,-0.590574 2.358894,1.571446 2.262394,3.584278 -2.375008,1.913354 -4.862649,-3.455946 -4.563029,-3.917074 0.25799,-0.700622 0.704464,-0.8907 1.150834,-0.768945 z m 9.869165,0.09715 c 1.682108,1.001596 1.830211,2.092948 0.156063,3.625102 -2.328648,-0.177277 -0.643622,-3.370434 -0.156063,-3.625102 z m 7.927682,0.03049 c 0.932219,0.344621 2.234908,-0.382246 1.899108,3.594612 -0.715879,0.703034 -2.822528,-3.372653 -1.899108,-3.594612 z m 8.909017,0.101802 c 1.65559,2.349006 -0.38562,3.146693 -1.05265,4.10776 0.0488,0.521932 -0.31323,0.019 -0.31523,-0.05633 0.56333,-2.354924 -0.65036,-4.207087 1.36788,-4.051432 z m 74.76133,0.216524 c -0.5038,0.01937 -1.64219,0.50308 -1.71979,1.185974 h 5.1e-4 l -0.36742,0.413929 c 2.4598,-1.174095 2.5905,-1.619278 2.0867,-1.599903 z m -63.75063,0.221692 c 0.30703,-0.05132 0.58249,0.318312 0.8816,0.979269 0.18902,1.931894 -1.43359,-0.269172 -2.47892,1.80299 -1.7001,0.520109 1.12303,-1.573388 0.52555,-1.235583 0.42619,-1.023039 0.76474,-1.495357 1.07177,-1.546676 z M 9.4164795,15.076703 c 2.6951435,1.125888 -3.1473236,5.401432 -0.2775024,7.222815 -0.6785784,0.750565 -1.7850215,-2.159672 -3.4297649,-2.847371 -0.1180198,0.782053 -0.5164418,1.85603 -1.328601,-0.636654 0.8980091,0.172616 2.2310137,-3.584691 2.4877034,-0.781347 1.4787865,-4.405127 0.9877775,1.577271 2.5481649,-2.957443 z m 60.2655725,0.49196 c 0.921949,3.201332 1.778771,3.214199 1.120861,4.042131 1.229109,2.187622 2.566224,3.137489 1.910995,6.198588 0.0646,0.789518 -2.428323,-3.170211 -1.644344,-1.600936 -1.496149,-1.599185 -2.07756,-4.757081 -2.08256,-5.05964 -2.758018,-3.852057 -0.503961,-2.872305 0.695048,-3.580143 z m 104.278908,0.07183 c -1.11241,-0.123834 -1.37078,0.986819 -2.95176,1.690336 0.97224,0.488047 -10.10121,3.423738 -8.22069,5.351095 1.40843,-1.553965 3.78631,-1.74543 5.44567,-3.052527 3.45047,-2.014553 3.30028,-2.123831 7.20472,-3.392558 -0.64127,-0.376418 -1.10714,-0.555068 -1.47794,-0.596346 z M 11.548649,16.843004 c 0.873107,0.223769 1.185466,1.304789 -1.219047,2.492354 L 9.7983683,19.585472 9.4040771,19.495038 C 9.2415983,17.252763 10.675541,16.619233 11.548649,16.843004 Z m 47.691146,0.403076 c 0.604599,-0.211565 3.978409,1.926077 3.19102,3.708818 -1.272189,1.131966 -1.675362,-2.250489 -2.615861,-2.613794 -0.67059,-0.692684 -0.776689,-1.024503 -0.575159,-1.095024 z m 28.109912,0.115755 c 0.556869,1.865108 4.097648,-1.599597 1.132231,1.608688 0.567809,0.227487 2.049954,1.365022 2.680973,1.923913 1.168989,-1.082582 0.201062,2.86522 -0.182418,2.52336 -0.695799,-1.252655 -0.959708,0.699196 -2.642216,-0.72657 -3.094767,0.227045 -3.204028,-5.303731 -0.98857,-5.329391 z m 3.813204,3.532601 c -0.0429,0.03968 -0.067,0.03612 -0.115755,0.08992 0.630949,0.408359 0.475775,0.22895 0.115755,-0.08992 z M 75.735946,19.300735 c 0.687049,0.172051 1.797884,0.938219 3.508313,2.296501 2.522427,0.901636 1.695107,4.444977 1.926497,5.852872 -0.681009,-2.274718 -3.10492,1.725 -4.226099,2.57452 -2.586407,-0.379835 -0.613892,-5.335331 -1.929081,-6.620784 -0.393119,-3.025732 -0.424729,-4.389863 0.72037,-4.103109 z m -32.723584,0.08578 c -0.7754,0.122497 -1.974445,0.636233 -2.350244,1.740462 1.492828,0.0499 1.575784,-1.33837 2.803963,-1.41025 0.283649,-0.16249 0.291848,-0.278044 0.134358,-0.329695 -0.118109,-0.03874 -0.329608,-0.04135 -0.588077,-5.17e-4 z m -15.012004,0.510563 c 0.51511,-0.02132 0.742481,0.32 -0.322978,1.398364 -2.193637,-0.319626 -0.535551,-1.36283 0.322978,-1.398364 z m 11.173478,0.01395 c -0.699919,0.63712 -1.302877,0.370072 -1.204577,1.769401 0.390089,-0.07456 2.578046,-0.969162 1.204577,-1.769401 z m 73.082364,0.15813 c 0.39032,0.306416 -1.70245,2.302462 -2.78485,2.718697 -0.52659,1.187249 -0.14458,-2.733869 0.0481,-0.863514 1.52217,-0.954198 -3.39824,-0.323272 1.38958,-1.477429 0.81131,-0.394314 1.2171,-0.479893 1.34721,-0.377754 z m -19.683556,0.5333 c 0.681709,0.106037 2.287984,1.689571 2.070675,2.819466 -2.496678,-2.184456 2.652797,1.801114 -0.50798,1.279509 -0.905909,0.879263 -1.77984,-0.126453 -2.695959,-0.07493 2.700637,0.159865 -0.299826,-2.492691 0.861963,-3.56619 -0.08,-0.364397 0.0441,-0.4932 0.271301,-0.457854 z m 4.620907,1.266073 c 0.961549,-0.04113 2.544222,1.943752 0.02635,2.560567 -1.674419,2.027446 0.621969,-1.965434 -0.38654,-2.409155 0.0983,-0.09847 0.222825,-0.145537 0.360185,-0.151412 z m -20.786845,0.37207 c -0.37337,-0.119786 -0.918347,0.245184 -0.514698,1.454692 1.089759,-0.730364 0.888057,-1.334906 0.514698,-1.454692 z m 47.330964,0.05116 c -0.66793,0.612291 -1.45693,1.965677 0.63458,2.580721 1.73952,-1.703585 -1.11075,0.244294 -0.63458,-2.580721 z m -17.77618,0.525549 c 4.10849,-0.290376 -0.32869,3.601619 -2.10633,3.572909 -2.05692,-1.223219 1.19983,-2.644361 2.10633,-3.572909 z m 13.97899,0.701766 c -1.03131,-0.157171 3.04678,2.792493 0.95653,4.375444 -1.72059,1.919307 -2.46428,-1.293008 -4.50463,1.151351 1.3184,0.414217 3.15787,-0.152766 5.13095,-0.571542 5.56167,-1.689024 2.34291,-0.487279 4.25452,-2.925403 5.15136,-2.583135 -0.84391,-1.494055 -1.63039,0.95188 -3.83925,2.489184 -1.47401,-0.531213 -3.41943,-2.711462 -0.38875,-0.162305 -0.64022,-0.247815 -0.78755,-0.270268 z m 11.39879,0.395842 c 0.49048,0.03925 0.2264,0.506908 -2.20348,1.752864 -1.52708,-0.693799 1.38602,-1.818283 2.20348,-1.752864 z m -77.936328,0.180867 c -0.0603,0.168346 -0.0574,0.810554 -0.224276,1.473812 0.17297,-0.04509 1.119013,0.05737 0.828373,-0.102319 -0.420559,-1.23407 -0.543787,-1.539839 -0.604097,-1.371493 z m 82.376888,0.09147 c 0.13276,-0.05334 0.21445,-0.03937 0.19223,0.06873 -0.0296,0.144137 -0.24377,0.454843 -0.76843,0.994771 l -0.2837,0.419613 -0.2837,0.115238 c -0.11225,-0.669967 0.74532,-1.438319 1.1436,-1.598352 z m -100.625903,0.0057 c -0.35391,-0.0083 -0.857993,1.998545 0.121956,2.871659 0.24855,-2.136416 0.0904,-2.866673 -0.121956,-2.871659 z m 133.405293,0.128674 c -0.493,0.156542 -0.93084,0.655318 0.16588,1.026811 0.87528,-0.997659 0.32712,-1.183353 -0.16588,-1.026811 z m -149.182108,0.02842 c 0.527729,0.110576 0.922314,0.5929 0.307475,1.641244 -2.436578,-0.977666 -1.187034,-1.825538 -0.307475,-1.641244 z m 46.576485,0.08113 c 1.140069,0.183817 3.206407,3.46173 3.001367,4.51652 1.044599,1.835177 -0.233565,4.054195 0.374654,5.80378 -0.659629,-0.02516 -1.256783,-0.751762 -1.796272,-1.160135 -1.765759,-2.423571 -2.288884,-6.008298 -2.292884,-8.115784 0.0559,-0.823241 0.333105,-1.105654 0.713135,-1.044381 z m 32.176847,0.816488 c 0.39456,-0.112765 0.440362,0.390217 -0.513147,2.894914 -1.104589,0.242971 -7.644715,-2.148096 -3.559989,-2.7342 0.42061,1.452978 4.595629,-1.100856 2.494421,0.638203 0.4406,0.04222 1.184156,-0.68615 1.578715,-0.798917 z m 69.552856,0.05013 c 0.002,-0.124102 -0.0228,-0.09955 -0.16794,0.141593 0.0747,0.0049 0.10126,0.01937 0.17105,0.02532 0.002,-0.04152 -0.003,-0.139346 -0.003,-0.166915 z m 0.003,0.166915 c -0.0231,0.519163 -0.0897,2.007968 1.85105,3.143994 1.01284,1.541983 0.84918,-1.957146 0.52968,-1.293461 -2.75321,0.646183 1.80375,-1.493386 -2.38073,-1.850533 z m -80.912378,-0.09819 c 1.917488,-0.148044 1.446353,2.363887 0.0279,4.425053 0.705879,-0.137049 1.53183,-0.03029 2.290299,0.386539 -0.684979,-0.98371 -1.115499,-1.959584 -0.40721,-3.020487 6.597063,0.240564 9.458742,6.568805 5.445146,12.11709 -0.45096,1.444509 -2.442088,-3.233755 -1.613339,-2.188497 0.38603,-1.78634 -0.556929,-3.184801 -1.613338,-4.476213 0.13665,0.434169 0.274145,0.868556 0.321944,1.422652 2.344148,6.282359 -0.503218,12.143015 -4.450374,17.468701 -1.565248,2.135688 -1.548119,-1.651947 -1.897558,-2.180745 -2.198888,-7.600002 -0.075,-17.357801 0.552421,-23.565487 0.538099,-0.238228 0.983124,-0.360734 1.344104,-0.388606 z M 90.903495,32.61 c -0.381999,-1.21362 -1.039319,-2.007653 -1.811259,-2.431893 0.53635,0.770275 1.11912,1.585799 1.811259,2.431893 z m -4.101558,-2.818432 c -1.041029,0.202116 -1.797528,0.885368 -1.579749,1.736844 0.60176,-0.460877 1.128889,-1.081697 1.579749,-1.736844 z M 20.79873,25.57167 c 0.11585,-0.02658 0.104804,0.343281 -0.190686,1.460376 -1.644018,2.265916 -0.156863,-1.380643 0.190686,-1.460376 z m 12.366687,0.593245 c -0.365109,0.07864 -0.378862,0.33937 1.054716,0.54622 0.0268,-0.521399 -0.689606,-0.624856 -1.054716,-0.54622 z m 17.039787,0.03979 c -0.550299,-0.0917 -0.705354,0.457941 0.550354,2.074809 1.001639,1.22017 0.412738,-1.683924 1.271757,-0.300757 -0.326249,-0.949251 -1.271801,-1.68235 -1.822111,-1.774052 z m 3.389974,0.05426 c -0.344569,0.09055 -0.642613,0.329779 -0.719852,0.807702 0.297989,0.213876 0.163296,-0.459997 0.401525,-0.03514 2.807378,0.02277 1.352036,-1.044194 0.318327,-0.772562 z M 18.241264,26.41658 c 0.759649,-0.143538 1.580503,0.301134 0.850594,2.050521 -1.161729,0.662111 0.962569,-2.117209 -1.333769,-0.572059 -0.974949,-0.603016 -0.276464,-1.334922 0.483175,-1.478462 z m 41.028503,0.195337 c -0.436639,-0.09464 -0.918042,-0.09845 -1.385962,0.05581 2.879107,1.05113 -1.680049,1.664114 1.413868,2.299085 1.192388,1.057076 -0.919113,-1.279719 1.120345,-0.861446 1.068909,-0.107876 0.161658,-1.209515 -1.148251,-1.493449 z m 81.916963,0.411344 c 0.18332,0.0577 -0.14292,0.493124 -1.72186,1.580782 -0.30462,-0.724703 1.41633,-1.676954 1.72186,-1.580782 z m -9.08006,0.470772 c 0.59734,-0.06972 -1.25316,2.801561 -3.12643,2.815849 l -0.39222,0.151929 c 2.33902,-5.047431 -0.17203,0.294411 2.01538,-1.703255 0.83297,-0.891501 1.30415,-1.241283 1.50327,-1.264523 z m -50.044496,0.726571 c 0.77881,-0.199832 -0.42682,10.793739 -0.65629,12.506213 -0.4234,2.421856 -1.658167,-3.818298 -2.218986,-4.473628 0.799489,-3.165357 2.197422,-0.361743 2.040702,-3.670577 0.921409,-1.808316 -2.032567,0.891957 0.37052,-3.531568 0.20087,-0.545113 0.352805,-0.801893 0.464054,-0.83044 z m 85.373596,0.01085 c -0.47654,-0.16354 2.94428,2.910665 4.13619,3.334163 0.31452,0.140173 1.4087,-0.147304 1.60972,-0.40566 -1.04243,-3.130377 -2.91371,-0.675486 -3.74344,-1.46761 -1.25196,-0.992191 -1.84361,-1.40638 -2.00247,-1.460893 z M 32.18925,28.468651 c 0.1678,0.05473 0.458895,0.361223 0.906404,1.112593 -0.805339,0.827085 -1.409794,-1.276778 -0.906404,-1.112593 z m 112.62517,0.327628 c 0.1114,0.01893 0.20122,0.08155 0.25735,0.201539 0.74391,0.199775 2.6057,-0.03542 -1.55908,1.064017 -1.31199,0.606258 0.52189,-1.398097 1.30173,-1.265556 z m 22.23947,0.229444 c -0.3513,0.137277 1.13887,2.517444 1.74201,2.06344 1.48764,-0.0068 -0.69083,-1.112381 -0.67593,-1.265039 -0.62747,-0.640668 -0.94899,-0.844159 -1.06608,-0.798401 z m -24.7587,0.0047 c 0.60923,-0.03187 0.5783,0.319819 -0.95705,0.668693 -3.38544,2.668744 3.98775,-1.216665 -0.53588,1.742529 -0.77948,0.824867 -1.07747,-0.341579 -1.39061,-0.77773 1.02514,-1.185939 2.27431,-1.601621 2.88354,-1.633492 z m 29.99352,0.101285 c -0.024,0.08531 0.53486,0.366437 2.18591,0.975652 3.20225,0.277623 -2.11393,-1.231577 -2.18591,-0.975652 z m -7.36183,0.09405 c 0.0675,0.122218 -0.27642,0.9364 -1.41283,2.98328 -2.69335,2.511082 1.21039,-3.349936 1.41283,-2.98328 z M 34.756018,29.927993 c -0.13162,0.130845 0.122065,0.68596 1.115694,1.508952 1.939988,0.938256 1.197484,-0.709018 0.08061,-0.473356 -0.547749,-0.873154 -1.064689,-1.166441 -1.196309,-1.035596 z m -16.557646,1.473295 c -0.0997,0.06631 -0.01979,0.42392 0.436666,1.294495 1.778758,0.930426 -0.137576,-1.493434 -0.436666,-1.294495 z m 148.959898,0.222209 c -0.31103,0.11334 -0.61441,0.410193 -0.77153,0.998905 2.70308,-0.02838 1.70461,-1.338926 0.77153,-0.998905 z m 3.42667,0.282153 c -0.46189,0.143774 -0.0498,1.257842 1.75028,1.588017 2.95358,0.272533 0.296,-0.131827 -0.0858,-0.420129 -0.7953,-0.991358 -1.38736,-1.254152 -1.66449,-1.167888 z m -98.983109,0.539502 c 0.38121,-0.107341 0.969471,0.830416 1.83658,3.434416 -0.146539,4.20942 0.961529,2.514865 0.10077,9.753927 0.0697,4.623732 -1.272891,0.582962 -1.71049,-0.795301 -0.64999,-2.345267 -1.370459,-12.071018 -0.22686,-12.393042 z m 97.098979,0.24288 c -0.50502,0.05724 -1.17372,0.641502 -0.79478,1.685168 0.0534,0.469947 0.29463,-0.335261 0.60668,-0.208773 1.03463,-1.063854 0.69313,-1.533634 0.1881,-1.476395 z M 26.84694,33.150019 c 0.18733,0.0032 0.36207,0.506373 0.24598,1.97869 -0.905459,-0.600559 -0.5582,-1.984041 -0.24598,-1.97869 z m 122.4349,0.30024 c -0.39033,0.01488 -1.71289,0.465394 -2.79672,1.306897 2.64515,-0.901035 3.18705,-1.321781 2.79672,-1.306897 z m -47.13975,0.296623 c 4.39416,0.126808 -0.66567,2.918419 -3.436487,5.349544 -1.858858,0.486784 2.790977,-6.027504 3.436487,-5.349544 z m -83.087439,0.0615 c -0.32878,-0.0202 -0.182115,0.408934 1.358573,1.741495 1.058629,-0.426209 -0.810604,-1.707834 -1.358573,-1.741495 z m 144.637679,1.520837 c -0.36378,-0.07121 -0.3315,0.389388 0.99012,1.987476 1.32332,-0.272466 -0.38382,-1.868795 -0.99012,-1.987476 z m -85.063538,0.04134 c 0.69255,-0.253498 0.82005,5.356777 2.740918,6.567041 2.598158,10.829778 -1.836508,20.913001 -5.807914,30.719572 l -0.740523,0.40566 -0.163298,-1.326017 c 1.522559,-9.212017 -0.751813,-18.694493 2.189014,-27.81329 -1.358919,-6.22682 0.218498,-0.778069 0.813387,-5.96501 0.44376,-1.767827 0.737567,-2.503457 0.968416,-2.587956 z m 51.727588,0.674894 c -0.31099,0.168323 -1.12156,0.671004 -2.67683,1.653129 -2.046,2.055508 -3.02294,3.327625 -4.52428,4.978508 1.21749,-0.81857 2.13457,-1.963546 3.10834,-3.035474 1.46022,-1.596815 5.02576,-4.101131 4.09277,-3.596163 z m -8.06359,0.0062 c -0.78702,-0.03112 -1.28807,0.0051 -0.95859,0.172599 l 1.02112,0.177767 c 7.22907,0.440079 2.29848,-0.25702 -0.0625,-0.350366 z m -98.837891,0.871264 c -0.20617,0.08943 -0.126664,0.598385 0.800985,1.797306 0.679079,-0.929998 -0.457375,-1.946352 -0.800985,-1.797306 z m 1.74718,0.275436 c -0.345099,0.01249 -0.328549,0.488837 0.8816,1.850533 1.272689,-0.603785 -0.30644,-1.871348 -0.8816,-1.850533 z m 115.431201,1.100191 c -2.43582,1.511968 -6.67911,2.727835 -7.75819,3.924308 2.34402,-0.36637 4.59893,-2.075041 5.96967,-1.848983 0.95602,-0.389284 -0.8483,-0.27109 1.78852,-2.075325 z m -92.370593,3.752742 c -0.0812,0.14492 -0.0611,0.61269 0.181384,1.617473 1.216329,0.41738 0.0623,-2.052233 -0.181384,-1.617473 z m 6.05131,0.45682 c 0.41163,0.131848 0.735641,1.427462 0.183452,3.17345 -1.282439,2.289459 0.377565,-1.87515 -0.849044,-1.999878 0.14001,-0.913027 0.418613,-1.252682 0.665592,-1.173572 z m 5.712313,1.423169 c 0.0436,0.07661 -0.232266,0.457468 -1.120345,1.369942 -2.017518,0.907015 0.989425,-1.599767 1.120345,-1.369942 z m 0.28267,0.497644 c 0.34271,-0.07564 0.447204,0.388137 -0.398425,2.01073 -1.405159,-0.259699 -0.172744,-1.884669 0.398425,-2.01073 z m 1.674833,0.483691 c 0.25498,0.199086 -0.100529,1.166749 -1.683618,2.160592 0.21413,0.07844 -0.482405,1.07005 -0.294555,0.289905 0.857899,-2.080281 1.723204,-2.649582 1.978173,-2.450497 z m 3.212724,0.04444 c 0.0529,-0.0321 0.0936,-0.01121 0.126608,0.05788 0.131999,0.276358 0.138451,1.31987 0.288871,2.790527 -0.0657,-0.943647 -4.544132,0.676234 -1.331185,-0.978752 0.489679,-1.198073 0.757016,-1.773353 0.915706,-1.869653 z m 2.076876,0.853695 c 0.741579,0.01953 1.248642,1.681721 0.402043,2.783809 l -0.252698,0.157097 -0.22686,-0.05271 c 1.705889,-3.608861 -0.500087,-1.969769 -1.268656,-0.673861 0.37159,-1.646743 0.901222,-2.226055 1.346171,-2.214335 z m 2.3828,3.579626 c 0.0367,0.124977 -0.322785,0.587526 -1.433504,1.62264 -2.351538,0.66343 1.323434,-1.99757 1.433504,-1.62264 z m 0.857829,10.38903 c 1.186239,0.172672 0.879477,3.179086 0.126607,7.559229 -0.694889,9.575721 -4.064386,19.088111 -12.673128,24.408846 -1.868298,1.050367 -1.094584,-2.844715 -1.428853,-3.491777 0.19717,-9.345334 1.570345,-20.128355 10.001457,-25.411369 2.012717,-2.251896 3.262168,-3.168532 3.973917,-3.064929 z M 14.292151,168.9717 c 0.0705,0.0906 -0.0879,0.46028 -0.702283,1.31 -1.782528,0.65925 0.490853,-1.58195 0.702283,-1.31 z m 2.385384,3.24063 c -0.746449,-0.0375 -0.946668,0.26085 1.63866,1.00769 0.400489,-0.59703 -0.892201,-0.97024 -1.63866,-1.00769 z m -1.171505,5.22552 c 0.55967,-0.12089 1.585856,-0.0172 1.615406,0.47284 l -0.432015,0.40204 c -1.836359,-0.4085 -1.74306,-0.754 -1.183391,-0.87488 z m 1.378727,14.15159 c 0.37413,-0.12904 0.92887,0.18493 1.368909,1.41697 l -0.366902,0.72502 c -1.747269,-0.48046 -1.625566,-1.92692 -1.002007,-2.14199 z m -12.8286738,7.04919 c 0.2333787,-0.086 0.414329,-0.1033 0.434082,0.001 0.0263,0.13916 -0.2331875,0.49486 -1.0355957,1.19269 -1.2728527,-0.0598 -0.09863,-0.93568 0.6015137,-1.19372 z m 22.9076458,4.11344 c -0.3267,-0.005 -0.750162,0.0708 -1.240751,0.2558 -2.659268,0.18615 0.012,0.60776 0.765328,1.16582 1.564798,-0.67143 1.455532,-1.40765 0.475423,-1.42162 z m -23.220805,0.56637 c -0.3409987,0.0509 -0.8320974,0.53663 -1.1311971,1.79628 1.8507861,-0.75849 1.6995465,-1.88114 1.1311971,-1.79628 z m 32.05179,27.23658 c -0.865689,0.055 -2.107356,0.31681 -3.677295,0.93948 5.484785,0.59243 6.274383,-1.1046 3.677295,-0.93948 z m -31.1262651,1.10795 c 0.3806596,-0.08 -0.087502,0.81842 -2.7502197,3.73724 -0.8768652,-0.75166 2.1157913,-3.60383 2.7502197,-3.73724 z m 21.4395181,7.83156 c 1.089189,-0.0847 2.327682,0.45637 0.708484,1.84433 l -0.521932,0.0661 c -2.215718,-1.11525 -1.275741,-1.82575 -0.186552,-1.91048 z m 50.934876,6.60683 c -0.43051,0.0817 -1.758677,0.96196 -2.693376,2.3952 2.656767,-1.76005 3.123895,-2.47691 2.693376,-2.3952 z m -6.190837,0.009 c -0.29348,-0.171 -0.0745,0.63237 1.560112,3.57652 0.842029,-0.29976 -1.070982,-3.29153 -1.560112,-3.57652 z m 3.214274,4.03696 c -0.31887,-0.0599 -0.536721,-0.0613 -0.498161,0.0357 0.0514,0.12931 0.559009,0.43376 1.891358,1.00717 1.428418,-0.15694 -0.436568,-0.86316 -1.393197,-1.04283 z m -0.874882,1.42007 c -0.595869,-0.14492 -1.147311,0.0956 -1.347721,0.9989 5.645444,3.03804 1.034082,0.22632 -0.423747,2.92386 l 0.03359,0.28783 c 5.710414,0.12701 3.525486,-3.7758 1.737878,-4.21059 z m 26.758057,0.77928 c -0.0917,0.0299 0.05679,0.85875 0.622705,2.97759 -0.46869,8.05459 -0.009,-0.28277 1.91202,5.09375 0.1785,-1.05773 -2.25957,-8.16114 -2.534725,-8.07134 z m 26.841775,0.8108 c -0.35717,-0.25262 -0.18391,0.50844 1.59111,3.04064 -0.34638,-1.52173 -1.23395,-2.78802 -1.59111,-3.04064 z m -21.34547,0.14935 c -0.0692,0.35617 -0.16506,1.93206 -0.2806,5.62033 0.45616,3.21969 0.48814,-6.68882 0.2806,-5.62033 z m -80.137227,0.96376 c 0.571719,0.029 4.668241,4.17955 4.227132,5.37642 -1.755408,-2.06217 -1.008731,-1.51304 -3.325379,-3.7698 -0.891229,-1.16826 -1.092323,-1.6163 -0.901753,-1.60662 z m 55.10723,3.70572 c -0.28982,0.11087 -0.579159,0.61429 -0.692464,1.81229 1.894038,0.16378 1.577967,-1.54172 0.976168,-1.80351 -0.0903,-0.0393 -0.187074,-0.046 -0.283704,-0.009 z m -46.910831,1.93528 c 0.678499,0.0657 1.977184,1.31567 2.454113,3.52123 -0.687409,1.54772 -0.906194,-3.67892 -1.185974,0.0615 -2.004948,-2.53023 -1.946629,-3.64845 -1.268139,-3.58273 z m 35.770426,0.74414 c 0.0359,0.0704 -0.311931,0.49451 -1.32085,1.54719 2.670448,0.43524 -0.749353,-0.0958 -1.024743,1.82418 -0.27556,1.21568 -0.875371,-0.98325 -0.799951,-1.6092 0.453359,0.18388 3.053484,-1.94276 3.145544,-1.76217 z m -53.827205,0.13281 c 0.452119,-0.0712 1.489763,0.20436 3.024621,1.25677 -2.905517,-0.0558 -3.778141,-1.13806 -3.024621,-1.25677 z m 112.700617,1.97197 c 0.90195,-0.32233 -3.74905,0.67763 -3.39204,0.38344 -9.0652,-0.92992 0.97597,0.89374 1.94355,2.48874 1.15814,0.008 2.29172,-3.14396 -1.69602,-2.01228 1.92575,-0.49822 2.84386,-0.75246 3.14451,-0.8599 z m -100.293623,0.29094 c 0.33985,-0.008 0.283225,0.61182 -1.027844,2.466 -1.205979,-0.6946 0.461415,-2.45249 1.027844,-2.466 z m 16.862537,1.54564 c 0.10718,0.24554 -1.789086,2.566 -3.829224,4.454 -1.811008,0.70548 1.875385,-2.35126 1.070736,-2.11409 1.908848,-1.8878 2.694188,-2.48724 2.758488,-2.33991 z m -25.161255,0.0501 c 0.24852,0.13759 0.623697,0.79975 1.094507,2.3952 -1.336879,0.28399 -1.656582,-2.00281 -1.299662,-2.37298 0.0535,-0.0555 0.122315,-0.0681 0.205155,-0.0222 z M 0.55603841,265.11415 C 0.4380298,265.05737 0.2353735,265.2276 0,265.5534 v 0.75758 c 0.69792826,-0.27364 0.82301506,-1.06837 0.55603841,-1.19683 z m 31.98047659,0.31936 c 0.3058,0.0695 0.931871,0.68283 1.74718,2.25568 -1.876808,-0.97725 -2.256849,-2.37153 -1.74718,-2.25568 z m 6.277653,0.0227 c 0.26353,-0.1268 0.367073,1.33518 -0.334346,4.56096 l -0.05839,0.34779 -0.234094,0.0625 c -0.0601,-3.12861 0.363296,-4.84396 0.626835,-4.97128 z m 24.122559,0.84129 c 0.1388,-0.0735 0.2404,-0.0803 0.28422,0.004 0.11684,0.22539 -0.17635,1.1007 -1.265039,3.0949 0.0367,1.25482 -1.255683,0.16107 -0.446484,-0.23823 -2.344668,1.43523 0.455704,-2.34604 1.427303,-2.86081 z m 66.423853,0.90021 c 0.0814,0.0469 -0.35835,0.39964 -1.80092,1.30018 -3.37787,1.17027 1.55679,-1.44102 1.80092,-1.30018 z m -58.568519,0.11937 c 0.54464,0.24922 -1.227681,2.03869 -4.801257,3.94498 -1.979178,1.46024 0.882732,-2.82489 1.207161,-2.42259 2.106468,-1.26683 3.267327,-1.67193 3.594096,-1.52239 z m -52.186995,1.60869 c 0.13585,0.0913 0.0925,0.42991 -0.277503,1.18804 -0.229209,1.07875 -1.254609,-0.32202 -1.777669,0.0217 -0.370469,0.46843 1.647592,-1.48363 2.055172,-1.20974 z m 94.813334,0.28835 c 9.30643,0.0695 -0.73613,4.09047 -4.76818,8.06928 -0.5583,-1.83182 2.92658,-6.10168 4.76818,-8.06928 z m -98.88182,0.0594 c 0.34569,0.0796 0.210958,0.32037 -0.521932,0.91932 0.10927,0.38765 -6.1681174,-1.33939 -1.83813,-0.87281 1.188269,-0.0448 2.014373,-0.12612 2.360062,-0.0465 z m 111.0108,0.2558 c 0.61961,-0.0444 2.63496,0.84081 4.75164,2.95744 0.29957,0.82054 -1.49804,-0.83983 -1.12964,-0.3359 -3.46603,-1.60268 -4.24163,-2.57708 -3.622,-2.62154 z m -6.4022,1.82779 c 0.74359,-0.11795 0.39199,0.38022 -3.02514,1.63401 l -0.51986,0.42737 c 0.96277,-1.20938 2.80141,-1.94343 3.545,-2.06138 z m -107.496795,0.0899 c 1.967138,0.13121 4.286311,0.82596 5.69836,1.86294 1.475738,1.18352 -7.7740863,-3.4501 -5.741252,2.36161 -0.584048,0.57105 -2.7331414,-2.35654 -3.5439696,-2.70681 0.005,-1.2167 1.6197367,-1.64895 3.5868616,-1.51774 z m 7.60522,0.11782 c 0.18381,-0.0689 0.393313,-0.0693 0.561723,0.0439 0.22454,0.15101 0.375946,0.50457 0.294556,1.17047 -1.726579,-0.18828 -1.407718,-1.00775 -0.856279,-1.2144 z m 103.784875,0.6072 c 1.31761,0.0771 2.47961,0.53064 3.09129,1.53531 6.03681,5.3697 -1.67097,0.33188 -3.93981,2.22415 0.73955,-1.40614 -0.8148,-0.74477 -2.9869,-0.5519 -2.20177,-0.95731 2.28884,4.11622 -5.81101,2.65772 -1.07586,0.12407 1.15503,-2.93469 2.9471,-2.45412 -0.31047,-1.70046 3.60528,-3.59225 6.69933,-3.41116 z m -6.69933,3.41116 c 0.0862,0.47195 0.46569,0.93073 1.31775,1.32447 -0.34825,-0.83539 -0.81975,-1.19092 -1.31775,-1.32447 z m -21.957831,-2.99723 c 0.51415,0.0628 1.240596,0.93385 1.650545,3.28869 -2.774217,-1.25359 -2.507454,-3.39341 -1.650545,-3.28869 z"
     transform="translate(0,0.03518184)"
     sodipodi:insensitive="true" /></svg>
