<?xml version="1.0" encoding="UTF-8" standalone="no"?>
<!-- Created with Inkscape (http://www.inkscape.org/) -->

<svg
   width="1920"
   height="1080"
   viewBox="0 0 508 285.74999"
   version="1.1"
   id="svg6993"
   inkscape:version="1.3.2 (091e20e, 2023-11-25, custom)"
   xml:space="preserve"
   sodipodi:docname="trees_sun_v3.svg"
   inkscape:export-filename="..\trees_mountains_supersunny.png"
   inkscape:export-xdpi="96"
   inkscape:export-ydpi="96"
   xmlns:inkscape="http://www.inkscape.org/namespaces/inkscape"
   xmlns:sodipodi="http://sodipodi.sourceforge.net/DTD/sodipodi-0.dtd"
   xmlns:xlink="http://www.w3.org/1999/xlink"
   xmlns="http://www.w3.org/2000/svg"
   xmlns:svg="http://www.w3.org/2000/svg"><sodipodi:namedview
     id="namedview6995"
     pagecolor="#5b5b5b"
     bordercolor="#fffa97"
     borderopacity="0.98431373"
     inkscape:showpageshadow="2"
     inkscape:pageopacity="0"
     inkscape:pagecheckerboard="0"
     inkscape:deskcolor="#404040"
     inkscape:document-units="mm"
     showgrid="false"
     showguides="true"
     shape-rendering="crispEdges"
     inkscape:clip-to-page="false"
     inkscape:zoom="0.25000001"
     inkscape:cx="967.99997"
     inkscape:cy="817.99998"
     inkscape:window-width="1803"
     inkscape:window-height="1007"
     inkscape:window-x="1753"
     inkscape:window-y="2"
     inkscape:window-maximized="0"
     inkscape:current-layer="layer2" /><defs
     id="defs6990"><linearGradient
       id="linearGradient8"><stop
         style="stop-color:#fce922;stop-opacity:0.79619563;"
         offset="0.05585747"
         id="stop6" /><stop
         style="stop-color:#fcb871;stop-opacity:0.39673913;"
         offset="0.82321513"
         id="stop7" /><stop
         style="stop-color:#031b7b;stop-opacity:0.20380434;"
         offset="1"
         id="stop8" /></linearGradient><linearGradient
       id="linearGradient69768"><stop
         style="stop-color:#fce80e;stop-opacity:1;"
         offset="0"
         id="stop69766" /><stop
         style="stop-color:#fcbe71;stop-opacity:0.66032606;"
         offset="0.07340365"
         id="stop69767" /><stop
         style="stop-color:#4b6bf4;stop-opacity:0;"
         offset="0.49179807"
         id="stop69768" /><stop
         style="stop-color:#010f03;stop-opacity:0;"
         offset="0.81320453"
         id="stop1" /><stop
         style="stop-color:#010f03;stop-opacity:0;"
         offset="1"
         id="stop2" /></linearGradient><linearGradient
       id="linearGradient69702"><stop
         style="stop-color:#fce922;stop-opacity:0.79619563;"
         offset="0.05585747"
         id="stop69763" /><stop
         style="stop-color:#fcb871;stop-opacity:0.39673913;"
         offset="0.39393657"
         id="stop69764" /><stop
         style="stop-color:#031b7b;stop-opacity:0.20380434;"
         offset="1"
         id="stop69765" /></linearGradient><linearGradient
       id="linearGradient69702-1"><stop
         style="stop-color:#fce80e;stop-opacity:1;"
         offset="0"
         id="stop69707" /><stop
         style="stop-color:#fcbe71;stop-opacity:1;"
         offset="0.51678425"
         id="stop69706" /><stop
         style="stop-color:#031b7b;stop-opacity:1;"
         offset="0.92980129"
         id="stop69703" /></linearGradient><radialGradient
       inkscape:collect="always"
       xlink:href="#linearGradient69702"
       id="radialGradient69708"
       cx="419.80438"
       cy="420.98953"
       fx="419.80438"
       fy="420.98953"
       r="566.96545"
       gradientTransform="matrix(0.60877674,-8.0220978e-4,4.7126059e-4,0.35763022,36.448858,-50.490999)"
       gradientUnits="userSpaceOnUse" /><filter
       inkscape:collect="always"
       style="color-interpolation-filters:sRGB"
       id="filter8"
       x="-0.11450523"
       y="-0.1756284"
       width="1.2290105"
       height="1.3512568"><feGaussianBlur
         inkscape:collect="always"
         stdDeviation="2.084124"
         id="feGaussianBlur8" /></filter><filter
       inkscape:collect="always"
       style="color-interpolation-filters:sRGB"
       id="filter9"
       x="-0.024966145"
       y="-0.038293133"
       width="1.0499323"
       height="1.0765863"><feGaussianBlur
         inkscape:collect="always"
         stdDeviation="0.45441192"
         id="feGaussianBlur9" /></filter></defs><g
     inkscape:groupmode="layer"
     id="layer2"
     inkscape:label="Sun"
     inkscape:highlight-color="#c0e33b"><path
       id="path3"
       style="display:inline;opacity:1;fill:#fffcac;fill-opacity:1;stroke-width:0.2;filter:url(#filter8)"
       inkscape:label="SunBall"
       d="m 290.04102,85.597656 c -5.78427,0.590491 -11.29058,3.545069 -14.89847,8.117233 -2.94293,3.662666 -4.64048,8.299881 -4.7695,12.996051 1.53669,0.84795 3.39421,1.30119 5.0962,0.67852 1.32284,-0.28665 2.62255,-0.85512 3.92512,-1.09251 3.38698,1.19891 6.67152,2.68392 10.0568,3.87883 0.75752,-0.16484 1.499,-0.43656 2.29323,-0.34274 2.92677,-0.0919 5.87615,0.33539 8.6038,1.42123 1.97701,0.70526 4.04423,1.28482 5.84712,2.37329 0.33853,0.39702 0.91007,0.12628 1.36104,0.29023 0.61033,0.17429 1.15755,-0.10056 1.56724,-0.53983 1.21729,-0.92301 2.29872,-2.1915 3.8139,-2.60452 0.67648,0.0225 1.00671,-0.26095 0.94593,-0.97096 0.98319,-7.3821 -2.30791,-15.072376 -8.15945,-19.632102 -4.35471,-3.449277 -10.05359,-5.124865 -15.5831,-4.577693 z"
       sodipodi:insensitive="true" /><rect
       style="display:inline;opacity:0.695;mix-blend-mode:overlay;fill:url(#radialGradient69708);fill-opacity:1;stroke-width:0.2"
       id="rect6"
       width="508"
       height="285.75"
       x="-5.9743741e-14"
       y="1.3479707e-08"
       inkscape:label="Sun" /><path
       id="path8"
       style="display:inline;opacity:1;fill:#fffcac;fill-opacity:1;stroke-width:0.2;filter:url(#filter9)"
       inkscape:label="SunBall"
       d="m 290.04102,85.597656 c -5.78427,0.590491 -11.29058,3.545069 -14.89847,8.117233 -2.94293,3.662666 -4.64048,8.299881 -4.7695,12.996051 1.53669,0.84795 3.39421,1.30119 5.0962,0.67852 1.32284,-0.28665 2.62255,-0.85512 3.92512,-1.09251 3.38698,1.19891 6.67152,2.68392 10.0568,3.87883 0.75752,-0.16484 1.499,-0.43656 2.29323,-0.34274 2.92677,-0.0919 5.87615,0.33539 8.6038,1.42123 1.97701,0.70526 4.04423,1.28482 5.84712,2.37329 0.33853,0.39702 0.91007,0.12628 1.36104,0.29023 0.61033,0.17429 1.15755,-0.10056 1.56724,-0.53983 1.21729,-0.92301 2.29872,-2.1915 3.8139,-2.60452 0.67648,0.0225 1.00671,-0.26095 0.94593,-0.97096 0.98319,-7.3821 -2.30791,-15.072376 -8.15945,-19.632102 -4.35471,-3.449277 -10.05359,-5.124865 -15.5831,-4.577693 z"
       sodipodi:insensitive="true" /></g></svg>
