<?xml version="1.0" encoding="UTF-8" standalone="no"?>
<!-- Created with Inkscape (http://www.inkscape.org/) -->

<svg
   width="1920"
   height="1080"
   viewBox="0 0 508 285.74999"
   version="1.1"
   id="svg6993"
   inkscape:version="1.3.2 (091e20e, 2023-11-25, custom)"
   sodipodi:docname="vaporware_sunfx.svg"
   inkscape:export-filename="..\vaporware_sunfx.png"
   inkscape:export-xdpi="96"
   inkscape:export-ydpi="96"
   xmlns:inkscape="http://www.inkscape.org/namespaces/inkscape"
   xmlns:sodipodi="http://sodipodi.sourceforge.net/DTD/sodipodi-0.dtd"
   xmlns:xlink="http://www.w3.org/1999/xlink"
   xmlns="http://www.w3.org/2000/svg"
   xmlns:svg="http://www.w3.org/2000/svg">
  <sodipodi:namedview
     id="namedview6995"
     pagecolor="#5b5b5b"
     bordercolor="#fffa97"
     borderopacity="0.98431373"
     inkscape:showpageshadow="2"
     inkscape:pageopacity="0"
     inkscape:pagecheckerboard="0"
     inkscape:deskcolor="#404040"
     inkscape:document-units="mm"
     showgrid="false"
     showguides="true"
     shape-rendering="crispEdges"
     inkscape:clip-to-page="false"
     inkscape:zoom="0.35355339"
     inkscape:cx="967.32208"
     inkscape:cy="493.56053"
     inkscape:window-width="1920"
     inkscape:window-height="1027"
     inkscape:window-x="1912"
     inkscape:window-y="-8"
     inkscape:window-maximized="1"
     inkscape:current-layer="svg6993" />
  <defs
     id="defs6990">
    <inkscape:path-effect
       effect="perspective-envelope"
       up_left_point="170.87,24.859969"
       up_right_point="337.13,24.859969"
       down_left_point="220.87,134.85585"
       down_right_point="287.13,134.85585"
       id="path-effect2227"
       is_visible="true"
       lpeversion="1"
       deform_type="perspective"
       horizontal_mirror="false"
       vertical_mirror="false"
       overflow_perspective="false" />
    <inkscape:path-effect
       effect="perspective-envelope"
       up_left_point="190.82,24.859969"
       up_right_point="316.92,24.859969"
       down_left_point="190.87122,134.85585"
       down_right_point="317.12878,134.85585"
       id="path-effect2226"
       is_visible="true"
       lpeversion="1"
       deform_type="envelope_deformation"
       horizontal_mirror="false"
       vertical_mirror="false"
       overflow_perspective="false" />
    <linearGradient
       id="linearGradient2224"
       inkscape:collect="always">
      <stop
         style="stop-color:#b3b3b3;stop-opacity:1;"
         offset="0.00192308"
         id="stop2224" />
      <stop
         style="stop-color:#454545;stop-opacity:1;"
         offset="1"
         id="stop2223" />
    </linearGradient>
    <linearGradient
       id="linearGradient56"
       inkscape:label="SunReflection">
      <stop
         style="stop-color:#85006c;stop-opacity:0.60326087;"
         offset="0"
         id="stop55" />
      <stop
         style="stop-color:#ba6c37;stop-opacity:0.90489131;"
         offset="0.57499999"
         id="stop2225" />
      <stop
         style="stop-color:#f4af00;stop-opacity:1;"
         offset="1"
         id="stop56" />
    </linearGradient>
    <linearGradient
       id="linearGradient44-1"
       inkscape:label="SunReflection">
      <stop
         style="stop-color:#60004e;stop-opacity:1;"
         offset="0"
         id="stop53" />
      <stop
         style="stop-color:#6f5700;stop-opacity:1;"
         offset="1"
         id="stop54" />
    </linearGradient>
    <linearGradient
       id="linearGradient44-3"
       inkscape:label="SunGlow80">
      <stop
         style="stop-color:#60004e;stop-opacity:1;"
         offset="0"
         id="stop49" />
      <stop
         style="stop-color:#6f5700;stop-opacity:1;"
         offset="1"
         id="stop50" />
    </linearGradient>
    <linearGradient
       id="linearGradient44"
       inkscape:label="SunSharp">
      <stop
         style="stop-color:#60004e;stop-opacity:1;"
         offset="0"
         id="stop47" />
      <stop
         style="stop-color:#6f5700;stop-opacity:1;"
         offset="1"
         id="stop48" />
    </linearGradient>
    <linearGradient
       id="linearGradient44-2"
       inkscape:label="SunGlow50">
      <stop
         style="stop-color:#60004e;stop-opacity:1;"
         offset="0"
         id="stop44" />
      <stop
         style="stop-color:#6f5700;stop-opacity:1;"
         offset="1"
         id="stop45" />
    </linearGradient>
    <mask
       maskUnits="userSpaceOnUse"
       id="mask2227">
      <path
         id="path2227"
         style="display:inline;fill:url(#linearGradient2227);stroke-width:0.0999999"
         d="m 220.21073,133.40548 -0.16678,-0.36691 h 0.48621 l 1.08804,0.36691 z m 1.40747,0 -1.08155,-0.36691 h 1.44848 l 1.04096,0.36691 z m 1.40789,0 -1.03426,-0.36691 h 1.44834 l 0.9938,0.36691 z m 1.40788,0 -0.9871,-0.36691 h 1.44834 l 0.94672,0.36691 z m 1.40796,0 -0.94002,-0.36691 h 1.44841 l 0.89949,0.36691 z m 1.40788,0 -0.89279,-0.36691 h 1.44834 l 0.85233,0.36691 z m 1.40788,0 -0.84563,-0.36691 h 1.44834 l 0.80525,0.36691 z m 1.40796,0 -0.79848,-0.36691 h 1.44834 l 0.75802,0.36691 z m 1.40788,0 -0.75132,-0.36691 h 1.44834 l 0.71087,0.36691 z m 1.40789,0 -0.7041,-0.36691 h 1.44834 l 0.66364,0.36691 z m 1.40788,0 -0.65694,-0.36691 h 1.44834 l 0.61655,0.36691 z m 1.40795,0 -0.60978,-0.36691 h 1.44827 l 0.5694,0.36691 z m 1.40789,0 -0.56263,-0.36691 h 1.44834 l 0.52217,0.36691 z m 1.40788,0 -0.51547,-0.36691 h 1.44834 l 0.47502,0.36691 z m 1.40789,0 -0.46825,-0.36691 h 1.44834 l 0.42786,0.36691 z m 1.40795,0 -0.42116,-0.36691 h 1.44834 l 0.3807,0.36691 z m 1.40788,0 -0.37393,-0.36691 h 1.44827 l 0.33355,0.36691 z m 1.40789,0 -0.32678,-0.36691 h 1.44834 l 0.28632,0.36691 z m 1.40788,0 -0.27962,-0.36691 h 1.44834 l 0.23924,0.36691 z m 1.40796,0 -0.23247,-0.36691 h 1.44834 l 0.19201,0.36691 z m 1.40788,0 -0.18531,-0.36691 h 1.44834 l 0.14485,0.36691 z m 1.40788,0 -0.13808,-0.36691 h 1.44827 l 0.0977,0.36691 z m 1.40789,0 -0.0909,-0.36691 h 1.44876 l 0.0501,0.36691 z m 1.40795,0 -0.0435,-0.36691 h 1.44799 l 0.003,0.36691 z m 1.40796,0 0.003,-0.36691 h 1.44799 l -0.0435,0.36691 z m 1.40788,0 0.0501,-0.36691 h 1.44875 l -0.0909,0.36691 z m 1.40795,0 0.0977,-0.36691 h 1.44827 l -0.13808,0.36691 z m 1.40789,0 0.14485,-0.36691 h 1.44834 l -0.18531,0.36691 z m 1.40788,0 0.19201,-0.36691 h 1.44834 l -0.23246,0.36691 z m 1.40789,0 0.23923,-0.36691 h 1.44834 l -0.27962,0.36691 z m 1.40795,0 0.28632,-0.36691 h 1.44834 l -0.32678,0.36691 z m 1.40788,0 0.33355,-0.36691 h 1.44827 l -0.37393,0.36691 z m 1.40789,0 0.3807,-0.36691 h 1.44834 l -0.42116,0.36691 z m 1.40788,0 0.42786,-0.36691 h 1.44834 l -0.46825,0.36691 z m 1.40795,0 0.47502,-0.36691 h 1.44834 l -0.51547,0.36691 z m 1.40789,0 0.52217,-0.36691 h 1.44834 l -0.56263,0.36691 z m 1.40788,0 0.5694,-0.36691 h 1.44827 l -0.60978,0.36691 z m 1.40789,0 0.61655,-0.36691 h 1.44834 l -0.65694,0.36691 z m 1.40795,0 0.66364,-0.36691 h 1.44834 l -0.70409,0.36691 z m 1.40789,0 0.71086,-0.36691 h 1.44834 l -0.75132,0.36691 z m 1.40788,0 0.75802,-0.36691 h 1.44834 l -0.79847,0.36691 z m 1.40789,0 0.80524,-0.36691 h 1.44834 l -0.84563,0.36691 z m 1.40795,0 0.85233,-0.36691 h 1.44834 l -0.89279,0.36691 z m 1.40788,0 0.89949,-0.36691 h 1.44841 l -0.94001,0.36691 z m 1.40789,0 0.94671,-0.36691 h 1.44834 l -0.9871,0.36691 z m 1.40795,0 0.9938,-0.36691 h 1.44834 l -1.03425,0.36691 z m 1.40789,0 1.04095,-0.36691 h 1.44848 l -1.08155,0.36691 z m 1.40788,0 1.08805,-0.36691 h 0.48621 l -0.16679,0.36691 z m -66.34589,-0.38463 -0.08,-0.17592 0.52165,0.17592 z m 0.44853,0 -0.53031,-0.17991 -0.16338,-0.35942 h 0.61401 l 1.53016,0.53933 z m 1.45746,0 -1.52023,-0.53933 h 1.50967 l 1.46083,0.53933 z m 1.45732,0 -1.45097,-0.53933 h 1.50974 l 1.39157,0.53933 z m 1.45739,0 -1.38171,-0.53933 h 1.50981 l 1.32217,0.53933 z m 1.45732,0 -1.31231,-0.53933 h 1.50974 l 1.25291,0.53933 z m 1.45732,0 -1.24298,-0.53933 h 1.50974 l 1.18358,0.53933 z m 1.45739,0 -1.17365,-0.53933 h 1.50967 l 1.11425,0.53933 z m 1.45732,0 -1.10432,-0.53933 h 1.50974 l 1.04492,0.53933 z m 1.45739,0 -1.03506,-0.53933 h 1.50974 l 0.97559,0.53933 z m 1.45732,0 -0.96566,-0.53933 h 1.50974 l 0.90619,0.53933 z m 1.45732,0 -0.89633,-0.53933 h 1.50974 l 0.83693,0.53933 z m 1.45739,0 -0.82707,-0.53933 h 1.50981 l 0.76753,0.53933 z m 1.45732,0 -0.75767,-0.53933 h 1.50974 l 0.6982,0.53933 z m 1.45732,0 -0.68834,-0.53933 h 1.50974 l 0.62894,0.53933 z m 1.45739,0 -0.61901,-0.53933 h 1.50974 l 0.55954,0.53933 z m 1.45732,0 -0.54968,-0.53933 h 1.50974 l 0.49021,0.53933 z m 1.45739,0 -0.48041,-0.53933 h 1.50973 l 0.42095,0.53933 z m 1.45732,0 -0.41102,-0.53933 h 1.50974 l 0.35155,0.53933 z m 1.45732,0 -0.34169,-0.53933 h 1.50974 l 0.28229,0.53933 z m 1.45739,0 -0.27242,-0.53933 h 1.50973 l 0.21296,0.53933 z m 1.45732,0 -0.20302,-0.53933 h 1.50973 l 0.14356,0.53933 z m 1.45732,0 -0.13369,-0.53933 h 1.51078 l 0.0737,0.53933 z m 1.45773,0 -0.0639,-0.53933 h 1.50883 l 0.005,0.53933 z m 1.45705,0 0.005,-0.53933 h 1.50884 l -0.0639,0.53933 z m 1.4569,0 0.0737,-0.53933 h 1.51079 l -0.1337,0.53933 z m 1.45781,0 0.14356,-0.53933 h 1.50974 l -0.20303,0.53933 z m 1.45732,0 0.21296,-0.53933 h 1.50974 l -0.27243,0.53933 z m 1.45732,0 0.28229,-0.53933 h 1.50974 l -0.34169,0.53933 z m 1.45739,0 0.35155,-0.53933 h 1.50974 l -0.41102,0.53933 z m 1.45732,0 0.42095,-0.53933 h 1.50974 l -0.48042,0.53933 z m 1.45739,0 0.49021,-0.53933 h 1.50974 l -0.54968,0.53933 z m 1.45732,0 0.55954,-0.53933 h 1.50974 l -0.61901,0.53933 z m 1.45732,0 0.62894,-0.53933 h 1.50974 l -0.68834,0.53933 z m 1.45739,0 0.6982,-0.53933 h 1.50974 l -0.75767,0.53933 z m 1.45732,0 0.76753,-0.53933 h 1.50981 l -0.82707,0.53933 z m 1.45732,0 0.83693,-0.53933 h 1.50974 l -0.89633,0.53933 z m 1.45739,0 0.90619,-0.53933 h 1.50974 l -0.96566,0.53933 z m 1.45732,0 0.97559,-0.53933 h 1.50974 l -1.03506,0.53933 z m 1.45732,0 1.04492,-0.53933 h 1.50974 l -1.10432,0.53933 z m 1.45739,0 1.11425,-0.53933 h 1.50967 l -1.17365,0.53933 z m 1.45732,0 1.18358,-0.53933 h 1.50974 l -1.24298,0.53933 z m 1.45732,0 1.25291,-0.53933 h 1.50974 l -1.31231,0.53933 z m 1.45739,0 1.32217,-0.53933 h 1.50981 l -1.38171,0.53933 z m 1.45732,0 1.39158,-0.53933 h 1.50973 l -1.45097,0.53933 z m 1.45739,0 1.46083,-0.53933 h 1.50967 l -1.52023,0.53933 z m 1.45725,0 1.53017,-0.53933 h 0.614 l -0.16338,0.35942 -0.53031,0.17991 z m 1.45732,0 0.52166,-0.17592 -0.08,0.17592 z m -67.74801,-0.57529 -0.1008,-0.22175 0.6291,0.22175 z m 0.54584,0 -0.65079,-0.23088 -0.22228,-0.489 h 0.43683 l 1.94991,0.71988 z m 1.53121,0 -1.93673,-0.71988 h 1.59309 l 1.85738,0.71988 z m 1.53135,0 -1.8442,-0.71988 h 1.59316 l 1.76477,0.71988 z m 1.53128,0 -1.7516,-0.71988 h 1.59309 l 1.67224,0.71988 z m 1.53128,0 -1.65907,-0.71988 h 1.59309 l 1.57971,0.71988 z m 1.53135,0 -1.56654,-0.71988 h 1.59302 l 1.48718,0.71988 z m 1.53128,0 -1.47401,-0.71988 h 1.59309 l 1.39465,0.71988 z m 1.53128,0 -1.38141,-0.71988 h 1.59302 l 1.30212,0.71988 z m 1.53135,0 -1.28895,-0.71988 h 1.59302 l 1.20959,0.71988 z m 1.53128,0 -1.19642,-0.71988 h 1.59309 l 1.11699,0.71988 z m 1.53128,0 -1.10389,-0.71988 h 1.59309 l 1.02453,0.71988 z m 1.53128,0 -1.01129,-0.71988 h 1.59302 l 0.932,0.71988 z m 1.53135,0 -0.91883,-0.71988 h 1.59309 l 0.8394,0.71988 z m 1.53128,0 -0.82623,-0.71988 h 1.59302 l 0.74694,0.71988 z m 1.53127,0 -0.73369,-0.71988 h 1.59302 l 0.65441,0.71988 z m 1.53135,0 -0.64116,-0.71988 h 1.59302 l 0.56181,0.71988 z m 1.53128,0 -0.54863,-0.71988 h 1.59302 l 0.46928,0.71988 z m 1.53128,0 -0.4561,-0.71988 h 1.59302 l 0.37681,0.71988 z m 1.53128,0 -0.3635,-0.71988 h 1.59302 l 0.28421,0.71988 z m 1.53135,0 -0.27104,-0.71988 h 1.59302 l 0.19168,0.71988 z m 1.53128,0 -0.17851,-0.71988 h 1.59499 l 0.0983,0.71988 z m 1.53219,0 -0.0853,-0.71988 h 1.59147 l 0.007,0.71988 z m 1.53044,0 0.007,-0.71988 h 1.59147 l -0.0853,0.71988 z m 1.53023,0 0.0983,-0.71988 h 1.59499 l -0.17851,0.71988 z m 1.5324,0 0.19168,-0.71988 h 1.59302 l -0.27104,0.71988 z m 1.53128,0 0.28421,-0.71988 h 1.59302 l -0.3635,0.71988 z m 1.53128,0 0.37681,-0.71988 h 1.59302 l -0.4561,0.71988 z m 1.53134,0 0.46928,-0.71988 h 1.59302 l -0.54863,0.71988 z m 1.53129,0 0.5618,-0.71988 h 1.59302 l -0.64116,0.71988 z m 1.53127,0 0.65441,-0.71988 h 1.59302 l -0.7337,0.71988 z m 1.53128,0 0.74694,-0.71988 h 1.59302 l -0.82623,0.71988 z m 1.53136,0 0.83939,-0.71988 h 1.59309 l -0.91882,0.71988 z m 1.53127,0 0.932,-0.71988 h 1.59302 l -1.01129,0.71988 z m 1.53128,0 1.02453,-0.71988 h 1.59309 l -1.10388,0.71988 z m 1.53135,0 1.11699,-0.71988 h 1.59309 l -1.19641,0.71988 z m 1.53128,0 1.20959,-0.71988 h 1.59302 l -1.28895,0.71988 z m 1.53128,0 1.30212,-0.71988 h 1.59302 l -1.38141,0.71988 z m 1.53128,0 1.39465,-0.71988 h 1.59309 l -1.47401,0.71988 z m 1.53135,0 1.48718,-0.71988 h 1.59302 l -1.56654,0.71988 z m 1.53128,0 1.57971,-0.71988 h 1.59309 l -1.65907,0.71988 z m 1.53128,0 1.67224,-0.71988 h 1.59309 l -1.7516,0.71988 z m 1.53128,0 1.76477,-0.71988 h 1.59316 l -1.8442,0.71988 z m 1.53135,0 1.85737,-0.71988 h 1.59309 l -1.93673,0.71988 z m 1.53128,0 1.9499,-0.71988 h 0.43683 l -0.22227,0.489 -0.6508,0.23088 z m 1.5312,0 0.6291,-0.22175 -0.10079,0.22175 z m -68.27835,-0.78196 -0.0599,-0.13171 0.35677,0.13171 z m 0.32877,0 -0.39561,-0.14704 -0.34426,-0.75733 h 0.006 l 2.33341,0.90437 z m 1.63182,0 -2.31687,-0.90437 h 1.69977 l 2.21712,0.90437 z m 1.63189,0 -2.20058,-0.90437 h 1.69963 l 2.1009,0.90437 z m 1.63175,0 -2.08436,-0.90437 h 1.69963 l 1.98468,0.90437 z m 1.63189,0 -1.968,-0.90437 h 1.69942 l 1.86839,0.90437 z m 1.63182,0 -1.85185,-0.90437 h 1.69963 l 1.7521,0.90437 z m 1.63182,0 -1.73556,-0.90437 h 1.69956 l 1.63588,0.90437 z m 1.63182,0 -1.61927,-0.90437 h 1.69956 l 1.51959,0.90437 z m 1.63182,0 -1.50305,-0.90437 h 1.69956 l 1.40337,0.90437 z m 1.63175,0 -1.38676,-0.90437 h 1.69956 l 1.28715,0.90437 z m 1.63182,0 -1.27047,-0.90437 h 1.69956 l 1.17079,0.90437 z m 1.63189,0 -1.15432,-0.90437 h 1.69956 l 1.05457,0.90437 z m 1.63175,0 -1.03796,-0.90437 h 1.69956 l 0.93827,0.90437 z m 1.63182,0 -0.92174,-0.90437 h 1.69956 l 0.82206,0.90437 z m 1.63182,0 -0.80545,-0.90437 h 1.69949 l 0.70584,0.90437 z m 1.63182,0 -0.68923,-0.90437 h 1.69956 l 0.58955,0.90437 z m 1.63182,0 -0.57294,-0.90437 h 1.69949 l 0.47332,0.90437 z m 1.63182,0 -0.45672,-0.90437 h 1.69956 l 0.35704,0.90437 z m 1.63182,0 -0.3405,-0.90437 h 1.69956 l 0.24082,0.90437 z m 1.63182,0 -0.22421,-0.90437 h 1.70255 l 0.1235,0.90437 z m 1.6335,0 -0.10711,-0.90437 h 1.697 l 0.008,0.90437 z m 1.63021,0 0.008,-0.90437 h 1.697 l -0.10712,0.90437 z m 1.62985,0 0.1235,-0.90437 h 1.70255 l -0.22421,0.90437 z m 1.63379,0 0.24081,-0.90437 h 1.69956 l -0.34049,0.90437 z m 1.63182,0 0.35703,-0.90437 h 1.69956 l -0.45672,0.90437 z m 1.63182,0 0.47332,-0.90437 h 1.69949 l -0.57294,0.90437 z m 1.63182,0 0.58954,-0.90437 h 1.69956 l -0.68923,0.90437 z m 1.63182,0 0.70583,-0.90437 h 1.69949 l -0.80544,0.90437 z m 1.63182,0 0.82205,-0.90437 h 1.69956 l -0.92174,0.90437 z m 1.63182,0 0.93827,-0.90437 h 1.69956 l -1.03796,0.90437 z m 1.63182,0 1.05456,-0.90437 h 1.69956 l -1.15432,0.90437 z m 1.63181,0 1.17079,-0.90437 h 1.69956 l -1.27047,0.90437 z m 1.63175,0 1.28715,-0.90437 h 1.69956 l -1.38675,0.90437 z m 1.63182,0 1.40337,-0.90437 h 1.69956 l -1.50305,0.90437 z m 1.63182,0 1.51959,-0.90437 h 1.69956 l -1.61927,0.90437 z m 1.63182,0 1.63588,-0.90437 h 1.69956 l -1.73555,0.90437 z m 1.63183,0 1.75209,-0.90437 h 1.69963 l -1.85185,0.90437 z m 1.63188,0 1.86839,-0.90437 h 1.69942 l -1.968,0.90437 z m 1.63175,0 1.98468,-0.90437 h 1.69963 l -2.08436,0.90437 z m 1.63176,0 2.10089,-0.90437 h 1.69963 l -2.20058,0.90437 z m 1.63181,0 2.21712,-0.90437 h 1.69977 l -2.31687,0.90437 z m 1.63197,0 2.3334,-0.90437 h 0.006 l -0.34426,0.75733 -0.39561,0.14704 z m 1.63174,0 0.35677,-0.13171 -0.0599,0.13171 z m -69.31708,-0.99411 -0.35861,-0.7889 1.93399,0.7889 z m 1.62541,0 -1.99882,-0.82146 -0.12789,-0.28135 h 1.27448 l 2.56183,1.10281 z m 1.75956,0 -2.54167,-1.10281 h 1.83108 l 2.42011,1.10281 z m 1.75977,0 -2.39987,-1.10281 h 1.83085 l 2.27833,1.10281 z m 1.75948,0 -2.25808,-1.10281 h 1.83107 l 2.13654,1.10281 z m 1.75963,0 -2.11637,-1.10281 h 1.83101 l 1.99481,1.10281 z m 1.75963,0 -1.97458,-1.10281 h 1.83101 l 1.85302,1.10281 z m 1.75963,0 -1.83286,-1.10281 h 1.831 l 1.71131,1.10281 z m 1.75955,0 -1.69107,-1.10281 h 1.83108 l 1.56944,1.10281 z m 1.75963,0 -1.54928,-1.10281 h 1.831 l 1.42773,1.10281 z m 1.75963,0 -1.40756,-1.10281 h 1.831 l 1.28601,1.10281 z m 1.75956,0 -1.26578,-1.10281 h 1.83108 l 1.14415,1.10281 z m 1.75962,0 -1.12398,-1.10281 h 1.831 l 1.00244,1.10281 z m 1.75963,0 -0.98227,-1.10281 h 1.83101 l 0.86071,1.10281 z m 1.75963,0 -0.84048,-1.10281 h 1.83093 l 0.719,1.10281 z m 1.75956,0 -0.69869,-1.10281 h 1.831 l 0.57714,1.10281 z m 1.75962,0 -0.55697,-1.10281 h 1.83101 l 0.43541,1.10281 z m 1.75963,0 -0.41518,-1.10281 h 1.83093 l 0.2937,1.10281 z m 1.75956,0 -0.27339,-1.10281 h 1.83534 l 0.15063,1.10281 z m 1.76226,0 -0.13062,-1.10281 h 1.82732 l 0.0101,1.10281 z m 1.75707,0 0.0101,-1.10281 h 1.82732 l -0.13062,1.10281 z m 1.75649,0 0.15063,-1.10281 h 1.83534 l -0.27339,1.10281 z m 1.76269,0 0.2937,-1.10281 h 1.83093 l -0.41518,1.10281 z m 1.75962,0 0.43542,-1.10281 h 1.831 l -0.55696,1.10281 z m 1.75963,0 0.57714,-1.10281 h 1.831 l -0.69868,1.10281 z m 1.75956,0 0.719,-1.10281 h 1.83093 l -0.84048,1.10281 z m 1.75963,0 0.86071,-1.10281 h 1.831 l -0.98226,1.10281 z m 1.75963,0 1.00243,-1.10281 h 1.831 l -1.12398,1.10281 z m 1.75963,0 1.14414,-1.10281 h 1.83108 l -1.26577,1.10281 z m 1.75955,0 1.28601,-1.10281 h 1.83101 l -1.40757,1.10281 z m 1.75963,0 1.42773,-1.10281 h 1.831 l -1.54928,1.10281 z m 1.75963,0 1.56944,-1.10281 h 1.83108 l -1.69107,1.10281 z m 1.75955,0 1.71131,-1.10281 h 1.831 l -1.83286,1.10281 z m 1.75963,0 1.85303,-1.10281 h 1.831 l -1.97458,1.10281 z m 1.75963,0 1.99481,-1.10281 h 1.83101 l -2.11637,1.10281 z m 1.75955,0 2.13654,-1.10281 h 1.83107 l -2.25809,1.10281 z m 1.7597,0 2.27833,-1.10281 h 1.83086 l -2.39988,1.10281 z m 1.75956,0 2.42011,-1.10281 h 1.83108 l -2.54167,1.10281 z m 1.75949,0 2.56182,-1.10281 h 1.27449 l -0.12789,0.28135 -1.99883,0.82146 z m 1.75962,0 1.934,-0.7889 -0.35861,0.7889 z m -69.05145,-1.23406 -0.25039,-0.55085 1.27957,0.55085 z m 1.10174,0 -1.37242,-0.5955 -0.32382,-0.71237 h 0.67176 l 2.87007,1.30787 z m 1.91844,0 -2.84603,-1.30787 h 1.98936 l 2.70197,1.30787 z m 1.91815,0 -2.67793,-1.30787 h 1.98965 l 2.5338,1.30787 z m 1.9183,0 -2.50991,-1.30787 h 1.98966 l 2.3657,1.30787 z m 1.91823,0 -2.34174,-1.30787 h 1.98965 l 2.1976,1.30787 z m 1.91822,0 -2.17356,-1.30787 h 1.98957 l 2.02951,1.30787 z m 1.91822,0 -2.00546,-1.30787 h 1.98965 l 1.86133,1.30787 z m 1.9183,0 -1.83736,-1.30787 h 1.98958 l 1.69323,1.30787 z m 1.91823,0 -1.6692,-1.30787 h 1.98951 l 1.52513,1.30787 z m 1.91822,0 -1.50109,-1.30787 h 1.98958 l 1.35696,1.30787 z m 1.9183,0 -1.333,-1.30787 h 1.98958 l 1.18879,1.30787 z m 1.91822,0 -1.16489,-1.30787 h 1.98958 l 1.02076,1.30787 z m 1.91823,0 -0.99673,-1.30787 h 1.98958 l 0.85259,1.30787 z m 1.91822,0 -0.82862,-1.30787 h 1.98958 l 0.68449,1.30787 z m 1.91823,0 -0.66046,-1.30787 h 1.98958 l 0.51639,1.30787 z m 1.91829,0 -0.49242,-1.30787 h 1.98965 l 0.34822,1.30787 z m 1.91823,0 -0.32426,-1.30787 h 1.99555 l 0.17865,1.30787 z m 1.92206,0 -0.15491,-1.30787 h 1.98457 l 0.0119,1.30787 z m 1.91453,0 0.0119,-1.30787 h 1.98458 l -0.15491,1.30787 z m 1.91374,0 0.17864,-1.30787 h 1.99554 l -0.32425,1.30787 z m 1.92271,0 0.34822,-1.30787 h 1.98965 l -0.49242,1.30787 z m 1.91823,0 0.51639,-1.30787 h 1.98958 l -0.66045,1.30787 z m 1.91829,0 0.68449,-1.30787 h 1.98958 l -0.82862,1.30787 z m 1.91823,0 0.85259,-1.30787 h 1.98958 l -0.99673,1.30787 z m 1.91822,0 1.02076,-1.30787 h 1.98958 l -1.16489,1.30787 z m 1.9183,0 1.18879,-1.30787 h 1.98958 l -1.33299,1.30787 z m 1.91822,0 1.35696,-1.30787 h 1.98958 l -1.50109,1.30787 z m 1.91823,0 1.52513,-1.30787 h 1.98951 l -1.66919,1.30787 z m 1.91822,0 1.69323,-1.30787 h 1.98958 l -1.83736,1.30787 z m 1.91823,0 1.86133,-1.30787 h 1.98965 l -2.00546,1.30787 z m 1.91822,0 2.02951,-1.30787 h 1.98958 l -2.17357,1.30787 z m 1.91822,0 2.19761,-1.30787 h 1.98965 l -2.34174,1.30787 z m 1.9183,0 2.36571,-1.30787 h 1.98965 l -2.50991,1.30787 z m 1.91823,0 2.5338,-1.30787 h 1.98965 l -2.67793,1.30787 z m 1.91837,0 2.70197,-1.30787 h 1.98936 l -2.84603,1.30787 z m 1.91815,0 2.87007,-1.30787 h 0.67176 l -0.32381,0.71237 -1.37243,0.5955 z m 1.91815,0 1.27957,-0.55085 -0.25039,0.55085 z m -70.84589,-1.51196 -0.0827,-0.18198 0.39939,0.18198 z m 0.41727,0 -0.52745,-0.24239 -0.57472,-1.26433 h 0.001 l 3.11277,1.50672 z m 2.11249,0 -3.08515,-1.50672 h 2.17823 l 2.91909,1.50672 z m 2.11256,0 -2.89147,-1.50672 h 2.17823 l 2.72541,1.50672 z m 2.11271,0 -2.69779,-1.50672 h 2.17816 l 2.53173,1.50672 z m 2.11256,0 -2.50411,-1.50672 h 2.17816 l 2.33805,1.50672 z m 2.11256,0 -2.31043,-1.50672 h 2.17824 l 2.14429,1.50672 z m 2.11256,0 -2.11667,-1.50672 h 2.17816 l 1.95068,1.50672 z m 2.11271,0 -1.92307,-1.50672 h 2.17809 l 1.75701,1.50672 z m 2.11256,0 -1.72939,-1.50672 h 2.17816 l 1.56333,1.50672 z m 2.11264,0 -1.53571,-1.50672 h 2.17816 l 1.36957,1.50672 z m 2.11256,0 -1.34196,-1.50672 h 2.17809 l 1.17597,1.50672 z m 2.11263,0 -1.14835,-1.50672 h 2.17817 l 0.98221,1.50672 z m 2.11256,0 -0.95459,-1.50672 h 2.17816 l 0.78853,1.50672 z m 2.11264,0 -0.76099,-1.50672 h 2.17816 l 0.59493,1.50672 z m 2.11256,0 -0.56723,-1.50672 h 2.17816 l 0.40117,1.50672 z m 2.11264,0 -0.37356,-1.50672 h 2.18599 l 0.20579,1.50672 z m 2.1178,0 -0.17842,-1.50672 h 2.17147 l 0.0138,1.50672 z m 2.10746,0 0.0138,-1.50672 h 2.17147 l -0.17842,1.50672 z m 2.10644,0 0.20579,-1.50672 h 2.18599 l -0.37355,1.50672 z m 2.11876,0 0.40117,-1.50672 h 2.17816 l -0.56723,1.50672 z m 2.11256,0 0.59493,-1.50672 h 2.17816 l -0.76099,1.50672 z m 2.11264,0 0.78853,-1.50672 h 2.17816 l -0.95459,1.50672 z m 2.11263,0 0.98222,-1.50672 h 2.17816 l -1.14835,1.50672 z m 2.11256,0 1.17597,-1.50672 h 2.17809 l -1.34196,1.50672 z m 2.11264,0 1.36957,-1.50672 h 2.17816 l -1.5357,1.50672 z m 2.11256,0 1.56332,-1.50672 h 2.17817 l -1.72939,1.50672 z m 2.11263,0 1.75701,-1.50672 h 2.17809 l -1.92307,1.50672 z m 2.11257,0 1.95068,-1.50672 h 2.17816 l -2.11667,1.50672 z m 2.11263,0 2.14429,-1.50672 h 2.17824 l -2.31043,1.50672 z m 2.11256,0 2.33805,-1.50672 h 2.17816 l -2.50411,1.50672 z m 2.11256,0 2.53173,-1.50672 h 2.17816 l -2.69778,1.50672 z m 2.11264,0 2.72541,-1.50672 h 2.17823 l -2.89147,1.50672 z m 2.11256,0 2.91909,-1.50672 h 2.17823 l -3.08514,1.50672 z m 2.11279,0 3.11276,-1.50672 h 0.001 l -0.57472,1.26433 -0.52745,0.24239 z m 2.11248,0 0.39939,-0.18198 -0.0827,0.18198 z m -73.049,-1.76724 -0.58904,-1.29583 2.51048,1.29583 z m 2.05423,0 -2.69185,-1.40271 -0.1598,-0.35155 h 1.88538 l 3.17322,1.75426 z m 2.33989,0 -3.14107,-1.75426 h 2.40029 l 2.94765,1.75426 z m 2.33973,0 -2.9155,-1.75426 h 2.40022 l 2.72215,1.75426 z m 2.33966,0 -2.69001,-1.75426 h 2.40037 l 2.49666,1.75426 z m 2.33981,0 -2.46444,-1.75426 h 2.40022 l 2.27116,1.75426 z m 2.33988,0 -2.23902,-1.75426 h 2.40015 l 2.04567,1.75426 z m 2.33966,0 -2.01345,-1.75426 h 2.4003 l 1.8201,1.75426 z m 2.33981,0 -1.78796,-1.75426 h 2.40022 l 1.59461,1.75426 z m 2.33981,0 -1.56246,-1.75426 h 2.40022 l 1.36911,1.75426 z m 2.33981,0 -1.33696,-1.75426 h 2.40021 l 1.14355,1.75426 z m 2.33974,0 -1.11148,-1.75426 h 2.40022 l 0.91812,1.75426 z m 2.33973,0 -0.8859,-1.75426 h 2.40021 l 0.69264,1.75426 z m 2.33981,0 -0.66041,-1.75426 h 2.40022 l 0.46706,1.75426 z m 2.33981,0 -0.435,-1.75426 h 2.4104 l 0.23962,1.75426 z m 2.34667,0 -0.20773,-1.75426 h 2.39159 l 0.0161,1.75426 z m 2.33295,0 0.0161,-1.75426 h 2.39159 l -0.20774,1.75426 z m 2.33158,0 0.23962,-1.75426 h 2.41039 l -0.43499,1.75426 z m 2.34796,0 0.46706,-1.75426 h 2.40022 l -0.66041,1.75426 z m 2.33974,0 0.69263,-1.75426 h 2.40022 l -0.88591,1.75426 z m 2.33981,0 0.91812,-1.75426 h 2.40022 l -1.11148,1.75426 z m 2.3398,0 1.14355,-1.75426 h 2.40021 l -1.33696,1.75426 z m 2.33974,0 1.36911,-1.75426 h 2.40022 l -1.56246,1.75426 z m 2.33981,0 1.59461,-1.75426 h 2.40021 l -1.78795,1.75426 z m 2.33973,0 1.8201,-1.75426 h 2.4003 l -2.01345,1.75426 z m 2.33981,0 2.04567,-1.75426 h 2.40015 l -2.23903,1.75426 z m 2.33973,0 2.27117,-1.75426 h 2.40022 l -2.46444,1.75426 z m 2.33974,0 2.49666,-1.75426 h 2.40037 l -2.69001,1.75426 z m 2.33981,0 2.72215,-1.75426 h 2.40022 l -2.9155,1.75426 z m 2.33973,0 2.94765,-1.75426 h 2.4003 l -3.14108,1.75426 z m 2.33981,0 3.17322,-1.75426 h 1.88539 l -0.15981,0.35155 -2.69185,1.40271 z m 2.33974,0 2.51048,-1.29583 -0.58903,1.29583 z m -73.19631,-2.08721 -0.4815,-1.05925 1.91603,1.05925 z m 1.60569,0 -2.15205,-1.20193 -0.37455,-0.824 h 1.55944 l 3.40413,2.02593 z m 2.60805,0 -3.36701,-2.02593 h 2.66027 l 3.14371,2.02593 z m 2.60805,0 -3.1066,-2.02593 h 2.66027 l 2.8833,2.02593 z m 2.60805,0 -2.84611,-2.02593 h 2.66019 l 2.62289,2.02593 z m 2.60821,0 -2.58578,-2.02593 h 2.66019 l 2.3624,2.02593 z m 2.60797,0 -2.32529,-2.02593 h 2.66027 l 2.10199,2.02593 z m 2.60813,0 -2.06488,-2.02593 h 2.66019 l 1.84158,2.02593 z m 2.60806,0 -1.8044,-2.02593 h 2.66019 l 1.58117,2.02593 z m 2.60813,0 -1.54399,-2.02593 h 2.66019 l 1.32069,2.02593 z m 2.60805,0 -1.28358,-2.02593 h 2.66019 l 1.06028,2.02593 z m 2.60805,0 -1.02308,-2.02593 h 2.66018 l 0.79987,2.02593 z m 2.60813,0 -0.76267,-2.02593 h 2.6601 l 0.53946,2.02593 z m 2.60805,0 -0.50226,-2.02593 h 2.67302 l 0.27673,2.02593 z m 2.61703,0 -0.23998,-2.02593 h 2.64941 l 0.0186,2.02593 z m 2.59923,0 0.0186,-2.02593 h 2.64941 l -0.23997,2.02593 z m 2.59753,0 0.27673,-2.02593 h 2.67302 l -0.50226,2.02593 z m 2.61865,0 0.53946,-2.02593 h 2.6601 l -0.76267,2.02593 z m 2.60805,0 0.79987,-2.02593 h 2.66018 l -1.02308,2.02593 z m 2.60813,0 1.06028,-2.02593 h 2.66018 l -1.28357,2.02593 z m 2.60805,0 1.32069,-2.02593 h 2.66019 l -1.54398,2.02593 z m 2.60806,0 1.58117,-2.02593 h 2.66018 l -1.80439,2.02593 z m 2.60813,0 1.84158,-2.02593 h 2.66019 l -2.06488,2.02593 z m 2.60805,0 2.10199,-2.02593 h 2.66026 l -2.32529,2.02593 z m 2.60813,0 2.3624,-2.02593 h 2.66019 l -2.58578,2.02593 z m 2.60805,0 2.62289,-2.02593 h 2.66019 l -2.84611,2.02593 z m 2.60805,0 2.8833,-2.02593 h 2.66027 l -3.1066,2.02593 z m 2.60805,0 3.14371,-2.02593 h 2.66027 l -3.36701,2.02593 z m 2.60805,0 3.40412,-2.02593 h 1.55946 l -0.37456,0.824 -2.15205,1.20193 z m 2.60813,0 1.91603,-1.05925 -0.4815,1.05925 z m -75.74172,-2.44132 -0.38951,-0.85689 1.43983,0.85689 z m 1.26614,0 -1.74282,-1.04865 -0.70422,-1.54922 h 1.1218 l 4.03121,2.59787 z m 2.92178,0 -3.98359,-2.59787 h 2.99246 l 3.69726,2.59787 z m 2.92195,0 -3.64965,-2.59787 h 2.99237 l 3.36333,2.59787 z m 2.92202,0 -3.31571,-2.59787 h 2.99221 l 3.02939,2.59787 z m 2.92179,0 -2.98178,-2.59787 h 2.99238 l 2.69545,2.59787 z m 2.92202,0 -2.64783,-2.59787 h 2.99221 l 2.36151,2.59787 z m 2.92186,0 -2.31381,-2.59787 h 2.99222 l 2.02757,2.59787 z m 2.92195,0 -1.97987,-2.59787 h 2.99221 l 1.69363,2.59787 z m 2.92186,0 -1.64593,-2.59787 h 2.9923 l 1.3596,2.59787 z m 2.92187,0 -1.312,-2.59787 h 2.99238 l 1.02567,2.59787 z m 2.92194,0 -0.97805,-2.59787 h 2.99229 l 0.69173,2.59787 z m 2.92195,0 -0.64411,-2.59787 h 3.00853 l 0.35485,2.59787 z m 2.93309,0 -0.30762,-2.59787 h 2.97859 l 0.0238,2.59787 z m 2.9108,0 0.0238,-2.59787 h 2.97859 l -0.30762,2.59787 z m 2.90856,0 0.35485,-2.59787 h 3.00853 l -0.64411,2.59787 z m 2.93524,0 0.69173,-2.59787 h 2.9923 l -0.97805,2.59787 z m 2.92187,0 1.02567,-2.59787 h 2.99237 l -1.31199,2.59787 z m 2.92194,0 1.35961,-2.59787 h 2.9923 l -1.64593,2.59787 z m 2.92187,0 1.69363,-2.59787 h 2.99221 l -1.97987,2.59787 z m 2.92194,0 2.02757,-2.59787 h 2.99221 l -2.31381,2.59787 z m 2.92195,0 2.36151,-2.59787 h 2.99221 l -2.64783,2.59787 z m 2.92187,0 2.69544,-2.59787 h 2.99238 l -2.98178,2.59787 z m 2.92194,0 3.02938,-2.59787 h 2.99221 l -3.3157,2.59787 z m 2.92186,0 3.36333,-2.59787 h 2.99237 l -3.64965,2.59787 z m 2.92187,0 3.69726,-2.59787 h 2.99245 l -3.98358,2.59787 z m 2.92194,0 4.0312,-2.59787 h 1.12181 l -0.70422,1.54922 -1.74282,1.04865 z m 2.92179,0 1.43983,-0.85689 -0.3895,0.85689 z m -78.67645,-3.16961 -0.20488,-0.45071 0.69938,0.45071 z m 0.76838,0 -1.09214,-0.71225 -1.14136,-2.5109 h 0.70184 l 4.58716,3.22315 z m 3.32946,0 -4.52808,-3.22315 h 3.41057 l 4.17285,3.22315 z m 3.32947,0 -4.11377,-3.22315 h 3.41039 l 3.75855,3.22315 z m 3.32922,0 -3.69947,-3.22315 h 3.41065 l 3.34424,3.22315 z m 3.32946,0 -3.28515,-3.22315 h 3.41048 l 2.92993,3.22315 z m 3.3293,0 -2.87076,-3.22315 h 3.41048 l 2.51554,3.22315 z m 3.32938,0 -2.45644,-3.22315 h 3.41056 l 2.10114,3.22315 z m 3.3293,0 -2.04205,-3.22315 h 3.41048 l 1.68691,3.22315 z m 3.32938,0 -1.62782,-3.22315 h 3.41065 l 1.27251,3.22315 z m 3.32938,0 -1.21342,-3.22315 h 3.41048 l 0.8582,3.22315 z m 3.32931,0 -0.79913,-3.22315 h 3.4311 l 0.44021,3.22315 z m 3.34366,0 -0.38173,-3.22315 h 3.3932 l 0.0295,3.22315 z m 3.31518,0 0.0295,-3.22315 h 3.39319 l -0.38172,3.22315 z m 3.31246,0 0.44021,-3.22315 h 3.43109 l -0.79912,3.22315 z m 3.34623,0 0.8582,-3.22315 h 3.41048 l -1.21343,3.22315 z m 3.32929,0 1.27252,-3.22315 h 3.41065 l -1.62783,3.22315 z m 3.32939,0 1.68691,-3.22315 h 3.41048 l -2.04206,3.22315 z m 3.32938,0 2.10114,-3.22315 h 3.41056 l -2.45644,3.22315 z m 3.32938,0 2.51553,-3.22315 h 3.41049 l -2.87076,3.22315 z m 3.3293,0 2.92993,-3.22315 h 3.41048 l -3.28515,3.22315 z m 3.3293,0 3.34424,-3.22315 h 3.41065 l -3.69947,3.22315 z m 3.32946,0 3.75855,-3.22315 h 3.4104 l -4.11377,3.22315 z m 3.3293,0 4.17286,-3.22315 h 3.41057 l -4.52809,3.22315 z m 3.3293,0 4.58717,-3.22315 h 0.70184 l -1.14136,2.5109 -1.09214,0.71225 z m 3.32939,0 0.69938,-0.45071 -0.20488,0.45071 z m -82.05506,-3.9006 -0.57812,-0.41152 -1.66638,-3.66589 h 0.45099 l 5.27877,4.07741 z m 3.83091,0 -5.20401,-4.07741 h 3.93441 l 4.7547,4.07741 z m 3.83066,0 -4.67994,-4.07741 h 3.93468 l 4.23053,4.07741 z m 3.83083,0 -4.15577,-4.07741 h 3.93451 l 3.70644,4.07741 z m 3.83074,0 -3.63159,-4.07741 h 3.93459 l 3.18218,4.07741 z m 3.83083,0 -3.10751,-4.07741 h 3.93459 l 2.6581,4.07741 z m 3.83074,0 -2.58334,-4.07741 h 3.93451 l 2.13402,4.07741 z m 3.83075,0 -2.05926,-4.07741 h 3.93468 l 1.60976,4.07741 z m 3.83074,0 -1.535,-4.07741 h 3.9345 l 1.08568,4.07741 z m 3.83074,0 -1.01092,-4.07741 h 3.9605 l 0.55689,4.07741 z m 3.84876,0 -0.48282,-4.07741 h 3.91274 l 0.0373,4.07741 z m 3.8129,0 0.0373,-4.07741 h 3.91273 l -0.48281,4.07741 z m 3.80955,0 0.55689,-4.07741 h 3.9605 l -1.01093,4.07741 z m 3.85202,0 1.08568,-4.07741 h 3.93451 l -1.535,4.07741 z m 3.83075,0 1.60976,-4.07741 h 3.93468 l -2.05926,4.07741 z m 3.83074,0 2.13402,-4.07741 h 3.93451 l -2.58335,4.07741 z m 3.83075,0 2.65809,-4.07741 h 3.9346 l -3.10751,4.07741 z m 3.83082,0 3.18219,-4.07741 h 3.93459 l -3.6316,4.07741 z m 3.83075,0 3.70644,-4.07741 h 3.9345 l -4.15576,4.07741 z m 3.83074,0 4.23052,-4.07741 h 3.93469 l -4.67994,4.07741 z m 3.83083,0 4.7547,-4.07741 h 3.93441 l -5.20402,4.07741 z m 3.83074,0 5.27878,-4.07741 h 0.45099 l -1.66638,3.66589 -0.57812,0.41152 z m -83.08574,-5.06961 -0.0871,-0.0682 -2.55378,-5.61811 h 0.0538 l 6.6308,5.68629 z m 4.4823,0 -6.5266,-5.68629 h 4.67087 l 5.89979,5.68629 z m 4.48257,0 -5.7956,-5.68629 h 4.67058 l 5.16881,5.68629 z m 4.48239,0 -5.0646,-5.68629 h 4.67067 l 4.4379,5.68629 z m 4.48248,0 -4.3336,-5.68629 h 4.67058 l 3.70699,5.68629 z m 4.48248,0 -3.6027,-5.68629 h 4.67058 l 2.976,5.68629 z m 4.48239,0 -2.87171,-5.68629 h 4.67068 l 2.245,5.68629 z m 4.48248,0 -2.14071,-5.68629 h 4.67058 l 1.51401,5.68629 z m 4.48239,0 -1.40981,-5.68629 h 4.70413 l 0.77664,5.68629 z m 4.50528,0 -0.67335,-5.68629 h 4.64242 l 0.0521,5.68629 z m 4.45977,0 0.0521,-5.68629 h 4.64242 l -0.67336,5.68629 z m 4.45549,0 0.77664,-5.68629 h 4.70412 l -1.4098,5.68629 z m 4.50947,0 1.514,-5.68629 h 4.67058 l -2.1407,5.68629 z m 4.48239,0 2.245,-5.68629 h 4.67067 l -2.8717,5.68629 z m 4.48247,0 2.97601,-5.68629 h 4.67057 l -3.60269,5.68629 z m 4.48239,0 3.707,-5.68629 h 4.67058 l -4.3336,5.68629 z m 4.48249,0 4.43789,-5.68629 h 4.67068 l -5.0646,5.68629 z m 4.48257,0 5.1688,-5.68629 h 4.67058 l -5.79559,5.68629 z m 4.4823,0 5.89979,-5.68629 h 4.67087 l -6.5266,5.68629 z m 4.48257,0 6.63079,-5.68629 h 0.0538 l -2.55378,5.61811 -0.0871,0.0682 z m -88.48858,-7.18459 -3.42599,-7.536905 7.81989,7.536905 z m 4.96413,0 -7.98533,-7.834824 h 5.69912 l 7.12192,7.834824 z m 5.40593,0 -6.97814,-7.834824 h 5.69922 l 6.11473,7.834824 z m 5.40613,0 -5.97104,-7.834824 h 5.69922 l 5.10753,7.834824 z m 5.40594,0 -4.96397,-7.834824 h 5.69933 l 4.10035,7.834824 z m 5.40594,0 -3.95678,-7.834824 h 5.69943 l 3.09325,7.834824 z m 5.40613,0 -2.94969,-7.834824 h 5.69933 l 2.08607,7.834824 z m 5.40593,0 -1.9425,-7.834824 h 5.74322 l 1.0702,7.834824 z m 5.43568,0 -0.92776,-7.834824 h 5.66214 l 0.0718,7.834824 z m 5.37649,0 0.0718,-7.834824 h 5.66215 l -0.92777,7.834824 z m 5.37093,0 1.07019,-7.834824 h 5.74322 l -1.9425,7.834824 z m 5.44114,0 2.08606,-7.834824 h 5.69933 l -2.94968,7.834824 z m 5.40593,0 3.09325,-7.834824 h 5.69944 l -3.95678,7.834824 z m 5.40613,0 4.10035,-7.834824 h 5.69933 l -4.96397,7.834824 z m 5.40594,0 5.10753,-7.834824 h 5.69923 l -5.97105,7.834824 z m 5.40603,0 6.11473,-7.834824 h 5.69922 l -6.97814,7.834824 z m 5.40604,0 7.12191,-7.834824 h 5.69912 l -7.98532,7.834824 z m 5.40593,0 7.8199,-7.536905 -3.42599,7.536905 z m -95.99066,-9.96627 -5.27212,-11.598238 10.54283,11.598238 z m 6.02376,0 -10.8575,-12.190312 h 7.27768 l 9.51404,12.190312 z m 6.68727,0 -9.29054,-12.190312 h 7.27768 l 7.94697,12.190312 z m 6.68705,0 -7.72347,-12.190312 h 7.27767 l 6.37992,12.190312 z m 6.68706,0 -6.15642,-12.190312 h 7.27791 l 4.81284,12.190312 z m 6.68727,0 -4.58934,-12.190312 h 7.27767 l 3.24578,12.190312 z m 6.68706,0 -3.02229,-12.190312 h 7.33786 l 1.66507,12.190312 z m 6.72643,0 -1.44375,-12.190312 h 7.22706 l 0.11174,12.190312 z m 6.648,0 0.11174,-12.190312 7.22706,0 -1.44375,12.190312 z m 6.64084,0 1.66507,-12.190312 h 7.33786 l -3.02228,12.190312 z m 6.73359,0 3.24577,-12.190312 h 7.27768 L 273.685,92.33702 Z m 6.68705,0 4.81284,-12.190312 h 7.27791 l -6.15642,12.190312 z m 6.68727,0 6.37992,-12.190312 h 7.27767 l -7.72347,12.190312 z m 6.68706,0 7.94697,-12.190312 h 7.27767 l -9.29053,12.190312 z m 6.68717,0 9.51403,-12.190312 h 7.27768 l -10.8575,12.190312 z m 6.68726,0 10.54284,-11.598238 -5.27212,11.598238 z M 194.55651,76.968283 184.86333,55.644072 201.50585,76.968283 Z m 7.9842,0 -17.29451,-22.692769 h 10.129 l 14.79355,22.692769 z m 8.66279,0 -14.37755,-22.692769 h 10.12901 l 11.87646,22.692769 z m 8.66266,0 -11.46045,-22.692769 h 10.12928 l 8.95933,22.692769 z m 8.6629,0 -8.54331,-22.692769 h 10.129 l 6.04224,22.692769 z m 8.66267,0 -5.62623,-22.692769 h 10.21841 l 3.09959,22.692769 z m 8.7166,0 -2.68743,-22.692769 10.05363,0 0.20802,22.692769 z m 8.60908,0 0.20802,-22.692769 10.05363,0 -2.68742,22.692769 z m 8.59906,0 3.09958,-22.692769 h 10.21842 l -5.62623,22.692769 z m 8.72651,0 6.04223,-22.692769 h 10.12901 l -8.54332,22.692769 z m 8.66267,0 8.95933,-22.692769 h 10.12927 L 288.1338,76.968283 Z m 8.6629,0 11.87646,-22.692769 h 10.129 l -14.37754,22.692769 z m 8.66267,0 14.79354,-22.692769 h 10.129 l -17.29451,22.692769 z m 8.6629,0 16.64252,-21.324211 -9.69318,21.324211 z"
         inkscape:label="Squares" />
    </mask>
    <linearGradient
       inkscape:collect="always"
       xlink:href="#linearGradient2224"
       id="linearGradient2227"
       gradientUnits="userSpaceOnUse"
       x1="253.99544"
       y1="165.09258"
       x2="254.00011"
       y2="285.75"
       gradientTransform="matrix(0.76495878,0,0,-0.76495878,59.700478,257.41703)" />
    <linearGradient
       inkscape:collect="always"
       xlink:href="#linearGradient44"
       id="linearGradient20"
       gradientUnits="userSpaceOnUse"
       gradientTransform="matrix(1.4063852,0,0,1.4063852,-325.65377,-51.816742)"
       x1="412.15872"
       y1="39.326286"
       x2="412.15872"
       y2="183.02863" />
    <linearGradient
       inkscape:collect="always"
       xlink:href="#linearGradient44"
       id="linearGradient21"
       gradientUnits="userSpaceOnUse"
       gradientTransform="matrix(2.0034655,0,0,2.0034655,-571.74564,-118.1986)"
       x1="412.15872"
       y1="39.326286"
       x2="412.15872"
       y2="183.02863" />
    <linearGradient
       inkscape:collect="always"
       xlink:href="#linearGradient44"
       id="linearGradient22"
       gradientUnits="userSpaceOnUse"
       gradientTransform="matrix(2.5777112,0,0,2.5777112,-808.42599,-182.04177)"
       x1="412.15872"
       y1="39.326286"
       x2="412.15872"
       y2="183.02863" />
    <filter
       inkscape:collect="always"
       style="color-interpolation-filters:sRGB"
       id="filter22"
       x="-0.0057347345"
       y="-0.0057347344"
       width="1.0114695"
       height="1.0114695">
      <feGaussianBlur
         inkscape:collect="always"
         stdDeviation="0.4829132"
         id="feGaussianBlur22" />
    </filter>
    <filter
       inkscape:collect="always"
       style="color-interpolation-filters:sRGB"
       id="filter23"
       x="-0.04309745"
       y="-0.043097451"
       width="1.0861949"
       height="1.0861949">
      <feGaussianBlur
         inkscape:collect="always"
         stdDeviation="5.1120905"
         id="feGaussianBlur23" />
    </filter>
    <filter
       inkscape:collect="always"
       style="color-interpolation-filters:sRGB"
       id="filter24"
       x="-0.081015915"
       y="-0.081015914"
       width="1.1620318"
       height="1.1620318">
      <feGaussianBlur
         inkscape:collect="always"
         stdDeviation="12.504193"
         id="feGaussianBlur24" />
    </filter>
    <linearGradient
       inkscape:collect="always"
       xlink:href="#linearGradient44"
       id="linearGradient24"
       gradientUnits="userSpaceOnUse"
       gradientTransform="matrix(2.0034655,0,0,2.0034655,-571.74564,-118.1986)"
       x1="412.15872"
       y1="39.326286"
       x2="412.15872"
       y2="183.02863" />
    <linearGradient
       inkscape:collect="always"
       xlink:href="#linearGradient44"
       id="linearGradient25"
       gradientUnits="userSpaceOnUse"
       gradientTransform="matrix(2.0034655,0,0,2.0034655,-571.74564,-118.1986)"
       x1="412.15872"
       y1="39.326286"
       x2="412.15872"
       y2="183.02863" />
    <filter
       inkscape:collect="always"
       style="color-interpolation-filters:sRGB"
       id="filter25"
       x="-0.067509278"
       y="-0.067509279"
       width="1.1350186"
       height="1.1350186">
      <feGaussianBlur
         inkscape:collect="always"
         stdDeviation="8.0077488"
         id="feGaussianBlur25" />
    </filter>
    <linearGradient
       inkscape:collect="always"
       xlink:href="#linearGradient44"
       id="linearGradient26"
       gradientUnits="userSpaceOnUse"
       gradientTransform="matrix(1.4063852,0,0,1.4063852,-325.65377,-51.816742)"
       x1="412.15872"
       y1="39.326286"
       x2="412.15872"
       y2="183.02863" />
    <filter
       inkscape:collect="always"
       style="color-interpolation-filters:sRGB"
       id="filter26"
       x="-0.046975725"
       y="-0.046975725"
       width="1.0939515"
       height="1.0939514">
      <feGaussianBlur
         inkscape:collect="always"
         stdDeviation="3.9557539"
         id="feGaussianBlur26" />
    </filter>
  </defs>
  <g
     inkscape:groupmode="layer"
     id="layer11"
     inkscape:label="SunRings">
    <path
       id="path18"
       style="display:inline;mix-blend-mode:normal;fill:url(#linearGradient22);stroke-width:0.0999996;filter:url(#filter24)"
       inkscape:label="Sun_Sharp"
       d="M 254,-80.668978 A 185.21093,185.21093 0 0 0 85.526046,27.60245 185.21144,185.21144 0 0 0 70.674239,78.183858 a 185.21093,185.21093 0 0 0 -1.885156,26.358082 185.21144,185.21144 0 0 0 0,5.2e-4 h 15.877584 a 169.33345,169.33345 0 0 1 0,-5.2e-4 A 169.33345,169.33345 0 0 1 254,-64.791911 169.33345,169.33345 0 0 1 423.33333,104.54194 a 169.33345,169.33345 0 0 1 0,5.2e-4 h 15.87759 a 185.21093,185.21093 0 0 0 0,-5.2e-4 185.21144,185.21144 0 0 0 0,-5.2e-4 185.21093,185.21093 0 0 0 -1.85984,-26.000478 185.21144,185.21144 0 0 0 -0.0682,-0.553454 185.21093,185.21093 0 0 0 -5.44928,-25.051184 185.21144,185.21144 0 0 0 -0.25683,-0.927075 185.21093,185.21093 0 0 0 -8.84701,-23.72155 185.21144,185.21144 0 0 0 -0.51159,-1.153935 185.21093,185.21093 0 0 0 -12.03286,-22.0348304 185.21144,185.21144 0 0 0 -0.76585,-1.2097453 185.21093,185.21093 0 0 0 -14.97376,-20.0029133 185.21144,185.21144 0 0 0 -0.99684,-1.155485 185.21093,185.21093 0 0 0 -17.63768,-17.637683 185.21144,185.21144 0 0 0 -1.15549,-0.996839 185.21093,185.21093 0 0 0 -20.00394,-14.974279 185.21144,185.21144 0 0 0 -1.20716,-0.764812 185.21093,185.21093 0 0 0 -22.04207,-12.036474 185.21144,185.21144 0 0 0 -1.14153,-0.505912 185.21093,185.21093 0 0 0 -23.73499,-8.852173 185.21144,185.21144 0 0 0 -0.90899,-0.251665 185.21093,185.21093 0 0 0 -25.0734,-5.454447 185.21144,185.21144 0 0 0 -0.52245,-0.0646 A 185.21093,185.21093 0 0 0 254,-80.668978 Z M 70.411723,125.16394 a 185.21144,185.21144 0 0 0 1.409733,11.01069 185.21093,185.21093 0 0 0 0.222725,1.0232 h 16.187643 a 169.33345,169.33345 0 0 1 -1.942517,-12.03389 z m 351.298967,0 a 169.33345,169.33345 0 0 1 -1.94251,12.03389 h 16.18764 a 185.21093,185.21093 0 0 0 0.22272,-1.0232 185.21144,185.21144 0 0 0 1.40974,-11.01069 z M 76.284749,155.24065 a 185.21144,185.21144 0 0 0 3.272152,10.23659 185.21093,185.21093 0 0 0 0.670243,1.7973 h 17.03772 a 169.33345,169.33345 0 0 1 -4.701522,-12.03389 z m 339.151391,0 a 169.33345,169.33345 0 0 1 -4.701,12.03389 h 17.03772 a 185.21093,185.21093 0 0 0 0.67024,-1.7973 185.21144,185.21144 0 0 0 3.27215,-10.23659 z M 86.53787,182.7413 a 185.21144,185.21144 0 0 0 5.498889,10.66343 185.21093,185.21093 0 0 0 0.748792,1.37046 h 18.522899 a 169.33345,169.33345 0 0 1 -7.37474,-12.03389 z m 317.52791,0 a 169.33345,169.33345 0 0 1 -7.37423,12.03389 h 18.5229 a 185.21093,185.21093 0 0 0 0.74982,-1.37252 185.21144,185.21144 0 0 0 5.49838,-10.66137 z M 100.6414,207.66433 a 185.21144,185.21144 0 0 0 8.893,12.03389 h 20.81682 a 169.33345,169.33345 0 0 1 -10.27793,-12.03389 z m 287.28531,0 a 169.33345,169.33345 0 0 1 -10.27793,12.03389 h 20.81682 a 185.21144,185.21144 0 0 0 8.893,-12.03389 z M 118.3411,230.00818 a 185.21144,185.21144 0 0 0 12.34808,12.03389 h 24.60573 a 169.33345,169.33345 0 0 1 -14.32367,-12.03389 z m 248.68766,0 a 169.33345,169.33345 0 0 1 -14.32419,12.03389 h 24.60677 a 185.21144,185.21144 0 0 0 12.34808,-12.03389 z m -227.28432,19.76831 a 185.21144,185.21144 0 0 0 17.51418,12.03389 h 35.29603 a 169.33345,169.33345 0 0 1 -24.63777,-12.03389 z m 200.33919,0 a 169.33345,169.33345 0 0 1 -24.63777,12.03389 h 35.29552 a 185.21144,185.21144 0 0 0 17.51418,-12.03389 z M 165.98005,266.9651 a 185.21093,185.21093 0 0 0 2.94659,1.6092 185.21144,185.21144 0 0 0 17.66559,7.99642 185.21093,185.21093 0 0 0 6.51175,2.42879 h 121.79204 a 185.21093,185.21093 0 0 0 6.5164,-2.43034 185.21144,185.21144 0 0 0 17.66094,-7.99487 185.21093,185.21093 0 0 0 2.94659,-1.6092 H 300.58889 A 169.33345,169.33345 0 0 1 254,273.87527 169.33345,169.33345 0 0 1 207.41163,266.9651 Z m 34.48678,14.61151 A 185.21144,185.21144 0 0 0 254,289.75286 a 185.21144,185.21144 0 0 0 53.53317,-8.17625 z" />
    <path
       id="path19"
       style="display:inline;mix-blend-mode:normal;fill:url(#linearGradient21);stroke-width:0.0999996;filter:url(#filter23);opacity:0.86174017"
       inkscape:label="Sun_Sharp"
       d="M 254,-37.798726 A 142.34047,142.34047 0 0 0 111.65985,104.54194 H 127 A 127.0001,127.0001 0 0 1 254,-22.458577 127.0001,127.0001 0 0 1 381,104.54194 h 15.34067 A 142.34047,142.34047 0 0 0 254,-37.798726 Z M 112.80655,120.5699 a 142.34047,142.34047 0 0 0 1.41697,9.35292 h 15.66364 a 127.0001,127.0001 0 0 1 -1.62574,-9.35292 z m 266.93203,0 a 127.0001,127.0001 0 0 1 -1.62574,9.35292 H 393.777 a 142.34047,142.34047 0 0 0 1.41697,-9.35292 z m -262.4646,23.37635 a 142.34047,142.34047 0 0 0 3.38015,9.35292 h 16.50132 a 127.0001,127.0001 0 0 1 -3.87366,-9.35292 z m 257.44423,0 a 127.0001,127.0001 0 0 1 -3.87418,9.35292 h 16.50235 a 142.34047,142.34047 0 0 0 3.38016,-9.35292 z m -249.29486,21.37441 a 142.34047,142.34047 0 0 0 5.10667,9.35292 h 17.95652 a 127.0001,127.0001 0 0 1 -5.73143,-9.35292 z m 239.82102,0 a 127.0001,127.0001 0 0 1 -5.73143,9.35292 h 17.95756 a 142.34047,142.34047 0 0 0 5.10666,-9.35292 z m -228.59741,19.37039 a 142.34047,142.34047 0 0 0 7.00215,9.35344 h 20.2923 a 127.0001,127.0001 0 0 1 -7.98866,-9.35344 z m 215.40029,0 a 127.0001,127.0001 0 0 1 -7.98866,9.35344 h 20.29281 a 142.34047,142.34047 0 0 0 7.00216,-9.35344 z m -201.31743,17.3669 a 142.34047,142.34047 0 0 0 9.35292,9.35292 h 25.99789 a 127.0001,127.0001 0 0 1 -12.85193,-9.35292 z m 184.04148,0 a 127.0001,127.0001 0 0 1 -12.85193,9.35292 h 25.99893 a 142.34047,142.34047 0 0 0 9.3524,-9.35292 z m -166.89576,15.36392 a 142.34047,142.34047 0 0 0 13.72733,9.35292 h 39.18572 a 127.0001,127.0001 0 0 1 -24.89874,-9.35292 z m 144.23512,0 a 127.0001,127.0001 0 0 1 -24.89925,9.35292 h 39.18572 a 142.34047,142.34047 0 0 0 13.72785,-9.35292 z m -123.16922,13.35991 a 142.34047,142.34047 0 0 0 22.32577,9.35292 h 85.46713 a 142.34047,142.34047 0 0 0 22.32474,-9.35292 H 263.65781 A 127.0001,127.0001 0 0 1 254,231.54194 a 127.0001,127.0001 0 0 1 -9.65781,-0.76016 z m 29.65555,11.35641 a 142.34047,142.34047 0 0 0 35.40301,4.7439 142.34047,142.34047 0 0 0 35.40507,-4.7439 z" />
    <path
       id="path20"
       style="display:inline;fill:url(#linearGradient20);stroke-width:0.0999991;filter:url(#filter22);opacity:0.46603099"
       inkscape:label="Sun_Sharp"
       d="M 254 3.4917765 A 101.05016 101.05016 0 0 0 187.82626 28.173474 A 101.05035 101.05035 0 0 0 177.63153 38.367684 A 101.05016 101.05016 0 0 0 157.04313 76.072876 A 101.05035 101.05035 0 0 0 152.94984 104.54194 L 167.91688 104.54194 A 86.083069 86.083069 0 0 1 254 18.458822 A 86.083069 86.083069 0 0 1 340.08312 104.54194 L 355.05016 104.54194 A 101.05016 101.05016 0 0 0 350.69901 75.208329 A 101.05016 101.05016 0 0 0 347.35813 65.871948 A 101.05016 101.05016 0 0 0 347.35813 65.871431 A 101.05035 101.05035 0 0 0 345.34843 61.337341 A 101.05016 101.05016 0 0 0 340.67378 52.591622 A 101.05016 101.05016 0 0 0 338.02019 48.40118 A 101.05016 101.05016 0 0 0 332.11306 40.436292 A 101.05016 101.05016 0 0 0 328.87347 36.680448 A 101.05016 101.05016 0 0 0 321.86149 29.668473 A 101.05035 101.05035 0 0 0 321.86097 29.668473 A 101.05016 101.05016 0 0 0 318.10565 26.428878 A 101.05016 101.05016 0 0 0 305.95032 17.86816 A 101.05016 101.05016 0 0 0 254 3.4917765 z M 153.83505 115.79293 A 101.05035 101.05035 0 0 0 154.60555 121.80755 A 101.05016 101.05016 0 0 0 154.72544 122.35842 L 170.02115 122.35842 A 86.083069 86.083069 0 0 1 168.80262 115.79293 L 153.83505 115.79293 z M 339.31366 115.79293 A 86.083069 86.083069 0 0 1 338.20261 122.35842 L 353.27456 122.35842 A 101.05016 101.05016 0 0 0 353.39548 121.80238 A 101.05035 101.05035 0 0 0 354.16495 115.79293 L 339.31366 115.79293 z M 157.03951 132.20278 A 101.05035 101.05035 0 0 0 158.82751 137.79469 A 101.05016 101.05016 0 0 0 159.19028 138.76827 L 175.28853 138.76827 A 86.083069 86.083069 0 0 1 172.56931 132.20278 L 157.03951 132.20278 z M 335.51285 132.20278 A 86.083069 86.083069 0 0 1 332.9528 138.76827 L 348.80972 138.76827 A 101.05016 101.05016 0 0 0 349.17559 137.78642 A 101.05035 101.05035 0 0 0 350.96049 132.20278 L 335.51285 132.20278 z M 162.63348 147.20704 A 101.05035 101.05035 0 0 0 165.63537 153.02735 A 101.05016 101.05016 0 0 0 166.04206 153.77253 L 183.51903 153.77253 A 86.083069 86.083069 0 0 1 179.4955 147.20704 L 162.63348 147.20704 z M 328.73084 147.20704 A 86.083069 86.083069 0 0 1 324.58794 153.77253 L 341.95794 153.77253 A 101.05016 101.05016 0 0 0 342.36463 153.02735 A 101.05035 101.05035 0 0 0 345.36652 147.20704 L 328.73084 147.20704 z M 170.32862 160.80465 A 101.05035 101.05035 0 0 0 175.18052 167.37015 L 195.42218 167.37015 A 86.083069 86.083069 0 0 1 189.19465 160.80465 L 170.32862 160.80465 z M 319.13039 160.80465 A 86.083069 86.083069 0 0 1 312.82897 167.37015 L 332.81948 167.37015 A 101.05035 101.05035 0 0 0 337.6719 160.80465 L 319.13039 160.80465 z M 179.9854 172.99564 A 101.05035 101.05035 0 0 0 186.72245 179.56113 L 212.17516 179.56113 A 86.083069 86.083069 0 0 1 202.00937 172.99564 L 179.9854 172.99564 z M 306.1901 172.99564 A 86.083069 86.083069 0 0 1 296.15453 179.56113 L 321.27806 179.56113 A 101.05035 101.05035 0 0 0 328.01512 172.99564 L 306.1901 172.99564 z M 191.66272 183.78103 A 101.05035 101.05035 0 0 0 201.21821 190.34652 L 250.4612 190.34652 A 86.083069 86.083069 0 0 1 221.04749 183.78103 L 191.66272 183.78103 z M 287.56023 183.78103 A 86.083069 86.083069 0 0 1 260.53293 190.34652 L 306.78179 190.34652 A 101.05035 101.05035 0 0 0 316.33728 183.78103 L 287.56023 183.78103 z M 205.97657 193.15927 A 101.05016 101.05016 0 0 0 207.58371 194.03674 A 101.05035 101.05035 0 0 0 217.23222 198.40339 A 101.05016 101.05016 0 0 0 220.77464 199.72476 L 287.22536 199.72476 A 101.05016 101.05016 0 0 0 290.77605 198.40029 A 101.05035 101.05035 0 0 0 300.41164 194.03932 A 101.05016 101.05016 0 0 0 302.02343 193.15927 L 205.97657 193.15927 z M 224.79248 201.13088 A 101.05035 101.05035 0 0 0 254 205.5921 A 101.05035 101.05035 0 0 0 283.20752 201.13088 L 224.79248 201.13088 z " />
    <path
       id="path24"
       style="display:inline;opacity:0.86174;mix-blend-mode:normal;fill:url(#linearGradient24);stroke-width:0.0689736;filter:url(#filter23)"
       inkscape:label="Sun_Sharp"
       d="M 254,-37.798726 A 142.34047,142.34047 0 0 0 111.65985,104.54194 H 127 A 127.0001,127.0001 0 0 1 254,-22.458577 127.0001,127.0001 0 0 1 381,104.54194 h 15.34067 A 142.34047,142.34047 0 0 0 254,-37.798726 Z M 112.80655,120.5699 a 142.34047,142.34047 0 0 0 1.41697,9.35292 h 15.66364 a 127.0001,127.0001 0 0 1 -1.62574,-9.35292 z m 266.93203,0 a 127.0001,127.0001 0 0 1 -1.62574,9.35292 H 393.777 a 142.34047,142.34047 0 0 0 1.41697,-9.35292 z m -262.4646,23.37635 a 142.34047,142.34047 0 0 0 3.38015,9.35292 h 16.50132 a 127.0001,127.0001 0 0 1 -3.87366,-9.35292 z m 257.44423,0 a 127.0001,127.0001 0 0 1 -3.87418,9.35292 h 16.50235 a 142.34047,142.34047 0 0 0 3.38016,-9.35292 z m -249.29486,21.37441 a 142.34047,142.34047 0 0 0 5.10667,9.35292 h 17.95652 a 127.0001,127.0001 0 0 1 -5.73143,-9.35292 z m 239.82102,0 a 127.0001,127.0001 0 0 1 -5.73143,9.35292 h 17.95756 a 142.34047,142.34047 0 0 0 5.10666,-9.35292 z m -228.59741,19.37039 a 142.34047,142.34047 0 0 0 7.00215,9.35344 h 20.2923 a 127.0001,127.0001 0 0 1 -7.98866,-9.35344 z m 215.40029,0 a 127.0001,127.0001 0 0 1 -7.98866,9.35344 h 20.29281 a 142.34047,142.34047 0 0 0 7.00216,-9.35344 z m -201.31743,17.3669 a 142.34047,142.34047 0 0 0 9.35292,9.35292 h 25.99789 a 127.0001,127.0001 0 0 1 -12.85193,-9.35292 z m 184.04148,0 a 127.0001,127.0001 0 0 1 -12.85193,9.35292 h 25.99893 a 142.34047,142.34047 0 0 0 9.3524,-9.35292 z m -166.89576,15.36392 a 142.34047,142.34047 0 0 0 13.72733,9.35292 h 39.18572 a 127.0001,127.0001 0 0 1 -24.89874,-9.35292 z m 144.23512,0 a 127.0001,127.0001 0 0 1 -24.89925,9.35292 h 39.18572 a 142.34047,142.34047 0 0 0 13.72785,-9.35292 z m -123.16922,13.35991 a 142.34047,142.34047 0 0 0 22.32577,9.35292 h 85.46713 a 142.34047,142.34047 0 0 0 22.32474,-9.35292 H 263.65781 A 127.0001,127.0001 0 0 1 254,231.54194 a 127.0001,127.0001 0 0 1 -9.65781,-0.76016 z m 29.65555,11.35641 a 142.34047,142.34047 0 0 0 35.40301,4.7439 142.34047,142.34047 0 0 0 35.40507,-4.7439 z"
       transform="matrix(1.449825,0,0,1.449825,-114.25566,-47.025458)" />
    <path
       id="path25"
       style="display:inline;opacity:0.86174;mix-blend-mode:normal;fill:url(#linearGradient25);stroke-width:0.109572;filter:url(#filter25)"
       inkscape:label="Sun_Sharp"
       d="M 254,-37.798726 A 142.34047,142.34047 0 0 0 111.65985,104.54194 H 127 A 127.0001,127.0001 0 0 1 254,-22.458577 127.0001,127.0001 0 0 1 381,104.54194 h 15.34067 A 142.34047,142.34047 0 0 0 254,-37.798726 Z M 112.80655,120.5699 a 142.34047,142.34047 0 0 0 1.41697,9.35292 h 15.66364 a 127.0001,127.0001 0 0 1 -1.62574,-9.35292 z m 266.93203,0 a 127.0001,127.0001 0 0 1 -1.62574,9.35292 H 393.777 a 142.34047,142.34047 0 0 0 1.41697,-9.35292 z m -262.4646,23.37635 a 142.34047,142.34047 0 0 0 3.38015,9.35292 h 16.50132 a 127.0001,127.0001 0 0 1 -3.87366,-9.35292 z m 257.44423,0 a 127.0001,127.0001 0 0 1 -3.87418,9.35292 h 16.50235 a 142.34047,142.34047 0 0 0 3.38016,-9.35292 z m -249.29486,21.37441 a 142.34047,142.34047 0 0 0 5.10667,9.35292 h 17.95652 a 127.0001,127.0001 0 0 1 -5.73143,-9.35292 z m 239.82102,0 a 127.0001,127.0001 0 0 1 -5.73143,9.35292 h 17.95756 a 142.34047,142.34047 0 0 0 5.10666,-9.35292 z m -228.59741,19.37039 a 142.34047,142.34047 0 0 0 7.00215,9.35344 h 20.2923 a 127.0001,127.0001 0 0 1 -7.98866,-9.35344 z m 215.40029,0 a 127.0001,127.0001 0 0 1 -7.98866,9.35344 h 20.29281 a 142.34047,142.34047 0 0 0 7.00216,-9.35344 z m -201.31743,17.3669 a 142.34047,142.34047 0 0 0 9.35292,9.35292 h 25.99789 a 127.0001,127.0001 0 0 1 -12.85193,-9.35292 z m 184.04148,0 a 127.0001,127.0001 0 0 1 -12.85193,9.35292 h 25.99893 a 142.34047,142.34047 0 0 0 9.3524,-9.35292 z m -166.89576,15.36392 a 142.34047,142.34047 0 0 0 13.72733,9.35292 h 39.18572 a 127.0001,127.0001 0 0 1 -24.89874,-9.35292 z m 144.23512,0 a 127.0001,127.0001 0 0 1 -24.89925,9.35292 h 39.18572 a 142.34047,142.34047 0 0 0 13.72785,-9.35292 z m -123.16922,13.35991 a 142.34047,142.34047 0 0 0 22.32577,9.35292 h 85.46713 a 142.34047,142.34047 0 0 0 22.32474,-9.35292 H 263.65781 A 127.0001,127.0001 0 0 1 254,231.54194 a 127.0001,127.0001 0 0 1 -9.65781,-0.76016 z m 29.65555,11.35641 a 142.34047,142.34047 0 0 0 35.40301,4.7439 142.34047,142.34047 0 0 0 35.40507,-4.7439 z"
       transform="matrix(0.91263608,0,0,0.91263608,22.190459,9.1331715)" />
    <path
       id="path26"
       style="display:inline;opacity:0.39332539;fill:url(#linearGradient26);stroke-width:0.106163;filter:url(#filter26)"
       inkscape:label="Sun_Sharp"
       d="m 254,3.4917765 a 101.05016,101.05016 0 0 0 -66.17374,24.6816975 101.05035,101.05035 0 0 0 -10.19473,10.19421 101.05016,101.05016 0 0 0 -20.5884,37.705192 101.05035,101.05035 0 0 0 -4.09329,28.469064 h 14.96704 A 86.083069,86.083069 0 0 1 254,18.458822 86.083069,86.083069 0 0 1 340.08312,104.54194 h 14.96704 a 101.05016,101.05016 0 0 0 -4.35115,-29.333611 101.05016,101.05016 0 0 0 -3.34088,-9.336381 101.05016,101.05016 0 0 0 0,-5.17e-4 101.05035,101.05035 0 0 0 -2.0097,-4.53409 101.05016,101.05016 0 0 0 -4.67465,-8.745719 101.05016,101.05016 0 0 0 -2.65359,-4.190442 101.05016,101.05016 0 0 0 -5.90713,-7.964888 101.05016,101.05016 0 0 0 -3.23959,-3.755844 101.05016,101.05016 0 0 0 -7.01198,-7.011975 101.05035,101.05035 0 0 0 -5.2e-4,0 101.05016,101.05016 0 0 0 -3.75532,-3.239595 A 101.05016,101.05016 0 0 0 305.95032,17.86816 101.05016,101.05016 0 0 0 254,3.4917765 Z M 153.83505,115.79293 a 101.05035,101.05035 0 0 0 0.7705,6.01462 101.05016,101.05016 0 0 0 0.11989,0.55087 h 15.29571 a 86.083069,86.083069 0 0 1 -1.21853,-6.56549 z m 185.47861,0 a 86.083069,86.083069 0 0 1 -1.11105,6.56549 h 15.07195 a 101.05016,101.05016 0 0 0 0.12092,-0.55604 101.05035,101.05035 0 0 0 0.76947,-6.00945 z m -182.27415,16.40985 a 101.05035,101.05035 0 0 0 1.788,5.59191 101.05016,101.05016 0 0 0 0.36277,0.97358 h 16.09825 a 86.083069,86.083069 0 0 1 -2.71922,-6.56549 z m 178.47334,0 a 86.083069,86.083069 0 0 1 -2.56005,6.56549 h 15.85692 a 101.05016,101.05016 0 0 0 0.36587,-0.98185 101.05035,101.05035 0 0 0 1.7849,-5.58364 z m -172.87937,15.00426 a 101.05035,101.05035 0 0 0 3.00189,5.82031 101.05016,101.05016 0 0 0 0.40669,0.74518 h 17.47697 a 86.083069,86.083069 0 0 1 -4.02353,-6.56549 z m 166.09736,0 a 86.083069,86.083069 0 0 1 -4.1429,6.56549 h 17.37 a 101.05016,101.05016 0 0 0 0.40669,-0.74518 101.05035,101.05035 0 0 0 3.00189,-5.82031 z m -158.40222,13.59761 a 101.05035,101.05035 0 0 0 4.8519,6.5655 h 20.24166 a 86.083069,86.083069 0 0 1 -6.22753,-6.5655 z m 148.80177,0 a 86.083069,86.083069 0 0 1 -6.30142,6.5655 h 19.99051 a 101.05035,101.05035 0 0 0 4.85242,-6.5655 z M 179.9854,172.99564 a 101.05035,101.05035 0 0 0 6.73705,6.56549 h 25.45271 a 86.083069,86.083069 0 0 1 -10.16579,-6.56549 z m 126.2047,0 a 86.083069,86.083069 0 0 1 -10.03557,6.56549 h 25.12353 a 101.05035,101.05035 0 0 0 6.73706,-6.56549 z m -114.52738,10.78539 a 101.05035,101.05035 0 0 0 9.55549,6.56549 h 49.24299 a 86.083069,86.083069 0 0 1 -29.41371,-6.56549 z m 95.89751,0 a 86.083069,86.083069 0 0 1 -27.0273,6.56549 h 46.24886 a 101.05035,101.05035 0 0 0 9.55549,-6.56549 z m -81.58366,9.37824 a 101.05016,101.05016 0 0 0 1.60714,0.87747 101.05035,101.05035 0 0 0 9.64851,4.36665 101.05016,101.05016 0 0 0 3.54242,1.32137 h 66.45072 a 101.05016,101.05016 0 0 0 3.55069,-1.32447 101.05035,101.05035 0 0 0 9.63559,-4.36097 101.05016,101.05016 0 0 0 1.61179,-0.88005 z m 18.81591,7.97161 A 101.05035,101.05035 0 0 0 254,205.5921 a 101.05035,101.05035 0 0 0 29.20752,-4.46122 z"
       transform="matrix(0.94193636,0,0,0.94193636,14.748164,6.0700852)" />
  </g>
</svg>
