<?xml version="1.0" encoding="UTF-8" standalone="no"?>
<!-- Created with Inkscape (http://www.inkscape.org/) -->

<svg
   width="5267.4248"
   height="5278.7817"
   viewBox="0 0 1393.6728 1396.6776"
   version="1.1"
   id="svg6993"
   inkscape:version="1.3.2 (091e20e, 2023-11-25, custom)"
   sodipodi:docname="pattern4.svg"
   xml:space="preserve"
   inkscape:export-filename="pattern4.png"
   inkscape:export-xdpi="96"
   inkscape:export-ydpi="96"
   xmlns:inkscape="http://www.inkscape.org/namespaces/inkscape"
   xmlns:sodipodi="http://sodipodi.sourceforge.net/DTD/sodipodi-0.dtd"
   xmlns:xlink="http://www.w3.org/1999/xlink"
   xmlns="http://www.w3.org/2000/svg"
   xmlns:svg="http://www.w3.org/2000/svg"><sodipodi:namedview
     id="namedview6995"
     pagecolor="#5b5b5b"
     bordercolor="#fffa97"
     borderopacity="0.98431373"
     inkscape:showpageshadow="2"
     inkscape:pageopacity="0"
     inkscape:pagecheckerboard="0"
     inkscape:deskcolor="#404040"
     inkscape:document-units="mm"
     showgrid="false"
     showguides="true"
     shape-rendering="crispEdges"
     inkscape:clip-to-page="false"
     inkscape:zoom="0.076455433"
     inkscape:cx="1137.9178"
     inkscape:cy="215.812"
     inkscape:window-width="1920"
     inkscape:window-height="1027"
     inkscape:window-x="1912"
     inkscape:window-y="-8"
     inkscape:window-maximized="1"
     inkscape:current-layer="g69" /><defs
     id="defs6990"><linearGradient
       id="linearGradient1"
       inkscape:collect="always"><stop
         style="stop-color:#000000;stop-opacity:0.84657532;"
         offset="0"
         id="stop1" /><stop
         style="stop-color:#000000;stop-opacity:0;"
         offset="1"
         id="stop2" /></linearGradient><inkscape:path-effect
       effect="spiro"
       id="path-effect12387"
       is_visible="true"
       lpeversion="1" /><inkscape:path-effect
       effect="spiro"
       id="path-effect12329"
       is_visible="true"
       lpeversion="1" /><inkscape:path-effect
       effect="spiro"
       id="path-effect12327"
       is_visible="true"
       lpeversion="1" /><inkscape:path-effect
       effect="spiro"
       id="path-effect12324"
       is_visible="true"
       lpeversion="1" /><inkscape:path-effect
       effect="spiro"
       id="path-effect12323"
       is_visible="true"
       lpeversion="1" /><mask
       maskUnits="userSpaceOnUse"
       id="mask12329"><path
         id="path12329"
         style="opacity:1;fill:#ffffff;fill-opacity:1;stroke:none;stroke-width:0.0999998;stroke-opacity:1"
         d="M 397.10651,-9.7859659 394.51082,1.730127 v 4.3258341 c 0,0.4404479 -0.0449,0.8795917 -0.11679,1.3141317 -0.036,0.2172701 -0.0705,0.4361329 -0.0651,0.6562908 0.005,0.2201577 0.0547,0.4455223 0.18191,0.6252848 0.11916,0.1684057 0.29665,0.2839897 0.46249,0.4066934 0.0829,0.061352 0.16425,0.1255575 0.23513,0.2005047 0.0709,0.074947 0.13132,0.1612373 0.16743,0.2578653 0.0509,0.1362109 0.0514,0.2861648 0.0382,0.4309813 -0.013,0.1448169 -0.0393,0.2886729 -0.0382,0.4340819 0.003,0.327411 0.14097,0.639419 0.31419,0.917257 0.17323,0.277838 0.38341,0.531833 0.5514,0.81287 0.33136,0.554321 0.49373,1.202268 0.86505,1.730644 0.19238,0.273728 0.43625,0.508394 0.62376,0.785482 0.0937,0.138543 0.17343,0.288441 0.22013,0.449068 0.0467,0.160627 0.0595,0.332736 0.0212,0.495577 -0.0361,0.15341 -0.11605,0.294395 -0.14624,0.449068 -0.0151,0.07734 -0.0172,0.158573 0.005,0.234094 0.0225,0.07552 0.0716,0.144777 0.14107,0.181901 0.0668,0.03571 0.14698,0.0396 0.2217,0.02687 0.0747,-0.01273 0.14581,-0.04065 0.21754,-0.06511 0.0717,-0.02446 0.14592,-0.04579 0.22169,-0.04496 0.0379,4.23e-4 0.0758,0.0065 0.1111,0.02015 0.0354,0.01363 0.068,0.03458 0.093,0.06304 0.0251,0.0286 0.042,0.06433 0.0512,0.101285 0.009,0.03695 0.0109,0.07528 0.007,0.113173 -0.007,0.07578 -0.0354,0.147952 -0.0625,0.219108 -0.0271,0.07116 -0.054,0.143719 -0.06,0.219624 -0.003,0.03795 0,0.07649 0.01,0.113171 0.0101,0.03668 0.0281,0.07158 0.0543,0.09922 0.0262,0.02757 0.0596,0.04734 0.0956,0.05943 0.036,0.01209 0.0747,0.01622 0.11266,0.01499 0.0759,-0.0025 0.1488,-0.02677 0.22016,-0.05271 0.0714,-0.02594 0.14282,-0.05379 0.21807,-0.06408 0.0376,-0.0051 0.0763,-0.0059 0.11369,5.29e-4 0.0374,0.0064 0.0737,0.02024 0.10488,0.04186 0.0314,0.02175 0.0573,0.05138 0.076,0.08475 0.0185,0.03336 0.0304,0.07024 0.0362,0.108004 0.0116,0.07552 -8e-5,0.152996 -0.0196,0.226859 -0.0196,0.07386 -0.0473,0.145472 -0.0677,0.219108 -0.0204,0.07364 -0.0339,0.150471 -0.0249,0.226343 0.0103,0.08634 0.0503,0.167618 0.10697,0.233578 0.0567,0.06596 0.12973,0.116739 0.20878,0.152962 0.15809,0.07245 0.33579,0.0872 0.50954,0.09508 0.17372,0.0079 0.35004,0.01076 0.51623,0.06201 0.0831,0.02563 0.16311,0.06311 0.23151,0.116789 0.0684,0.05368 0.12538,0.123881 0.15764,0.204639 0.0269,0.06742 0.0362,0.140835 0.0372,0.213423 0,0.07259 -0.006,0.144825 -0.0135,0.217041 -0.0148,0.144433 -0.0238,0.289409 -0.0238,0.434599 v 0.865063 3.460771 3.46077 2.595192 c 0,0.288605 -0.0363,0.578755 0,0.865063 0.0409,0.322136 0.2014,0.616209 0.37619,0.889868 0.17481,0.273658 0.3684,0.539221 0.48887,0.840774 0.16224,0.406181 0.18227,0.855729 0.14986,1.29191 -0.0324,0.436185 -0.11494,0.867291 -0.14986,1.303282 -0.14362,1.793005 0.51752,3.543552 1.19837,5.208466 0.68083,1.664915 1.40486,3.374599 1.39682,5.173329 0,0.288494 -0.0217,0.577893 0,0.865579 0.0109,0.144799 0.0323,0.288581 0.0403,0.433568 0.008,0.144983 0.003,0.292655 -0.0403,0.431495 -0.0713,0.232739 -0.24358,0.426535 -0.45064,0.55449 -0.20706,0.127953 -0.44701,0.194387 -0.68831,0.226344 -0.4826,0.06391 -0.97756,-0.0042 -1.45624,0.08423 -0.51803,0.09574 -0.98732,0.369945 -1.40301,0.693496 -0.41574,0.323551 -0.78835,0.699011 -1.19271,1.03663 -0.99894,0.834041 -2.19364,1.431922 -3.46025,1.730645 -2.5169,1.062887 -4.86323,2.529221 -6.92153,4.325831 -0.30771,0.268566 -0.61031,0.545854 -0.86508,0.865066 -0.12872,0.161309 -0.245,0.33246 -0.38084,0.487826 -0.13587,0.155366 -0.29432,0.296383 -0.48422,0.377237 -0.27151,0.115615 -0.58663,0.09784 -0.86505,0 -0.14817,-0.05206 -0.2907,-0.126439 -0.44598,-0.149862 -0.0776,-0.01172 -0.15814,-0.01011 -0.23307,0.01344 -0.0749,0.02355 -0.14402,0.07042 -0.18654,0.136424 -0.0397,0.06156 -0.0547,0.136081 -0.0563,0.209291 -0.003,0.07321 0.009,0.146214 0.0201,0.218591 0.0222,0.144753 0.0362,0.290724 0.0362,0.437184 v 0.86506 0.865066 c 0,0.288428 -0.0164,0.57762 0,0.865579 0.0331,0.578149 0.24408,1.137171 0.55086,1.628325 0.30679,0.491152 0.70702,0.917933 1.1379,1.30483 0.86177,0.773793 1.85658,1.402038 2.63705,2.257743 0.27561,0.302162 0.52705,0.634857 0.86508,0.865063 0.17581,0.119737 0.37195,0.209253 0.54054,0.338997 0.0843,0.06487 0.16134,0.139772 0.22014,0.22841 0.0588,0.08864 0.0989,0.191465 0.1049,0.297656 0.008,0.149804 -0.0496,0.294404 -0.0801,0.441317 -0.0151,0.07346 -0.0236,0.14891 -0.0135,0.223242 0.0101,0.07433 0.0403,0.147648 0.0935,0.200507 0.0532,0.05281 0.12618,0.08226 0.2005,0.09198 0.0743,0.0097 0.14988,7.93e-4 0.22323,-0.01447 0.14673,-0.03067 0.29178,-0.08778 0.44132,-0.07751 0.10576,0.0073 0.20722,0.04897 0.29456,0.109035 0.0873,0.06007 0.1609,0.138168 0.22479,0.222726 0.12782,0.169119 0.21844,0.363765 0.34571,0.5333 0.24529,0.326744 0.61425,0.543057 0.86508,0.865581 0.19881,0.255667 0.31324,0.564867 0.42682,0.868164 0.11362,0.303298 0.23257,0.611781 0.43823,0.861963 0.12989,0.15799 0.29057,0.287668 0.44599,0.420647 0.15539,0.132977 0.3089,0.272445 0.4196,0.444416 0.11964,0.185875 0.18425,0.403524 0.20875,0.623218 0.0246,0.219694 0.0101,0.442013 -0.0206,0.660942 -0.0612,0.437862 -0.1855,0.869442 -0.1881,1.311548 -0.003,0.459811 0.127,0.911024 0.2992,1.337387 0.17219,0.426362 0.38724,0.834096 0.56586,1.257805 0.35441,0.840645 0.56248,1.735058 0.86506,2.595705 0.2147,0.610648 0.48013,1.209739 0.86508,1.730129 0.46958,0.634799 1.10979,1.136875 1.82364,1.474327 0.71387,0.337453 1.49987,0.512982 2.28875,0.546219 1.57782,0.06648 3.13727,-0.428646 4.53927,-1.155485 1.85796,-0.963216 3.54796,-2.355737 5.59758,-2.778641 1.02481,-0.21145 2.13122,-0.155485 3.06287,0.32091 0.46582,0.238199 0.88177,0.579372 1.18803,1.003557 0.30628,0.424188 0.50049,0.932008 0.53329,1.454174 0.0183,0.287872 0,0.576625 0,0.865065 v 3.460769 c 0,0.144357 -0.004,0.288819 -0.01,0.433049 -0.006,0.144232 -0.0124,0.289372 0.01,0.432017 0.05,0.321656 0.24398,0.600249 0.43254,0.865579 0.1886,0.265329 0.38254,0.543404 0.43255,0.865063 0.0222,0.142642 0.0159,0.287785 0.01,0.432017 -0.006,0.14423 -0.01,0.28869 -0.01,0.433046 v 0.865066 c 0,2.903551 -0.41352,5.783437 -0.86509,8.651663 -0.13988,0.88861 -0.26191,1.79581 -0.6418,2.61121 -0.18994,0.4077 -0.4446,0.78894 -0.77464,1.09451 -0.33004,0.30556 -0.73787,0.53352 -1.17925,0.62011 -0.28467,0.0559 -0.57978,0.0526 -0.86506,0 -0.56443,-0.10409 -1.08077,-0.39811 -1.51929,-0.76843 -0.43852,-0.37031 -0.80581,-0.81647 -1.16064,-1.26762 -0.35484,-0.45115 -0.70099,-0.91146 -1.10432,-1.31981 -0.40336,-0.40836 -0.87008,-0.76618 -1.40663,-0.96997 -0.52994,-0.20128 -1.11059,-0.24677 -1.63351,-0.46561 -0.26147,-0.10941 -0.50869,-0.26454 -0.69091,-0.48162 -0.18225,-0.21708 -0.29461,-0.500982 -0.27077,-0.783409 0.0124,-0.148352 0.0611,-0.29083 0.0822,-0.438216 0.0106,-0.07369 0.014,-0.14918 0.003,-0.222727 -0.0114,-0.07355 -0.0386,-0.145714 -0.0847,-0.20412 -0.0486,-0.06154 -0.11742,-0.105728 -0.19174,-0.130744 -0.0743,-0.025 -0.15396,-0.03136 -0.23201,-0.02376 -0.15611,0.01519 -0.30219,0.08312 -0.44186,0.154512 -1.14451,0.58507 -2.11706,1.459164 -3.23596,2.091854 -0.55946,0.31635 -1.15975,0.57295 -1.79266,0.68472 -0.63291,0.11176 -1.30183,0.0727 -1.89238,-0.18087 -0.14554,-0.0625 -0.28855,-0.13864 -0.44545,-0.1602 -0.0785,-0.0108 -0.15967,-0.007 -0.23463,0.0186 -0.0749,0.0256 -0.14327,0.0743 -0.185,0.14159 -0.0385,0.0622 -0.0532,0.13666 -0.0548,0.20981 -0.003,0.0731 0.009,0.14571 0.0196,0.21807 0.0217,0.14472 0.0351,0.29086 0.0351,0.43718 v 0.86507 7.7866 5.1909 0.86506 c 0,0.14437 -0.004,0.28882 -0.0103,0.43305 -0.006,0.14423 -0.013,0.28952 0.0103,0.43202 0.0524,0.32188 0.25516,0.596 0.44749,0.85937 0.0962,0.13169 0.19166,0.26478 0.2682,0.40876 0.0765,0.14399 0.13386,0.30018 0.14936,0.46251 0.0138,0.14421 -0.006,0.28879 -0.019,0.43305 -0.0132,0.14426 -0.0196,0.29244 0.019,0.43201 0.0472,0.16992 0.15859,0.31496 0.28369,0.43925 0.12512,0.12429 0.26575,0.23211 0.39118,0.35605 0.12547,0.12395 0.23771,0.2687 0.28631,0.43822 0.0243,0.0848 0.032,0.17457 0.0172,0.26148 -0.0148,0.0869 -0.0532,0.17048 -0.11319,0.23513 -0.0529,0.057 -0.12187,0.0983 -0.19585,0.12247 -0.074,0.0241 -0.15287,0.0316 -0.23047,0.0258 -0.15518,-0.0115 -0.30203,-0.074 -0.43874,-0.14831 -0.54054,-0.29391 -0.95123,-0.77525 -1.33429,-1.25677 -0.38304,-0.48152 -0.75943,-0.98186 -1.2609,-1.33842 -0.52631,-0.37426 -1.15808,-0.56681 -1.73064,-0.86558 -1.0986,-0.57327 -1.95858,-1.53202 -2.59519,-2.59519 -0.1079,-0.18022 -0.21095,-0.36513 -0.34777,-0.52452 -0.13681,-0.15938 -0.31303,-0.29374 -0.51779,-0.34055 -0.14091,-0.0322 -0.28723,-0.0232 -0.43151,-0.0145 -0.14427,0.009 -0.28903,0.0145 -0.43357,0.0145 h -0.86505 c -0.48165,0 -0.96817,-0.0117 -1.43971,0.0863 -0.23577,0.049 -0.46738,0.12849 -0.6718,0.2558 -0.20442,0.12732 -0.3809,0.30519 -0.48369,0.52297 -0.12192,0.25833 -0.13303,0.56114 -0.0594,0.83716 0.0736,0.27601 0.22736,0.52629 0.41807,0.73897 0.3814,0.42536 0.89763,0.69987 1.3715,1.01906 1.55154,1.04514 2.69568,2.61869 3.46077,4.32583 0.37357,0.83358 0.66379,1.7047 0.86506,2.59571 0.91932,0.32028 1.74519,0.90431 2.35333,1.6645 0.60815,0.76019 0.99677,1.69413 1.10742,2.66133 0.0329,0.28732 0.0417,0.57889 0,0.86507 -0.0212,0.14534 -0.0555,0.28871 -0.0672,0.43511 -0.0116,0.14641 0,0.29903 0.0672,0.42995 0.047,0.0925 0.11901,0.17052 0.19896,0.23668 0.0799,0.0662 0.16823,0.12153 0.25477,0.1788 0.0865,0.0573 0.17222,0.11665 0.24599,0.18965 0.0738,0.073 0.13544,0.16057 0.16536,0.25993 0.042,0.13941 0.0183,0.2892 -0.004,0.43305 -0.0225,0.14386 -0.0426,0.29415 0.004,0.43202 0.0334,0.0985 0.0991,0.1834 0.17621,0.25321 0.0771,0.0698 0.16574,0.12588 0.25374,0.18139 0.088,0.0555 0.17637,0.11136 0.25424,0.18035 0.0779,0.069 0.14536,0.15285 0.18087,0.25063 0.0495,0.13632 0.0353,0.28607 0.0217,0.43046 -0.0135,0.1444 -0.0217,0.28957 -0.0217,0.4346 v 0.86507 c 0,0.57724 -0.0757,1.15786 0,1.73012 0.10326,0.78098 0.56705,1.45877 0.9834,2.12752 0.20817,0.33438 0.40852,0.67629 0.55139,1.04335 0.14288,0.36706 0.22683,0.76234 0.19534,1.15497 -0.0116,0.14531 -0.0389,0.28921 -0.0496,0.4346 -0.0106,0.14538 -0.004,0.29496 0.0496,0.43046 0.076,0.19152 0.23741,0.3353 0.40151,0.45992 0.16412,0.12462 0.33948,0.24114 0.46355,0.40566 0.18065,0.23957 0.23135,0.5563 0.20566,0.85524 -0.0257,0.29895 -0.1206,0.58715 -0.20566,0.87489 -0.0422,0.14261 -0.0821,0.28721 -0.0915,0.43563 -0.009,0.14842 0.014,0.30251 0.0915,0.42943 0.0546,0.0895 0.13404,0.16198 0.2191,0.22324 0.0851,0.0613 0.17695,0.11252 0.26561,0.16847 0.0887,0.0559 0.17489,0.11735 0.24496,0.19533 0.0701,0.078 0.12348,0.17392 0.13591,0.27802 0.009,0.0754 -0.004,0.15182 -0.0233,0.22531 -0.0193,0.0735 -0.0449,0.14547 -0.0636,0.21911 -0.0188,0.0736 -0.0299,0.15011 -0.019,0.22531 0.0109,0.0752 0.0457,0.14907 0.10594,0.19534 0.0595,0.0457 0.13803,0.0605 0.21288,0.0558 0.0749,-0.005 0.14719,-0.0272 0.2186,-0.0501 0.0714,-0.0229 0.14338,-0.0466 0.21807,-0.0532 0.0747,-0.007 0.15372,0.005 0.2155,0.0475 0.0632,0.0435 0.10242,0.11596 0.11732,0.1912 0.0148,0.0752 0.007,0.15366 -0.0101,0.22841 -0.0343,0.14951 -0.10552,0.29259 -0.1075,0.44597 0,0.10783 0.0326,0.21436 0.0879,0.30696 0.0553,0.0926 0.13129,0.17151 0.21601,0.23822 0.16946,0.13344 0.3711,0.21802 0.5612,0.31988 0.95441,0.51135 1.62521,1.51753 1.73014,2.59519 -0.0885,0.12562 -0.13695,0.27888 -0.13695,0.43253 0,0.15366 0.0485,0.30743 0.13695,0.43305 0.11919,0.16921 0.30107,0.28036 0.46921,0.40101 0.0841,0.0603 0.16637,0.12458 0.2367,0.20051 0.0703,0.0759 0.12861,0.16467 0.15915,0.26355 0.0428,0.13836 0.0308,0.28664 0.019,0.43098 -0.0116,0.14434 -0.019,0.28926 -0.019,0.43408 v 0.86506 c 0,0.57929 -0.0289,1.15793 -0.076,1.7353 -0.0471,0.57737 -0.0961,1.17232 0.076,1.72547 0.1919,0.61706 0.6501,1.12091 0.86558,1.73013 0.20254,0.57262 0.17769,1.1964 0.22479,1.80196 0.0236,0.30278 0.0658,0.60587 0.1633,0.89348 0.0975,0.28761 0.25289,0.56034 0.47696,0.76533 0.15338,0.1403 0.33494,0.24597 0.49819,0.37465 0.16322,0.12869 0.31321,0.2896 0.3669,0.49041 0.0374,0.13976 0.0267,0.2872 0.0164,0.4315 -0.0103,0.14431 -0.0164,0.2889 -0.0164,0.43357 v 1.73064 c 0,0.14846 0.019,0.29603 0.0496,0.44132 0.0151,0.0726 0.0299,0.14595 0.0274,0.22014 0,0.0371 -0.007,0.0746 -0.019,0.10955 -0.0122,0.035 -0.0316,0.0678 -0.0579,0.094 -0.0262,0.0263 -0.059,0.045 -0.094,0.0574 -0.035,0.0123 -0.0719,0.0184 -0.10903,0.0196 -0.0742,0.002 -0.14801,-0.0121 -0.22066,-0.0274 -0.14531,-0.0305 -0.29287,-0.0496 -0.44133,-0.0496 h -1.73064 -8.65116 -0.86505 c -0.14801,0 -0.29562,0.0181 -0.4408,0.047 -0.0726,0.0145 -0.14618,0.0282 -0.22013,0.0258 -0.074,-0.002 -0.15021,-0.0227 -0.20466,-0.0729 -0.0277,-0.0255 -0.0485,-0.058 -0.0625,-0.093 -0.014,-0.035 -0.0209,-0.0725 -0.0228,-0.11007 -0.003,-0.0752 0.014,-0.15006 0.0357,-0.22221 0.0217,-0.0722 0.0476,-0.14301 0.0615,-0.21704 0.014,-0.074 0.0148,-0.1523 -0.0119,-0.22273 -0.0274,-0.0721 -0.0828,-0.1321 -0.14935,-0.17105 -0.0666,-0.0389 -0.14367,-0.0581 -0.22064,-0.063 -0.15396,-0.01 -0.30559,0.0347 -0.4527,0.0811 -0.14711,0.0465 -0.29456,0.0945 -0.44649,0.12144 -0.15189,0.0269 -0.30667,0.0315 -0.46095,0.0315 h -0.86506 c -0.14846,0 -0.29601,-0.0191 -0.44132,-0.0496 -0.0726,-0.0152 -0.14645,-0.0299 -0.22067,-0.0274 -0.0371,0.001 -0.074,0.007 -0.109,0.0191 -0.035,0.0123 -0.0678,0.0316 -0.0941,0.0579 -0.0262,0.0262 -0.0455,0.0591 -0.0579,0.0941 -0.0124,0.035 -0.018,0.072 -0.019,0.10904 -0.003,0.0742 0.0122,0.14802 0.0274,0.22066 0.0305,0.1453 0.0496,0.29286 0.0496,0.44131 v 5.1909 0.86507 c 0,0.14847 0.019,0.29602 0.0496,0.44131 0.0151,0.0726 0.0299,0.14647 0.0274,0.22066 0,0.0371 -0.007,0.074 -0.0196,0.10904 -0.0124,0.035 -0.0311,0.0678 -0.0574,0.094 -0.0262,0.0262 -0.0596,0.0455 -0.0946,0.0579 -0.035,0.0123 -0.072,0.0179 -0.10906,0.0191 -0.0742,0.002 -0.14748,-0.0121 -0.22014,-0.0274 -0.14528,-0.0305 -0.29337,-0.0496 -0.44182,-0.0496 h -2.5952 c -1.44266,0 -2.89075,-0.14775 -4.32583,0 -1.50304,0.15474 -2.92478,0.73395 -4.32377,1.30483 -1.39898,0.57088 -2.82387,1.14607 -4.32789,1.29088 -0.34523,0.0332 -0.69821,0.0443 -1.02476,0.16123 -0.16325,0.0584 -0.31845,0.14388 -0.44492,0.26251 -0.1265,0.11864 -0.22305,0.27199 -0.26046,0.44132 -0.0312,0.14112 -0.0225,0.28774 -0.014,0.43201 0.008,0.14428 0.014,0.28853 0.014,0.43305 v 0.86507 0.86506 c 0,0.86516 0,1.73055 0,2.59571 0,3.17967 0,6.43801 1.09866,9.42216 0.5489,1.49207 1.37528,2.89708 2.51404,4.00648 1.13877,1.10939 2.60062,1.91168 4.17338,2.14405 0.58415,0.0863 1.19314,0.0983 1.73117,0.34158 0.26903,0.12166 0.51612,0.30346 0.68265,0.54726 0.16653,0.24379 0.24617,0.55313 0.1819,0.84129 -0.0337,0.15129 -0.10506,0.29327 -0.13176,0.44596 -0.0135,0.0763 -0.0154,0.1556 0.005,0.23048 0.0201,0.0749 0.0633,0.14521 0.1271,0.18914 0.0604,0.0416 0.13544,0.0572 0.20878,0.0589 0.0733,0.002 0.14619,-0.009 0.2186,-0.0212 0.14481,-0.0235 0.29099,-0.0377 0.43768,-0.0377 h 0.86508 c 0.14822,0 0.29607,-0.0189 0.4413,-0.0486 0.0726,-0.0148 0.14607,-0.0288 0.22016,-0.0263 0.037,0.001 0.074,0.007 0.10903,0.0186 0.0351,0.012 0.0683,0.0307 0.0951,0.0563 0.0272,0.0261 0.047,0.0587 0.0599,0.094 0.013,0.0354 0.019,0.0734 0.0196,0.1111 0,0.0754 -0.0191,0.14938 -0.0419,0.22118 -0.023,0.0718 -0.0493,0.14317 -0.0615,0.21756 -0.0122,0.0744 -0.009,0.15344 0.0238,0.22117 0.0352,0.0721 0.10276,0.12545 0.17827,0.15245 0.0755,0.027 0.15807,0.0291 0.2372,0.016 0.15828,-0.0261 0.30044,-0.10946 0.44958,-0.16847 0.34417,-0.13619 0.7447,-0.13809 1.07953,0.0196 0.16743,0.0789 0.31716,0.19617 0.43098,0.3421 0.11382,0.14593 0.19116,0.32046 0.21963,0.50332 0.0222,0.14264 0.0159,0.28779 0.01,0.43202 -0.006,0.14423 -0.01,0.28869 -0.01,0.43305 v 0.86506 1.73065 c 0,0.43331 -0.0135,0.86639 -0.0357,1.29914 -0.022,0.43275 -0.0456,0.87041 0.0357,1.29605 0.0859,0.45 0.28914,0.86763 0.47646,1.28571 0.18733,0.41807 0.36288,0.85259 0.38859,1.30999 0.0246,0.43966 -0.0906,0.8732 -0.15398,1.30897 -0.0317,0.21788 -0.0503,0.43894 -0.032,0.65835 0.0183,0.21942 0.0748,0.43786 0.18603,0.62787 0.10348,0.17675 0.25069,0.32381 0.40463,0.45889 0.15393,0.13508 0.31646,0.26052 0.46042,0.40618 0.32864,0.33246 0.55044,0.76106 0.68162,1.20974 0.13118,0.44868 0.17571,0.91857 0.18397,1.38596 0.005,0.28835 0,0.57668 0,0.86507 v 0.86506 2.59571 7.7866 c 0,0.14897 0.0198,0.29691 0.0522,0.44235 0.0161,0.0727 0.0316,0.14622 0.0289,0.22066 0,0.0372 -0.008,0.0747 -0.0206,0.10956 -0.013,0.0349 -0.033,0.0674 -0.0605,0.0925 -0.0282,0.0257 -0.0637,0.0428 -0.10078,0.0522 -0.037,0.009 -0.0757,0.0111 -0.11369,0.007 -0.076,-0.008 -0.14801,-0.0366 -0.21911,-0.0646 -0.0711,-0.028 -0.14398,-0.0555 -0.22016,-0.0615 -0.0381,-0.003 -0.0765,-7.9e-4 -0.11316,0.01 -0.0367,0.0106 -0.0717,0.0298 -0.0987,0.0568 -0.027,0.027 -0.0457,0.0615 -0.0563,0.0982 -0.0106,0.0367 -0.0135,0.0756 -0.0103,0.11369 0.006,0.0762 0.034,0.14852 0.062,0.21962 0.028,0.0711 0.0568,0.14312 0.0646,0.21911 0.004,0.038 0.003,0.0767 -0.007,0.11369 -0.009,0.037 -0.027,0.0725 -0.0527,0.10077 -0.0251,0.0275 -0.0571,0.0479 -0.092,0.061 -0.0349,0.0131 -0.0723,0.0188 -0.10957,0.0202 -0.0744,0.003 -0.14845,-0.0123 -0.22116,-0.0284 -0.14544,-0.0323 -0.29337,-0.0527 -0.44236,-0.0527 h -2.59519 c -0.14462,0 -0.28927,-0.006 -0.43355,-0.016 -0.1443,-0.01 -0.29138,-0.0198 -0.43151,0.016 -0.20187,0.0516 -0.36763,0.19713 -0.49868,0.35915 -0.13102,0.16202 -0.23569,0.34404 -0.3669,0.50591 -0.25979,0.32051 -0.61272,0.54889 -0.94051,0.79944 -0.3278,0.25054 -0.64641,0.54376 -0.78963,0.93069 -0.12123,0.32754 -0.10453,0.68976 -0.18809,1.02888 -0.0418,0.16956 -0.11065,0.33603 -0.22479,0.46819 -0.11417,0.13215 -0.27765,0.22731 -0.45217,0.23357 -0.15021,0.005 -0.29459,-0.0535 -0.44183,-0.0837 -0.0736,-0.0151 -0.14938,-0.0227 -0.22376,-0.0119 -0.0744,0.0108 -0.14721,0.0416 -0.19947,0.0956 -0.052,0.0538 -0.0804,0.12725 -0.0894,0.20154 -0.009,0.0743 -5e-5,0.14953 0.0156,0.22273 0.0311,0.14639 0.0877,0.29178 0.0739,0.4408 -0.0101,0.10495 -0.0547,0.20459 -0.11732,0.28939 -0.0626,0.0848 -0.14218,0.15548 -0.22738,0.21755 -0.17034,0.12414 -0.36446,0.21682 -0.52089,0.35812 -0.15348,0.13864 -0.26347,0.31722 -0.38965,0.48111 -0.12615,0.16389 -0.27863,0.32023 -0.4754,0.38395 -0.13803,0.0447 -0.28657,0.0402 -0.43098,0.0264 -0.14444,-0.0138 -0.28938,-0.0366 -0.4341,-0.0264 -0.16256,0.0115 -0.32025,0.0643 -0.46612,0.13695 -0.14586,0.0727 -0.28072,0.16529 -0.41341,0.25993 -0.26535,0.18927 -0.53327,0.39366 -0.85058,0.46819 -0.28205,0.0662 -0.57629,0.0231 -0.86506,0 -1.77305,-0.14162 -3.52711,0.49542 -5.07362,1.37407 -1.54649,0.87866 -2.94063,1.99982 -4.44312,2.95176 -0.51978,0.32932 -1.05831,0.64101 -1.64537,0.82527 -0.58708,0.18427 -1.23158,0.2346 -1.81541,0.0403 -0.14616,-0.0486 -0.289,-0.11295 -0.44183,-0.13229 -0.0764,-0.01 -0.1552,-0.008 -0.22944,0.0129 -0.0742,0.0205 -0.14381,0.0608 -0.19378,0.11937 -0.0484,0.0568 -0.0769,0.12883 -0.0884,0.20257 -0.0114,0.0738 -0.007,0.14902 0.005,0.22273 0.0233,0.14742 0.0747,0.29075 0.0832,0.43977 0.0122,0.21334 -0.0665,0.42506 -0.19069,0.59893 -0.12422,0.17386 -0.29196,0.31266 -0.47024,0.43046 -0.35658,0.2356 -0.76692,0.39913 -1.06971,0.70073 -0.23008,0.2292 -0.3828,0.52423 -0.50591,0.82476 -0.12311,0.30053 -0.22042,0.61172 -0.35914,0.90537 -0.27642,0.58509 -0.71692,1.10074 -0.86506,1.73064 -0.08,0.34037 -0.0701,0.69874 -0.16745,1.03457 -0.0487,0.16791 -0.12536,0.32991 -0.2434,0.45888 -0.11803,0.12897 -0.27998,0.22241 -0.45423,0.23668 -0.14695,0.012 -0.29178,-0.0309 -0.43717,-0.0553 -0.0727,-0.0122 -0.14671,-0.0199 -0.22016,-0.0134 -0.0734,0.006 -0.14666,0.0274 -0.20773,0.0687 -0.0662,0.0448 -0.1161,0.11241 -0.1447,0.18707 -0.0286,0.0747 -0.0369,0.15605 -0.0295,0.23565 0.0148,0.15921 0.09,0.30639 0.17415,0.44234 0.45037,0.72742 1.18827,1.23276 1.95905,1.60404 0.77082,0.37128 1.59171,0.62944 2.36681,0.99167 0.71014,0.3319 1.37697,0.74929 2.081,1.09399 0.70403,0.34471 1.4606,0.61903 2.2443,0.63614 0.49908,0.0109 1.00198,-0.0829 1.49551,-0.008 0.24677,0.0375 0.49037,0.1191 0.69246,0.26561 0.20209,0.14652 0.35994,0.36221 0.40773,0.6072 0.0277,0.14192 0.0183,0.28841 0.007,0.43253 -0.0116,0.14413 -0.0254,0.28967 -0.007,0.43305 0.035,0.26907 0.18322,0.51241 0.36692,0.7121 0.18367,0.1997 0.40291,0.36181 0.61442,0.53175 0.21153,0.16994 0.41917,0.35185 0.56792,0.57878 0.0744,0.11346 0.13346,0.23802 0.16693,0.36949 0.0335,0.13147 0.0406,0.27005 0.014,0.40307 -0.0306,0.15255 -0.10451,0.29412 -0.13332,0.447 -0.0143,0.0764 -0.0172,0.15586 0.003,0.231 0.0201,0.0751 0.0645,0.14541 0.13023,0.18707 0.0629,0.0399 0.14068,0.0515 0.21497,0.046 0.0743,-0.006 0.14655,-0.0267 0.2181,-0.0475 0.0715,-0.0209 0.14372,-0.0422 0.21807,-0.047 0.0743,-0.005 0.15221,0.008 0.21444,0.0486 0.0646,0.0426 0.10732,0.11351 0.1261,0.18861 0.0188,0.0751 0.0148,0.15452 0,0.23048 -0.0298,0.15193 -0.10215,0.29302 -0.1261,0.44597 -0.0335,0.21387 0.0328,0.43564 0.15245,0.61601 0.1197,0.18034 0.28946,0.32281 0.47128,0.44026 0.36364,0.23493 0.78692,0.38222 1.10641,0.67437 0.15134,0.13843 0.27371,0.30446 0.40566,0.46149 0.13194,0.15703 0.27765,0.3085 0.45939,0.4036 0.1547,0.0809 0.32877,0.1176 0.50179,0.14107 0.17298,0.0236 0.34776,0.0349 0.51882,0.0698 0.17108,0.0349 0.34078,0.0948 0.47646,0.20463 0.0678,0.0549 0.12644,0.12215 0.16796,0.19896 0.0415,0.0768 0.0654,0.16333 0.0651,0.25062 0,0.15406 -0.0741,0.2972 -0.11006,0.44701 -0.018,0.0749 -0.0267,0.15343 -0.0114,0.22892 0.0154,0.0755 0.0564,0.14785 0.12144,0.18915 0.0641,0.0407 0.1451,0.0479 0.22014,0.0367 0.0751,-0.0111 0.14607,-0.0391 0.21756,-0.0646 0.0715,-0.0254 0.14531,-0.0488 0.22117,-0.0501 0.0379,0 0.0759,0.004 0.11163,0.0172 0.0358,0.0127 0.0694,0.033 0.0951,0.061 0.0257,0.0281 0.043,0.0634 0.0527,0.10027 0.0101,0.0369 0.0116,0.0752 0.008,0.11317 -0.007,0.0759 -0.0342,0.14848 -0.0615,0.21963 -0.0273,0.0711 -0.0548,0.14319 -0.0615,0.2191 -0.003,0.0379 -0.003,0.0769 0.008,0.11369 0.0101,0.0368 0.0279,0.0718 0.0537,0.0997 0.0254,0.0273 0.0576,0.047 0.0925,0.06 0.0349,0.013 0.0723,0.0193 0.10956,0.0206 0.0744,0.003 0.14795,-0.013 0.22066,-0.0289 0.14542,-0.0319 0.29348,-0.0517 0.44236,-0.0517 h 1.73011 6.92155 3.46025 c 0.2884,0 0.57669,0 0.86508,0 1.46344,0.007 2.92709,0.11266 4.38939,0.0537 1.46227,-0.0589 2.94097,-0.29009 4.26225,-0.91932 0.14279,-0.068 0.28691,-0.14129 0.44392,-0.16018 0.0785,-0.009 0.15988,-0.005 0.2346,0.0212 0.0747,0.0259 0.14251,0.0733 0.18656,0.13901 0.041,0.0612 0.0601,0.13568 0.0636,0.20929 0.003,0.0736 -0.008,0.14684 -0.0222,0.2191 -0.0145,0.0723 -0.0324,0.14412 -0.0429,0.21704 -0.0106,0.0729 -0.0138,0.14806 0.003,0.22016 0.0217,0.10191 0.0795,0.1933 0.1514,0.26871 0.0719,0.0754 0.158,0.1361 0.24548,0.19274 0.0874,0.0567 0.177,0.10989 0.25942,0.17365 0.0824,0.0638 0.15835,0.13904 0.20929,0.22995 0.0722,0.12893 0.0904,0.28202 0.0801,0.42945 -0.0103,0.14739 -0.0475,0.29149 -0.0801,0.43561 -0.12896,0.56975 -0.18606,1.17639 0,1.73013 0.10297,0.30652 0.27588,0.58362 0.44389,0.8599 0.16801,0.27628 0.33427,0.55927 0.42116,0.87074 0.0786,0.28173 0.0887,0.58635 0,0.86506 -0.0476,0.1497 -0.12311,0.29144 -0.14833,0.44651 -0.0127,0.0775 -0.0122,0.15801 0.0109,0.23304 0.0233,0.0751 0.0706,0.14431 0.13748,0.18553 0.0631,0.0389 0.13991,0.0513 0.21394,0.0475 0.074,-0.004 0.14595,-0.0228 0.21754,-0.0419 0.0716,-0.019 0.14367,-0.0387 0.21757,-0.0444 0.0739,-0.006 0.15092,0.003 0.21601,0.0388 0.0703,0.0383 0.12231,0.10565 0.14986,0.18087 0.0275,0.0752 0.0319,0.15787 0.0206,0.2372 -0.0225,0.15859 -0.10308,0.3017 -0.17055,0.44698 -0.38216,0.82288 -0.36041,1.78562 -0.13901,2.66547 0.2214,0.87987 0.62854,1.6995 1.00409,2.52545 2.15734,4.74485 3.34251,9.92923 3.46075,15.14014 H 521.25637 V -9.7859659 Z M -27.871685,-5.8115316 V 291.86746 H 118.43618 c -1.68609,-1.80811 -2.59159,-4.3207 -2.44688,-6.78873 0.012,-0.204 0.0307,-0.40931 0,-0.61135 -0.0345,-0.22715 -0.13046,-0.44106 -0.24494,-0.64027 -0.11449,-0.1992 -0.2482,-0.38668 -0.36691,-0.58343 -0.44114,-0.73112 -0.66793,-1.5948 -0.61184,-2.44687 0.0134,-0.20423 0.0425,-0.41163 0,-0.61184 -0.039,-0.18384 -0.13697,-0.35103 -0.2558,-0.49663 -0.11884,-0.14557 -0.25894,-0.27225 -0.39584,-0.401 -0.13691,-0.12875 -0.2721,-0.2613 -0.37879,-0.41598 -0.1067,-0.1547 -0.18433,-0.33422 -0.19327,-0.52194 -0.005,-0.10245 0.0107,-0.20429 0.0196,-0.30644 0.009,-0.10216 0.011,-0.20754 -0.0196,-0.30541 -0.0437,-0.13986 -0.14957,-0.2512 -0.26407,-0.34261 -0.1145,-0.0914 -0.24118,-0.16822 -0.34778,-0.26871 -0.13716,-0.12933 -0.23691,-0.29358 -0.31626,-0.46458 -0.0793,-0.171 -0.13962,-0.35018 -0.20877,-0.52554 -0.0692,-0.1754 -0.14813,-0.34883 -0.26045,-0.50025 -0.11233,-0.1514 -0.26051,-0.28086 -0.4377,-0.3452 -0.19495,-0.0708 -0.41289,-0.0585 -0.61185,0 -0.10372,0.0305 -0.20487,0.0733 -0.31213,0.0868 -0.0536,0.007 -0.10834,0.006 -0.16071,-0.007 -0.0524,-0.0135 -0.10229,-0.0399 -0.13901,-0.0796 -0.0361,-0.039 -0.0585,-0.0894 -0.0687,-0.14157 -0.0103,-0.0522 -0.009,-0.106 -0.002,-0.15867 0.0149,-0.10534 0.0536,-0.20651 0.0703,-0.3116 0.0257,-0.16201 -0.002,-0.3288 -0.0558,-0.48369 -0.054,-0.15489 -0.13391,-0.2993 -0.21601,-0.44132 -0.0821,-0.14203 -0.16695,-0.28298 -0.23202,-0.43358 -0.0651,-0.15057 -0.11016,-0.31242 -0.10801,-0.47643 10e-4,-0.103 0.0215,-0.20492 0.031,-0.30747 0.01,-0.10258 0.008,-0.20905 -0.031,-0.30438 -0.0276,-0.0676 -0.0727,-0.1269 -0.12505,-0.17777 -0.0523,-0.0509 -0.11198,-0.0938 -0.17157,-0.13592 -0.11917,-0.0843 -0.2452,-0.1701 -0.31523,-0.29819 -0.0499,-0.0913 -0.067,-0.19727 -0.0646,-0.30125 0.002,-0.10398 0.024,-0.20698 0.0465,-0.30851 0.0226,-0.10154 0.0465,-0.2028 0.0553,-0.30644 0.009,-0.10363 0.001,-0.21031 -0.0372,-0.30697 -0.0539,-0.13536 -0.16361,-0.2405 -0.27802,-0.33072 -0.1144,-0.0902 -0.23749,-0.17138 -0.33331,-0.28112 -0.15135,-0.17336 -0.22139,-0.40125 -0.29249,-0.62011 -0.0711,-0.21889 -0.15273,-0.44487 -0.31936,-0.60359 -0.10759,-0.1025 -0.24364,-0.16942 -0.3638,-0.25683 -0.0601,-0.0437 -0.11682,-0.0933 -0.16175,-0.15246 -0.0449,-0.0592 -0.0776,-0.12877 -0.0863,-0.20256 -0.0124,-0.10433 0.0232,-0.20706 0.0439,-0.31007 0.0104,-0.0515 0.0175,-0.10427 0.0124,-0.15658 -0.005,-0.0523 -0.0228,-0.1048 -0.0563,-0.1452 -0.0346,-0.0416 -0.0848,-0.0687 -0.13746,-0.0811 -0.0526,-0.0124 -0.10784,-0.0106 -0.16123,-0.003 -0.10678,0.0172 -0.207,0.0624 -0.31316,0.0832 -0.11643,0.0227 -0.23751,0.0156 -0.35243,-0.014 -0.11492,-0.0295 -0.22368,-0.0806 -0.32453,-0.14314 -0.2017,-0.12499 -0.37088,-0.29438 -0.54622,-0.45424 -0.54539,-0.49728 -1.16677,-0.91151 -1.83554,-1.2237 0.0699,-0.014 0.13467,-0.0533 0.17983,-0.10853 0.0452,-0.0552 0.0703,-0.12607 0.0703,-0.1974 0,-0.0713 -0.0251,-0.14219 -0.0703,-0.19738 -0.0452,-0.0552 -0.10993,-0.0944 -0.17983,-0.10854 -0.0511,-0.0103 -0.10397,-0.007 -0.15555,0 -0.0516,0.008 -0.10234,0.0206 -0.15348,0.031 -0.0511,0.0103 -0.10344,0.0177 -0.15555,0.0151 -0.0521,-0.003 -0.1045,-0.0167 -0.14727,-0.0465 -0.0455,-0.0318 -0.078,-0.08 -0.0951,-0.13279 -0.0171,-0.0528 -0.019,-0.10983 -0.0119,-0.16487 0.0143,-0.11004 0.0646,-0.21163 0.10697,-0.31418 0.26378,-0.63792 0.20736,-1.39916 -0.1478,-1.99109 -0.35516,-0.59194 -1.00023,-1.00019 -1.68723,-1.06764 0.0558,-0.0288 0.10321,-0.073 0.1359,-0.12661 0.0327,-0.0536 0.0507,-0.11651 0.0507,-0.17931 0,-0.0628 -0.0179,-0.12518 -0.0507,-0.1788 -0.0327,-0.0536 -0.0801,-0.0984 -0.1359,-0.12713 -0.0535,-0.0275 -0.11399,-0.0405 -0.17415,-0.0408 -0.0602,-2.6e-4 -0.12032,0.0121 -0.17674,0.0331 -0.11283,0.0418 -0.20999,0.11707 -0.29817,0.19895 -0.0882,0.0819 -0.16927,0.17115 -0.26097,0.24909 -0.0917,0.0779 -0.19632,0.14494 -0.31367,0.17156 -0.09967,0.0226 -0.203392,0.0165 -0.30541,0.0103 -0.102016,-0.006 -0.204238,-0.0103 -0.306441,-0.0103 H 98.85957 96.41269 c -0.102542,0 -0.204859,-0.006 -0.306956,-0.0155 -0.1021,-0.01 -0.208402,-0.0192 -0.304893,0.0155 -0.06917,0.0249 -0.128159,0.0724 -0.177249,0.12713 -0.04909,0.0547 -0.08922,0.11678 -0.128675,0.1788 -0.03945,0.062 -0.07907,0.1246 -0.128156,0.17931 -0.04909,0.0547 -0.108085,0.10173 -0.17725,0.12661 -0.09649,0.0347 -0.202793,0.025 -0.304893,0.0155 -0.1021,-0.01 -0.204414,-0.0155 -0.306956,-0.0155 h -2.447396 c -0.103354,0 -0.206206,0.009 -0.308509,0.0238 -0.05115,0.007 -0.102846,0.0145 -0.154512,0.0134 -0.05167,-10e-4 -0.103827,-0.0109 -0.148312,-0.0372 -0.04876,-0.0288 -0.08552,-0.0762 -0.10542,-0.12919 -0.0199,-0.053 -0.02389,-0.11121 -0.01704,-0.16743 0.01368,-0.11245 0.06946,-0.21513 0.122476,-0.31523 0.303959,-0.57398 0.561679,-1.18743 0.61133,-1.83503 0.03119,-0.40676 0,-0.81575 0,-1.2237 v -2.44688 -6.11745 -4.28243 c 0,-0.39 0.01236,-0.78195 0.0894,-1.16427 0.07704,-0.38231 0.214919,-0.74917 0.34675,-1.11621 0.131831,-0.36704 0.257752,-0.75026 0.225825,-1.13895 -0.01596,-0.19434 -0.07445,-0.38755 -0.187069,-0.54673 -0.11262,-0.15919 -0.282966,-0.28186 -0.474906,-0.31626 -0.10051,-0.018 -0.203411,-0.0127 -0.305408,-0.008 -0.101994,0.005 -0.203811,0.008 -0.305922,0.008 h -6.117974 c -0.102473,0 -0.204877,-0.006 -0.306959,-0.0145 -0.102081,-0.009 -0.207235,-0.0182 -0.304374,0.0145 -0.06904,0.0232 -0.130029,0.0672 -0.182417,0.11782 -0.05239,0.0506 -0.09736,0.1079 -0.14211,0.16536 -0.0895,0.11493 -0.184322,0.22566 -0.287322,0.32867 l -0.611849,0.61184 c -0.20394,0.20395 -0.398115,0.4182 -0.611849,0.61185 -0.545599,0.49435 -1.238773,0.79128 -1.83503,1.22318 -0.702138,0.5086 -1.254517,1.19207 -1.835547,1.83555 -0.386747,0.42832 -0.789721,0.8422 -1.22318,1.22318 -0.286522,0.25183 -0.588311,0.4913 -0.827341,0.78858 -0.23903,0.29729 -0.413872,0.66591 -0.396357,1.04697 0.0076,0.16642 0.05111,0.32869 0.08423,0.49196 0.03312,0.16327 0.05582,0.33262 0.02119,0.49558 -0.0173,0.0815 -0.0489,0.16036 -0.09767,0.22789 -0.04877,0.0675 -0.115136,0.1235 -0.192236,0.15503 -0.0771,0.0315 -0.165097,0.0378 -0.24443,0.0124 -0.07933,-0.0254 -0.14881,-0.0837 -0.182936,-0.15968 -0.02106,-0.0469 -0.02865,-0.0984 -0.02946,-0.14986 -7.94e-4,-0.0514 0.005,-0.10291 0.01085,-0.15401 0.01164,-0.10216 0.0186,-0.20463 0.0186,-0.30747 v -0.61184 -5.50612 -1.83503 c 0,-0.1025 0.0059,-0.20488 0.01498,-0.30696 0.0091,-0.1021 0.01823,-0.20793 -0.01498,-0.30489 -0.02376,-0.0693 -0.06896,-0.12972 -0.121957,-0.18035 -0.05299,-0.0506 -0.113575,-0.0923 -0.174668,-0.13281 -0.06109,-0.0405 -0.123171,-0.0804 -0.1788,-0.12817 -0.05563,-0.0477 -0.105391,-0.10411 -0.136424,-0.17052 -0.04377,-0.0937 -0.04782,-0.20092 -0.03824,-0.30387 0.0096,-0.10293 0.03194,-0.20479 0.03824,-0.30798 0.01418,-0.23232 -0.05436,-0.46349 -0.161232,-0.67025 -0.10687,-0.20677 -0.250902,-0.39212 -0.397909,-0.57257 -0.147008,-0.18045 -0.298302,-0.35816 -0.42168,-0.55553 -0.123375,-0.19736 -0.218599,-0.41699 -0.242361,-0.64853 -0.02082,-0.20297 0,-0.40784 0,-0.61186 v -0.61133 c 0,-0.10533 0.01389,-0.21032 0.03669,-0.31315 0.0114,-0.0514 0.02257,-0.10343 0.02066,-0.15607 -0.0011,-0.0263 -0.0052,-0.0529 -0.01447,-0.0775 -0.0093,-0.0247 -0.02342,-0.0474 -0.04289,-0.0651 -0.01995,-0.0182 -0.04512,-0.0306 -0.07131,-0.0372 -0.02619,-0.007 -0.05374,-0.008 -0.08062,-0.005 -0.05375,0.006 -0.104754,0.0262 -0.15503,0.046 -0.05028,0.0198 -0.101169,0.0392 -0.15503,0.0434 -0.02693,0.002 -0.05467,2.6e-4 -0.08062,-0.007 -0.02593,-0.008 -0.05016,-0.0207 -0.06925,-0.0398 -0.0191,-0.0191 -0.0323,-0.0438 -0.03979,-0.0698 -0.0075,-0.026 -0.0094,-0.0532 -0.0072,-0.0801 0.0043,-0.0539 0.02413,-0.10527 0.04393,-0.15554 0.01982,-0.0503 0.04002,-0.10127 0.04547,-0.15503 0.0027,-0.0269 0.0016,-0.0544 -0.0052,-0.0806 -0.0067,-0.0262 -0.01894,-0.0509 -0.03721,-0.0708 -0.01818,-0.0198 -0.04178,-0.0341 -0.06718,-0.0429 -0.0254,-0.009 -0.05272,-0.0121 -0.07958,-0.0114 -0.05373,0.002 -0.105595,0.0187 -0.156065,0.0372 -0.05047,0.0185 -0.100777,0.0384 -0.153995,0.046 -0.02661,0.004 -0.0541,0.004 -0.08062,0 -0.02652,-0.004 -0.05226,-0.0137 -0.07441,-0.0289 -0.02228,-0.0153 -0.04052,-0.0364 -0.05374,-0.0599 -0.01323,-0.0236 -0.0217,-0.0498 -0.02585,-0.0765 -0.0083,-0.0534 8.2e-5,-0.10795 0.01394,-0.16019 0.01386,-0.0522 0.03356,-0.10296 0.04806,-0.15503 0.0145,-0.0521 0.02392,-0.10652 0.01757,-0.1602 -0.0072,-0.0611 -0.0354,-0.11869 -0.07545,-0.16536 -0.04004,-0.0467 -0.09138,-0.0829 -0.14728,-0.10852 -0.111794,-0.0513 -0.237836,-0.0616 -0.360698,-0.0672 -0.122865,-0.006 -0.247817,-0.007 -0.365356,-0.0434 -0.05877,-0.0181 -0.114905,-0.0447 -0.163295,-0.0827 -0.04839,-0.0379 -0.08881,-0.0876 -0.111623,-0.1447 -0.01905,-0.0477 -0.02564,-0.0996 -0.02635,-0.15089 -7.94e-4,-0.0513 0.0041,-0.10242 0.0093,-0.15348 0.01048,-0.10213 0.01704,-0.20481 0.01704,-0.30748 v -0.61133 c 0,-0.10219 -0.0033,-0.20443 -0.0093,-0.30644 -0.006,-0.10201 -0.01257,-0.20559 0.0093,-0.30541 0.03184,-0.14524 0.123891,-0.27185 0.23513,-0.37052 0.111236,-0.0987 0.241832,-0.17279 0.371552,-0.24546 0.12972,-0.0727 0.260892,-0.14541 0.37362,-0.24236 0.112729,-0.097 0.207145,-0.22115 0.243396,-0.36536 0.02495,-0.0993 0.02159,-0.20338 0.01344,-0.3054 -0.0081,-0.10203 -0.02093,-0.20437 -0.01344,-0.30644 0.01683,-0.22955 0.133109,-0.43924 0.26045,-0.63097 0.127339,-0.19173 0.270164,-0.37686 0.351399,-0.59222 0.07293,-0.19333 0.09312,-0.40385 0.08423,-0.61029 -0.0089,-0.20645 -0.04601,-0.41033 -0.08423,-0.6134 -0.03828,-0.20337 -0.07817,-0.40724 -0.08837,-0.61392 -0.01019,-0.20668 0.01035,-0.41812 0.08837,-0.60978 0.109842,-0.26986 0.325263,-0.48199 0.551905,-0.66508 0.226642,-0.18309 0.471162,-0.34634 0.671277,-0.5581 0.297987,-0.31533 0.48274,-0.72658 0.571024,-1.15135 0.08829,-0.42478 0.08447,-0.8644 0.04082,-1.29605 -0.03574,-0.35353 -0.09759,-0.71178 -0.03152,-1.06092 0.03303,-0.17457 0.09897,-0.34527 0.20774,-0.48575 0.108765,-0.14049 0.262308,-0.24931 0.435631,-0.28836 0.199565,-0.045 0.407318,0.004 0.611849,0 0.102547,-0.002 0.204118,-0.0168 0.306443,-0.0238 0.102322,-0.007 0.207209,-0.006 0.305406,0.0238 0.140954,0.0425 0.259001,0.14066 0.354502,0.2527 0.0955,0.11204 0.172008,0.23919 0.257347,0.35915 0.168021,0.23619 0.372692,0.44733 0.611333,0.61185 0.304464,0.20989 0.653325,0.34544 0.973066,0.53123 0.319741,0.1858 0.600991,0.43046 0.862481,0.69195 l 1.223182,1.2237 c 0.207243,0.20724 0.394245,0.43392 0.566888,0.67076 0.08632,0.11842 0.174117,0.23674 0.280088,0.33796 0.105971,0.10122 0.233167,0.18553 0.376722,0.21498 0.100073,0.0205 0.203401,0.0144 0.305406,0.009 0.102007,-0.006 0.204282,-0.009 0.306443,-0.009 h 0.611849 c 0.203922,0 0.407987,0.005 0.611849,0 0.845703,-0.0212 1.669904,-0.27722 2.446877,-0.61185 1.357977,-0.58487 2.608403,-1.41883 3.670578,-2.4474 1.326158,-0.81908 2.774706,-1.43959 4.282427,-1.83503 0.536924,-0.14082 1.081865,-0.25353 1.608169,-0.42995 0.526306,-0.17641 1.038995,-0.42128 1.450557,-0.79375 0.42877,-0.38804 0.739534,-0.90616 1.223182,-1.22318 0.381934,-0.25035 0.845197,-0.35634 1.223707,-0.61185 0.19524,-0.1318 0.36355,-0.30072 0.55913,-0.43201 0.0978,-0.0656 0.20258,-0.12167 0.31523,-0.15606 0.11265,-0.0344 0.23376,-0.0465 0.34933,-0.0238 0.10729,0.0211 0.20711,0.0711 0.31471,0.0904 0.0538,0.01 0.10983,0.0115 0.16278,-0.002 0.0529,-0.0136 0.10257,-0.0435 0.13385,-0.0884 0.0297,-0.0426 0.0411,-0.0954 0.0424,-0.14727 10e-4,-0.0519 -0.007,-0.10383 -0.015,-0.15503 -0.0168,-0.10241 -0.0274,-0.20576 -0.0274,-0.30953 v -1.22319 -5.50613 -1.22369 c 0,-0.10497 0.0136,-0.20887 0.0351,-0.31161 0.0108,-0.0514 0.0214,-0.1036 0.0196,-0.15606 -8e-4,-0.0262 -0.005,-0.0528 -0.0139,-0.0775 -0.009,-0.0248 -0.0223,-0.0476 -0.0408,-0.0662 -0.0185,-0.0186 -0.0414,-0.0321 -0.0662,-0.0408 -0.0247,-0.009 -0.0513,-0.0131 -0.0775,-0.014 -0.0525,-0.002 -0.10418,0.009 -0.15554,0.0196 -0.10274,0.0216 -0.20715,0.0351 -0.31213,0.0351 h -0.61186 -1.2237 c -0.102553,0 -0.204856,-0.006 -0.306959,-0.0155 -0.1021,-0.01 -0.208489,-0.0195 -0.30489,0.0155 -0.06914,0.0251 -0.127931,0.0726 -0.176734,0.12764 -0.0488,0.055 -0.08838,0.11764 -0.12764,0.17983 -0.03926,0.0622 -0.07881,0.12478 -0.128159,0.17932 -0.04935,0.0545 -0.109691,0.10083 -0.179316,0.12454 -0.09744,0.0332 -0.203684,0.0189 -0.305409,0.003 -0.101724,-0.0158 -0.207237,-0.0324 -0.305924,-0.003 -0.07033,0.0209 -0.132546,0.0645 -0.184483,0.11627 -0.05194,0.0518 -0.09469,0.11208 -0.135393,0.17312 -0.0407,0.061 -0.08009,0.12311 -0.126608,0.17983 -0.04652,0.0567 -0.100569,0.10823 -0.165365,0.14263 -0.110344,0.0586 -0.246819,0.0628 -0.363286,0.0176 -0.116464,-0.0452 -0.212537,-0.13725 -0.270267,-0.24805 -0.05773,-0.11079 -0.0778,-0.23951 -0.06511,-0.3638 0.0127,-0.12428 0.05763,-0.2441 0.122473,-0.35088 0.12969,-0.21357 0.334414,-0.37089 0.547253,-0.50178 0.212839,-0.13088 0.438896,-0.24088 0.640787,-0.38809 0.54052,-0.39412 0.865777,-1.02775 1.02526,-1.67742 0.159486,-0.64966 0.170587,-1.32476 0.197922,-1.99316 0.0083,-0.2039 0.01823,-0.40858 0,-0.61184 -0.0092,-0.1024 -0.02516,-0.20432 -0.03101,-0.30696 -0.0058,-0.10264 -0.0013,-0.20727 0.03101,-0.30489 0.04604,-0.13945 0.145214,-0.25597 0.256831,-0.3514 0.111619,-0.0954 0.23699,-0.17308 0.355017,-0.26045 0.52788,-0.3908 0.88924,-0.96079 1.23403,-1.51981 0.34479,-0.55901 0.69628,-1.13328 1.21285,-1.53892 0.23249,-0.18257 0.49338,-0.32665 0.72398,-0.5116 0.1153,-0.0925 0.22344,-0.19505 0.31161,-0.31367 0.0882,-0.11862 0.15633,-0.25356 0.18811,-0.39791 0.044,-0.19998 0.0169,-0.40778 0,-0.61185 -0.0168,-0.20356 -0.0232,-0.40892 0,-0.61185 0.0627,-0.5492 0.33587,-1.0487 0.60564,-1.53117 0.26977,-0.48248 0.54696,-0.97938 0.61805,-1.52756 0.0263,-0.20273 0.0236,-0.40879 0,-0.61185 -0.0119,-0.10226 -0.029,-0.20415 -0.0346,-0.30695 -0.006,-0.10281 8e-4,-0.20768 0.0346,-0.3049 0.0482,-0.13833 0.14905,-0.25221 0.26097,-0.34674 0.11192,-0.0945 0.23671,-0.1733 0.35088,-0.2651 0.25742,-0.20701 0.45753,-0.47887 0.60461,-0.77463 0.14709,-0.29577 0.24251,-0.61511 0.31006,-0.93845 0.13512,-0.64668 0.16145,-1.31292 0.30851,-1.95699 0.24486,-1.07233 0.81253,-2.03904 1.2237,-3.05924 0.24115,-0.59834 0.42899,-1.21638 0.61185,-1.83503 0.18289,-0.61874 0.36138,-1.24073 0.61133,-1.83555 0.74647,-1.77642 2.08774,-3.2297 3.05925,-4.89375 0.45996,-0.78786 0.83566,-1.62098 1.22318,-2.44688 1.35585,-2.88969 2.86146,-5.70662 4.28243,-8.56486 0.28924,-0.58181 0.58069,-1.18602 0.61184,-1.83503 0.01,-0.2037 0,-0.4079 0,-0.61185 v -1.22369 c 0,-0.20407 0.0255,-0.40938 0,-0.61185 -0.0286,-0.22786 -0.14476,-0.44113 -0.31161,-0.59893 -0.16685,-0.1578 -0.38237,-0.2611 -0.60771,-0.30541 -0.22534,-0.0443 -0.46034,-0.0313 -0.68316,0.0243 -0.22283,0.0556 -0.43411,0.15328 -0.62891,0.27492 -0.38959,0.24327 -0.71056,0.57951 -1.02681,0.9126 -0.31624,0.3331 -0.63637,0.6702 -1.02422,0.91623 -0.54798,0.3476 -1.1972,0.49234 -1.83503,0.61184 -1.61671,0.30292 -3.25451,0.48287 -4.89428,0.61185 -1.04324,0.0821 -2.11887,0.15116 -3.05873,0.61134 -0.10127,0.0496 -0.20338,0.10457 -0.31522,0.11885 -0.0559,0.007 -0.11339,0.004 -0.1664,-0.0155 -0.053,-0.0192 -0.10114,-0.0551 -0.13022,-0.10335 -0.0267,-0.0443 -0.0366,-0.0966 -0.0377,-0.14832 -10e-4,-0.0517 0.006,-0.10335 0.0134,-0.15451 0.0149,-0.10231 0.0243,-0.20511 0.0243,-0.30851 v -3.05872 c 0,-0.10321 0.009,-0.20625 0.0227,-0.30851 0.007,-0.0511 0.0134,-0.10292 0.0124,-0.15451 -10e-4,-0.0516 -0.0102,-0.10367 -0.0351,-0.14883 -0.026,-0.0471 -0.0682,-0.0845 -0.11627,-0.10852 -0.0481,-0.0241 -0.10187,-0.0354 -0.15555,-0.0382 -0.10736,-0.006 -0.21328,0.0221 -0.31678,0.0512 -0.10349,0.0291 -0.20696,0.0592 -0.31315,0.076 -0.1062,0.0167 -0.21444,0.0196 -0.32195,0.0196 h -1.83503 -0.61185 c -0.102139,0 -0.204432,0.003 -0.306437,0.009 -0.102002,0.005 -0.205193,0.011 -0.305406,-0.009 -0.145555,-0.0287 -0.277723,-0.11359 -0.371039,-0.22893 -0.09332,-0.11534 -0.148354,-0.26012 -0.163298,-0.40773 -0.01495,-0.1476 0.0095,-0.29792 0.06201,-0.43666 0.05254,-0.13875 0.13291,-0.26613 0.229444,-0.37879 0.193069,-0.22532 0.446145,-0.38981 0.703834,-0.53692 0.257682,-0.14711 0.524902,-0.28095 0.762742,-0.45837 0.55742,-0.4158 0.91812,-1.04531 1.1715,-1.69292 0.25339,-0.64761 0.41439,-1.3284 0.66353,-1.97766 0.49043,-1.27806 1.3104,-2.40586 1.83555,-3.67006 0.24749,-0.5958 0.42761,-1.21724 0.61185,-1.83554 0.31451,-1.05554 0.64802,-2.11944 1.22318,-3.05873 0.23962,-0.39133 0.52581,-0.77297 0.61184,-1.2237 0.0767,-0.4015 -0.0147,-0.8147 0,-1.22318 0.0185,-0.51328 0.20483,-1.00906 0.45838,-1.45573 0.25354,-0.44666 0.57381,-0.85116 0.88418,-1.26038 0.31037,-0.40923 0.61459,-0.82844 0.83044,-1.2945 0.21585,-0.46605 0.34003,-0.98618 0.27388,-1.49551 -0.0133,-0.10254 -0.0342,-0.20381 -0.0413,-0.30696 -0.007,-0.10315 2.4e-4,-0.21001 0.0413,-0.30489 0.0579,-0.13362 0.17606,-0.23054 0.29301,-0.3173 0.11695,-0.0868 0.24011,-0.17155 0.31884,-0.29404 0.0563,-0.0876 0.0867,-0.19044 0.0977,-0.29403 0.0109,-0.10359 0.003,-0.20852 -0.0119,-0.31161 -0.0298,-0.2062 -0.0884,-0.40974 -0.0858,-0.61805 0.002,-0.18823 0.0554,-0.37395 0.13798,-0.54312 0.0826,-0.16917 0.19409,-0.32283 0.31678,-0.46561 0.24536,-0.28554 0.5368,-0.52991 0.76894,-0.8263 0.32958,-0.42079 0.52882,-0.93485 0.61753,-1.46193 0.0887,-0.52708 0.0704,-1.06827 -0.006,-1.59732 -0.0147,-0.10194 -0.0315,-0.20355 -0.0362,-0.30644 -0.005,-0.10289 0.003,-0.2074 0.0362,-0.30489 0.0474,-0.13907 0.14405,-0.25687 0.25476,-0.35347 0.11071,-0.0966 0.23634,-0.17466 0.35708,-0.25838 0.47639,-0.33031 0.88823,-0.75056 1.22319,-1.2237 1.01151,-1.42877 1.27372,-3.23577 1.83554,-4.89376 0.16811,-0.49609 0.35966,-0.98637 0.47387,-1.49758 0.11421,-0.5112 0.13798,-1.03785 0.13798,-1.56166 v -0.61133 c 0,-0.10498 0.0131,-0.20939 0.0346,-0.31213 0.0108,-0.0514 0.0214,-0.1036 0.0196,-0.15606 -7.9e-4,-0.0262 -0.005,-0.0523 -0.0139,-0.077 -0.009,-0.0248 -0.0217,-0.0481 -0.0403,-0.0667 -0.0186,-0.0186 -0.0419,-0.0321 -0.0667,-0.0408 -0.0247,-0.009 -0.0513,-0.0131 -0.0775,-0.014 -0.0525,-0.002 -0.10418,0.009 -0.15555,0.0196 -0.10274,0.0216 -0.20715,0.0351 -0.31212,0.0351 h -0.61185 -2.44688 -1.83555 c -0.10265,0 -0.20535,0.006 -0.30747,0.0165 -0.0511,0.005 -0.10216,0.0105 -0.15348,0.01 -0.0513,-8e-4 -0.10318,-0.007 -0.1509,-0.0263 -0.0691,-0.0274 -0.12581,-0.079 -0.17156,-0.13746 -0.0458,-0.0585 -0.0816,-0.12439 -0.11886,-0.18862 -0.0373,-0.0642 -0.077,-0.12807 -0.12919,-0.18087 -0.0522,-0.0528 -0.11874,-0.0942 -0.19224,-0.1049 -0.0534,-0.008 -0.10757,7.9e-4 -0.15968,0.015 -0.0521,0.0141 -0.10293,0.0335 -0.15503,0.0475 -0.0521,0.0141 -0.10626,0.0227 -0.15968,0.015 -0.0267,-0.004 -0.0533,-0.0119 -0.077,-0.0248 -0.0237,-0.0129 -0.0444,-0.0306 -0.0599,-0.0527 -0.0155,-0.022 -0.0254,-0.0479 -0.03,-0.0744 -0.005,-0.0265 -0.004,-0.0535 -5.2e-4,-0.0801 0.007,-0.0532 0.027,-0.10355 0.0455,-0.154 0.0185,-0.0504 0.0359,-0.10236 0.0377,-0.15606 7.9e-4,-0.0268 -0.002,-0.0541 -0.0103,-0.0796 -0.009,-0.0255 -0.0228,-0.0493 -0.0424,-0.0677 -0.0197,-0.0185 -0.0448,-0.0312 -0.0708,-0.0382 -0.026,-0.007 -0.0532,-0.009 -0.0801,-0.006 -0.0537,0.005 -0.10473,0.0245 -0.15503,0.0439 -0.0503,0.0194 -0.10133,0.039 -0.15503,0.0439 -0.0268,0.002 -0.054,0.001 -0.0801,-0.006 -0.0261,-0.007 -0.051,-0.0194 -0.0708,-0.0377 -0.0193,-0.0178 -0.0337,-0.041 -0.0429,-0.0656 -0.009,-0.0247 -0.0135,-0.0507 -0.0145,-0.077 -0.002,-0.0526 0.009,-0.10465 0.0202,-0.15606 0.0227,-0.10283 0.0372,-0.20787 0.0372,-0.31316 v -1.22318 -1.2237 c 0,-0.10497 0.0136,-0.20938 0.0351,-0.31212 0.0108,-0.0514 0.0209,-0.10361 0.0191,-0.15607 -7.9e-4,-0.0262 -0.005,-0.0522 -0.0134,-0.077 -0.009,-0.0247 -0.0223,-0.0481 -0.0408,-0.0667 -0.0186,-0.0185 -0.0419,-0.0321 -0.0667,-0.0408 -0.0247,-0.009 -0.0508,-0.0126 -0.077,-0.0134 -0.0525,-0.002 -0.10469,0.008 -0.15606,0.0191 -0.10274,0.0216 -0.20715,0.0351 -0.31213,0.0351 h -1.83503 c -0.10362,0 -0.20717,0.0103 -0.30954,0.0264 -0.0512,0.008 -0.10272,0.0157 -0.15451,0.0145 -0.0518,-10e-4 -0.10454,-0.0123 -0.1478,-0.0408 -0.0392,-0.0258 -0.0687,-0.0653 -0.0842,-0.10955 -0.0156,-0.0443 -0.0175,-0.0931 -0.008,-0.13901 0.0195,-0.0918 0.0844,-0.16929 0.1633,-0.22014 0.0789,-0.0508 0.17089,-0.0778 0.26303,-0.0956 0.0921,-0.0178 0.18585,-0.0274 0.2775,-0.0475 0.38688,-0.0851 0.71628,-0.35935 0.91984,-0.69919 0.20356,-0.33984 0.28991,-0.73993 0.30334,-1.13585 0.007,-0.20381 0,-0.40791 0,-0.61184 v -1.83503 c 0,-0.2049 0.011,-0.40977 0.0284,-0.61392 0.0174,-0.20415 0.0352,-0.415 -0.0284,-0.60978 -0.0381,-0.11674 -0.10585,-0.22329 -0.19275,-0.31006 -0.0869,-0.0868 -0.19241,-0.15366 -0.30592,-0.20051 -0.22704,-0.0937 -0.47891,-0.10128 -0.72451,-0.10128 h -1.2237 -2.44688 -0.61184 c -0.10246,0 -0.20488,0.006 -0.30696,0.0145 -0.10208,0.009 -0.20762,0.0177 -0.30489,-0.0145 -0.11152,-0.0369 -0.20065,-0.12846 -0.24753,-0.23616 -0.0469,-0.10771 -0.0544,-0.22975 -0.0357,-0.34572 0.0374,-0.23193 0.17252,-0.43459 0.28319,-0.64182 0.3045,-0.57014 0.43769,-1.21258 0.61185,-1.83503 0.1738,-0.62115 0.39131,-1.22889 0.61185,-1.83503 0.28879,-0.79372 0.58636,-1.603142 0.61133,-2.447396 0.006,-0.203837 0,-0.407921 0,-0.611849 v -0.61133 c 0,-0.203922 -0.003,-0.407959 0,-0.611849 0.0358,-2.118408 1.06313,-4.110141 2.37505,-5.773809 1.31192,-1.663668 2.91425,-3.07195 4.35426,-4.626076 0.72529,-0.782767 1.41322,-1.607513 1.96267,-2.522325 0.54945,-0.91481 0.95914,-1.925551 1.09657,-2.983797 0.18398,-1.416677 0,-2.853335 0,-4.28191 V 76.46946 75.857611 c 0,-0.10228 -0.005,-0.204404 -0.0119,-0.306441 -0.007,-0.102036 -0.014,-0.206459 0.0119,-0.305408 0.0373,-0.142351 0.14183,-0.257535 0.25683,-0.349332 0.11501,-0.0918 0.2431,-0.166384 0.35451,-0.262517 0.1753,-0.15127 0.30266,-0.351819 0.39584,-0.56379 0.0932,-0.211969 0.15425,-0.436229 0.21601,-0.65939 0.26476,-0.956855 0.54563,-1.919052 1.01647,-2.793111 0.47084,-0.874061 1.15082,-1.664099 2.04225,-2.101164 0.13733,-0.06733 0.2806,-0.127106 0.39998,-0.222727 0.0597,-0.04781 0.11299,-0.104409 0.15141,-0.170531 0.0384,-0.06612 0.0616,-0.142127 0.0605,-0.218591 -0.002,-0.108143 -0.0508,-0.209159 -0.0744,-0.314709 -0.0118,-0.05278 -0.017,-0.107619 -0.007,-0.160713 0.0103,-0.0531 0.0373,-0.104698 0.0811,-0.136427 0.0428,-0.03098 0.0977,-0.04109 0.15038,-0.03824 0.0527,0.0028 0.10448,0.01783 0.15503,0.03307 0.0506,0.01524 0.1014,0.03095 0.154,0.03566 0.0526,0.0047 0.1076,-0.0026 0.15244,-0.03049 0.0467,-0.02907 0.0783,-0.0786 0.0925,-0.131776 0.0142,-0.05317 0.0125,-0.109762 0.002,-0.163814 -0.0208,-0.108104 -0.0738,-0.207629 -0.0946,-0.315743 -0.0293,-0.15239 0.008,-0.313053 0.0858,-0.447517 0.0774,-0.134466 0.1923,-0.24476 0.31936,-0.33383 0.25413,-0.178144 0.55624,-0.276505 0.81856,-0.442351 0.48903,-0.309184 0.80355,-0.825373 1.22318,-1.223698 0.2097,-0.199054 0.44943,-0.372129 0.61185,-0.61133 0.12878,-0.189672 0.2019,-0.410528 0.28215,-0.625288 0.0803,-0.214757 0.17241,-0.431612 0.32969,-0.59841 0.15767,-0.167209 0.36984,-0.272 0.58395,-0.355534 0.2141,-0.08354 0.43606,-0.149876 0.63975,-0.256315 0.42433,-0.22174 0.74661,-0.610939 0.94206,-1.047999 0.19545,-0.43706 0.271,-0.920218 0.28112,-1.398881 0.004,-0.203878 0,-0.407924 0,-0.611849 v -0.611849 -1.835031 c 0,-0.102558 0.006,-0.20537 0.0155,-0.307475 0.01,-0.102103 0.0197,-0.208029 -0.0155,-0.304374 -0.0196,-0.05383 -0.0533,-0.102365 -0.0956,-0.141076 -0.0422,-0.03871 -0.0928,-0.06795 -0.14676,-0.08733 -0.10784,-0.03877 -0.2267,-0.03786 -0.339,-0.01497 -0.22459,0.04575 -0.4231,0.174881 -0.64182,0.243395 -0.24579,0.07699 -0.52099,0.073 -0.75499,-0.03462 -0.117,-0.05381 -0.22284,-0.13277 -0.30489,-0.232026 -0.0821,-0.09926 -0.1398,-0.218675 -0.16382,-0.345199 -0.0381,-0.200782 0.009,-0.407699 0,-0.611849 -0.005,-0.102883 -0.0242,-0.204309 -0.0326,-0.306959 -0.008,-0.102648 -0.005,-0.209053 0.0326,-0.30489 0.0534,-0.135639 0.16936,-0.235426 0.28629,-0.322461 0.11693,-0.08703 0.24197,-0.169455 0.32556,-0.288872 0.0893,-0.127535 0.12335,-0.286721 0.12713,-0.442349 0.004,-0.155631 -0.0203,-0.310433 -0.0455,-0.464055 -0.0504,-0.307242 -0.0816,-0.617792 -0.0816,-0.929143 v -1.223698 c 0,-0.104976 0.0136,-0.20887 0.0351,-0.311608 0.0108,-0.05137 0.0209,-0.103605 0.0191,-0.156064 -8e-4,-0.02622 -0.005,-0.05276 -0.0134,-0.07751 -0.009,-0.02474 -0.0223,-0.04759 -0.0408,-0.06615 -0.0186,-0.01855 -0.0419,-0.0321 -0.0667,-0.04082 -0.0247,-0.0087 -0.0513,-0.01307 -0.0775,-0.01394 -0.0525,-0.0019 -0.10417,0.0089 -0.15554,0.01963 -0.10274,0.02156 -0.20715,0.03514 -0.31213,0.03514 h -2.44689 -4.28242 -1.2237 c -0.20394,0 -0.40817,-0.0105 -0.61185,0 -0.55205,0.02845 -1.07187,0.260011 -1.56114,0.517281 -0.48927,0.257271 -0.96843,0.546005 -1.49759,0.705901 -0.10027,0.0303 -0.20284,0.05587 -0.30747,0.06098 -0.10463,0.0051 -0.21219,-0.01124 -0.30437,-0.06098 -0.0578,-0.03117 -0.10865,-0.07504 -0.14573,-0.129191 -0.0371,-0.05416 -0.0597,-0.118393 -0.0625,-0.183968 -0.003,-0.06558 0.0148,-0.132283 0.0517,-0.186552 0.0369,-0.05427 0.093,-0.09583 0.15658,-0.112138 0.0511,-0.0131 0.10521,-0.0099 0.15709,-5.29e-4 0.0519,0.0094 0.10229,0.02511 0.15348,0.03772 0.0512,0.01262 0.10396,0.02191 0.15658,0.0186 0.0526,-0.0033 0.10554,-0.0205 0.1447,-0.05581 0.0396,-0.03569 0.0623,-0.08727 0.0698,-0.140042 0.007,-0.05277 0.001,-0.106616 -0.0104,-0.158647 -0.0231,-0.104063 -0.0668,-0.2063 -0.0594,-0.312642 0.004,-0.05892 0.0239,-0.116112 0.0522,-0.167949 0.0283,-0.05184 0.0653,-0.09878 0.10491,-0.142627 0.0792,-0.08769 0.16951,-0.165232 0.24597,-0.25528 0.0765,-0.09005 0.13807,-0.193678 0.17157,-0.306959 0.0335,-0.113282 0.0372,-0.232752 0.0372,-0.350883 v -6.118222 -1.835547 c 0,-0.102201 -0.004,-0.204422 -0.01,-0.30644 -0.006,-0.102018 -0.0127,-0.205722 0.01,-0.305409 0.0328,-0.14501 0.12724,-0.269759 0.23978,-0.366903 0.11254,-0.09714 0.2435,-0.169786 0.37207,-0.244427 0.88353,-0.512932 1.6954,-1.14344 2.44688,-1.835547 1.06079,-0.97699 2.00242,-2.076903 3.05873,-3.058729 0.2114,-0.196495 0.42824,-0.389154 0.61184,-0.611849 0.0926,-0.112363 0.17655,-0.231831 0.27286,-0.341064 0.0963,-0.109236 0.20696,-0.209351 0.33899,-0.270785 0.19087,-0.08881 0.42099,-0.08881 0.61185,0 l 1.22318,-1.223182 c 0.81575,-0.81575 1.66815,-1.59671 2.4474,-2.447396 0.39028,-0.426056 0.75947,-0.878491 1.22318,-1.223179 0.11751,-0.08734 0.24113,-0.167754 0.3514,-0.264067 0.11027,-0.09631 0.20822,-0.211008 0.26045,-0.347785 0.0366,-0.09586 0.0498,-0.199189 0.0512,-0.301789 0.001,-0.102603 -0.009,-0.205359 -0.0186,-0.307475 -0.0201,-0.204232 -0.0326,-0.409212 -0.0326,-0.614432 v -1.22319 c 0,-0.102542 -0.006,-0.204859 -0.0155,-0.306958 -0.01,-0.102099 -0.0192,-0.208389 0.0155,-0.304891 0.0202,-0.05634 0.0556,-0.106782 0.0992,-0.147795 0.0436,-0.04101 0.0956,-0.07309 0.15038,-0.09715 0.10963,-0.04812 0.22997,-0.06464 0.34881,-0.07906 0.11885,-0.01442 0.23935,-0.02745 0.35192,-0.06821 0.0563,-0.02038 0.11016,-0.04774 0.15761,-0.08423 0.0475,-0.03649 0.0883,-0.08222 0.11576,-0.135392 0.0476,-0.09211 0.053,-0.200661 0.0429,-0.303858 -0.0101,-0.103196 -0.0346,-0.204631 -0.0429,-0.307991 -0.0136,-0.170193 0.0175,-0.342426 0.0801,-0.501262 0.0626,-0.158834 0.15619,-0.30433 0.26717,-0.434081 0.22195,-0.259504 0.50881,-0.453976 0.79633,-0.638204 0.28751,-0.184228 0.5818,-0.363672 0.82682,-0.601514 0.24502,-0.237843 0.44049,-0.544091 0.47646,-0.883668 0.0215,-0.202892 0,-0.40782 0,-0.611848 v -0.610282 c 0,-0.104976 0.0136,-0.209388 0.0351,-0.312126 0.0108,-0.05137 0.0214,-0.103604 0.0196,-0.156063 -7.9e-4,-0.02623 -0.005,-0.05276 -0.014,-0.07751 -0.009,-0.02475 -0.0223,-0.04759 -0.0408,-0.06615 -0.0186,-0.01856 -0.0419,-0.0321 -0.0667,-0.04082 -0.0248,-0.0087 -0.0508,-0.01307 -0.077,-0.01395 -0.0525,-0.0018 -0.1047,0.0089 -0.15606,0.01964 -0.10274,0.02156 -0.20715,0.03514 -0.31213,0.03514 h -4.28191 c -0.1044,0 -0.20851,0.01212 -0.31109,0.03152 -0.0513,0.0097 -0.10337,0.01909 -0.15555,0.01757 -0.0522,-0.0015 -0.10548,-0.01524 -0.14521,-0.04909 -0.0406,-0.03463 -0.0631,-0.08748 -0.0687,-0.14056 -0.006,-0.05308 0.004,-0.107022 0.0176,-0.158647 0.0136,-0.05163 0.0314,-0.101984 0.0434,-0.153995 0.012,-0.05201 0.0182,-0.106296 0.008,-0.158647 -0.0146,-0.07309 -0.0608,-0.136812 -0.11679,-0.186035 -0.056,-0.04922 -0.12166,-0.08571 -0.18707,-0.12144 -0.0654,-0.03573 -0.13155,-0.07186 -0.1881,-0.120406 -0.0566,-0.04855 -0.10355,-0.111253 -0.11989,-0.183968 -0.017,-0.07589 8e-4,-0.156922 0.0398,-0.224276 0.0389,-0.06735 0.0975,-0.122068 0.16175,-0.165881 0.12855,-0.08763 0.28105,-0.135122 0.41031,-0.221692 0.13807,-0.09247 0.24448,-0.226819 0.31936,-0.375171 0.0749,-0.148352 0.11966,-0.310791 0.14883,-0.474389 0.0583,-0.327198 0.0579,-0.664379 0.14366,-0.98547 0.11809,-0.441894 0.39031,-0.823245 0.61133,-1.223698 0.71114,-1.288418 0.89508,-2.838296 0.61185,-4.2824255 -0.02,-0.1018542 -0.042,-0.2033423 -0.0481,-0.3069579 -0.006,-0.1036159 0.004,-0.2101736 0.0481,-0.3043743 0.0609,-0.1316429 0.17706,-0.2279999 0.28887,-0.320394 0.11182,-0.092394 0.22041,-0.1888892 0.32298,-0.291455 l 1.2237,-1.2236979 c 1.22351,-1.22351 2.44706,-2.4470669 3.67058,-3.670577 l 0.61133,-0.6118489 c 0.40784,-0.4078373 0.81902,-0.8122082 1.2237,-1.2231812 2.10442,-2.13715162 3.97918,-4.5001358 5.58208,-7.0352296 z" /></mask><radialGradient
       inkscape:collect="always"
       xlink:href="#linearGradient1"
       id="radialGradient2"
       cx="-6.8791599"
       cy="497.41666"
       fx="-6.8791599"
       fy="497.41666"
       r="142.875"
       gradientUnits="userSpaceOnUse"
       gradientTransform="matrix(0.55130683,0,0,0.55130683,257.79253,-131.35421)" /></defs><g
     inkscape:groupmode="layer"
     id="layer1"
     inkscape:label="Layer 5"
     transform="translate(442.83643,555.46384)"><path
       id="path1"
       style="fill:url(#radialGradient2)"
       d="M 396.875,142.875 A 142.875,142.875 0 0 1 254,285.75 142.875,142.875 0 0 1 111.125,142.875 142.875,142.875 0 0 1 254,0 142.875,142.875 0 0 1 396.875,142.875 Z" /></g><g
     inkscape:groupmode="layer"
     id="layer5"
     inkscape:label="Layer 3"
     sodipodi:insensitive="true"
     style="display:inline"
     transform="translate(442.83643,555.46384)"><use
       x="0"
       y="0"
       xlink:href="#path51"
       inkscape:transform-center-x="-0.46392616"
       inkscape:transform-center-y="16.213112"
       id="use51"
       transform="rotate(-20,254,142.63636)"
       style="stroke-width:2.31008" /><use
       x="0"
       y="0"
       xlink:href="#use51"
       inkscape:transform-center-x="-6.8613634"
       inkscape:transform-center-y="15.536302"
       id="use52"
       transform="rotate(-20,254,142.63636)"
       style="stroke-width:2.31008" /><use
       x="0"
       y="0"
       xlink:href="#use52"
       inkscape:transform-center-x="-11.41841"
       inkscape:transform-center-y="12.985586"
       id="use53"
       transform="rotate(-20,254,142.63636)"
       style="stroke-width:2.31008" /><use
       x="0"
       y="0"
       xlink:href="#use53"
       inkscape:transform-center-x="-14.246363"
       inkscape:transform-center-y="8.943891"
       id="use54"
       transform="rotate(-20,254,142.63636)"
       style="stroke-width:2.31008" /><use
       x="0"
       y="0"
       xlink:href="#use54"
       inkscape:transform-center-x="-15.814005"
       inkscape:transform-center-y="3.1649499"
       id="use55"
       transform="rotate(-20,254,142.63636)"
       style="stroke-width:2.31008" /><use
       x="0"
       y="0"
       xlink:href="#use55"
       inkscape:transform-center-x="-16.119611"
       inkscape:transform-center-y="-3.8380367"
       id="use56"
       transform="rotate(-20,254,142.63636)"
       style="stroke-width:2.31008" /><use
       x="0"
       y="0"
       xlink:href="#use56"
       inkscape:transform-center-x="-14.480955"
       inkscape:transform-center-y="-9.4188535"
       id="use57"
       transform="rotate(-20,254,142.63636)"
       style="stroke-width:2.31008" /><use
       x="0"
       y="0"
       xlink:href="#use57"
       inkscape:transform-center-x="-11.095678"
       inkscape:transform-center-y="-13.03035"
       id="use58"
       transform="rotate(-20,254,142.63636)"
       style="stroke-width:2.31008" /><use
       x="0"
       y="0"
       xlink:href="#use58"
       inkscape:transform-center-x="-6.9757262"
       inkscape:transform-center-y="-15.029513"
       id="use59"
       transform="rotate(-20,254,142.63636)"
       style="stroke-width:2.31008" /><use
       x="0"
       y="0"
       xlink:href="#use59"
       inkscape:transform-center-x="0.46391586"
       inkscape:transform-center-y="-16.213126"
       id="use60"
       transform="rotate(-20,254,142.63636)"
       style="stroke-width:2.31008" /><use
       x="0"
       y="0"
       xlink:href="#use60"
       inkscape:transform-center-x="6.8613541"
       inkscape:transform-center-y="-15.536317"
       id="use61"
       transform="rotate(-20,254,142.63636)"
       style="stroke-width:2.31008" /><use
       x="0"
       y="0"
       xlink:href="#use61"
       inkscape:transform-center-x="11.4184"
       inkscape:transform-center-y="-12.985601"
       id="use62"
       transform="rotate(-20,254,142.63636)"
       style="stroke-width:2.31008" /><use
       x="0"
       y="0"
       xlink:href="#use62"
       inkscape:transform-center-x="14.246353"
       inkscape:transform-center-y="-8.9439057"
       id="use63"
       transform="rotate(-20,254,142.63636)"
       style="stroke-width:2.31008" /><use
       x="0"
       y="0"
       xlink:href="#use63"
       inkscape:transform-center-x="15.813995"
       inkscape:transform-center-y="-3.1649644"
       id="use64"
       transform="rotate(-20,254,142.63636)"
       style="stroke-width:2.31008" /><use
       x="0"
       y="0"
       xlink:href="#use64"
       inkscape:transform-center-x="16.119601"
       inkscape:transform-center-y="3.8380224"
       id="use65"
       transform="rotate(-20,254,142.63636)"
       style="stroke-width:2.31008" /><use
       x="0"
       y="0"
       xlink:href="#use65"
       inkscape:transform-center-x="14.480945"
       inkscape:transform-center-y="9.4188387"
       id="use66"
       transform="rotate(-20,254,142.63636)"
       style="stroke-width:2.31008" /><use
       x="0"
       y="0"
       xlink:href="#use66"
       inkscape:transform-center-x="11.095668"
       inkscape:transform-center-y="13.030334"
       id="use67"
       transform="rotate(-20,254,142.63636)"
       style="stroke-width:2.31008" /><use
       x="0"
       y="0"
       xlink:href="#path84"
       inkscape:transform-center-x="17.642498"
       inkscape:transform-center-y="49.356361"
       id="use100"
       transform="rotate(20,254,142.63636)"
       style="stroke-width:2.31008" /><use
       x="0"
       y="0"
       xlink:href="#use100"
       inkscape:transform-center-x="32.938726"
       inkscape:transform-center-y="42.383258"
       id="use101"
       transform="rotate(20,254,142.63636)"
       style="stroke-width:2.31008" /><use
       x="0"
       y="0"
       xlink:href="#use101"
       inkscape:transform-center-x="43.592903"
       inkscape:transform-center-y="30.286118"
       id="use102"
       transform="rotate(20,254,142.63636)"
       style="stroke-width:2.31008" /><use
       x="0"
       y="0"
       xlink:href="#use102"
       inkscape:transform-center-x="48.989141"
       inkscape:transform-center-y="12.440103"
       id="use103"
       transform="rotate(20,254,142.63636)"
       style="stroke-width:2.31008" /><use
       x="0"
       y="0"
       xlink:href="#use103"
       inkscape:transform-center-x="50.058021"
       inkscape:transform-center-y="-8.3374065"
       id="use104"
       transform="rotate(20,254,142.63636)"
       style="stroke-width:2.31008" /><use
       x="0"
       y="0"
       xlink:href="#use104"
       inkscape:transform-center-x="46.583513"
       inkscape:transform-center-y="-25.937727"
       id="use105"
       transform="rotate(20,254,142.63636)"
       style="stroke-width:2.31008" /><use
       x="0"
       y="0"
       xlink:href="#use105"
       inkscape:transform-center-x="36.895209"
       inkscape:transform-center-y="-38.856143"
       id="use106"
       transform="rotate(20,254,142.63636)"
       style="stroke-width:2.31008" /><use
       x="0"
       y="0"
       xlink:href="#use106"
       inkscape:transform-center-x="22.756798"
       inkscape:transform-center-y="-47.005154"
       id="use107"
       transform="rotate(20,254,142.63636)"
       style="stroke-width:2.31008" /><use
       x="0"
       y="0"
       xlink:href="#use107"
       inkscape:transform-center-x="1.7201141"
       inkscape:transform-center-y="-49.484658"
       id="use108"
       transform="rotate(20,254,142.63636)"
       style="stroke-width:2.31008" /><use
       x="0"
       y="0"
       xlink:href="#use108"
       inkscape:transform-center-x="-17.642516"
       inkscape:transform-center-y="-49.35637"
       id="use109"
       transform="rotate(20,254,142.63637)"
       style="stroke-width:2.31008" /><use
       x="0"
       y="0"
       xlink:href="#use109"
       inkscape:transform-center-x="-32.938746"
       inkscape:transform-center-y="-42.383273"
       id="use110"
       transform="rotate(20,254,142.63637)"
       style="stroke-width:2.31008" /><use
       x="0"
       y="0"
       xlink:href="#use110"
       inkscape:transform-center-x="-43.592931"
       inkscape:transform-center-y="-30.286133"
       id="use111"
       transform="rotate(20,254,142.63637)"
       style="stroke-width:2.31008" /><use
       x="0"
       y="0"
       xlink:href="#use111"
       inkscape:transform-center-x="-48.98917"
       inkscape:transform-center-y="-12.440113"
       id="use112"
       transform="rotate(20,254,142.63637)"
       style="stroke-width:2.31008" /><use
       x="0"
       y="0"
       xlink:href="#use112"
       inkscape:transform-center-x="-50.058053"
       inkscape:transform-center-y="8.3374001"
       id="use113"
       transform="rotate(20,254,142.63637)"
       style="stroke-width:2.31008" /><use
       x="0"
       y="0"
       xlink:href="#use113"
       inkscape:transform-center-x="-46.583536"
       inkscape:transform-center-y="25.937724"
       id="use114"
       transform="rotate(20,254,142.63637)"
       style="stroke-width:2.31008" /><use
       x="0"
       y="0"
       xlink:href="#use114"
       inkscape:transform-center-x="-36.895234"
       inkscape:transform-center-y="38.856143"
       id="use115"
       transform="rotate(20,254,142.63637)"
       style="stroke-width:2.31008" /><use
       x="0"
       y="0"
       xlink:href="#use115"
       inkscape:transform-center-x="-22.756819"
       inkscape:transform-center-y="47.005158"
       id="use116"
       transform="rotate(20,254,142.63637)"
       style="stroke-width:2.31008" /><use
       x="0"
       y="0"
       xlink:href="#path116"
       inkscape:transform-center-x="37.078299"
       inkscape:transform-center-y="102.20347"
       id="use117"
       transform="rotate(20,254,142.63636)"
       style="stroke-width:2.31008" /><use
       x="0"
       y="0"
       xlink:href="#use117"
       inkscape:transform-center-x="68.262426"
       inkscape:transform-center-y="87.336356"
       id="use118"
       transform="rotate(20,254,142.63636)"
       style="stroke-width:2.31008" /><use
       x="0"
       y="0"
       xlink:href="#use118"
       inkscape:transform-center-x="91.320481"
       inkscape:transform-center-y="61.84116"
       id="use119"
       transform="rotate(20,254,142.63636)"
       style="stroke-width:2.31008" /><use
       x="0"
       y="0"
       xlink:href="#use119"
       inkscape:transform-center-x="103.36394"
       inkscape:transform-center-y="26.480864"
       id="use120"
       transform="rotate(20,254,142.63636)"
       style="stroke-width:2.31008" /><use
       x="0"
       y="0"
       xlink:href="#use120"
       inkscape:transform-center-x="105.06965"
       inkscape:transform-center-y="-15.33301"
       id="use121"
       transform="rotate(20,254,142.63636)"
       style="stroke-width:2.31008" /><use
       x="0"
       y="0"
       xlink:href="#use121"
       inkscape:transform-center-x="96.231898"
       inkscape:transform-center-y="-53.473528"
       id="use122"
       transform="rotate(20,254,142.63636)"
       style="stroke-width:2.31008" /><use
       x="0"
       y="0"
       xlink:href="#use122"
       inkscape:transform-center-x="75.78715"
       inkscape:transform-center-y="-81.022381"
       id="use123"
       transform="rotate(20,254,142.63636)"
       style="stroke-width:2.31008" /><use
       x="0"
       y="0"
       xlink:href="#use123"
       inkscape:transform-center-x="45.27903"
       inkscape:transform-center-y="-98.843882"
       id="use124"
       transform="rotate(20,254,142.63636)"
       style="stroke-width:2.31008" /><use
       x="0"
       y="0"
       xlink:href="#use124"
       inkscape:transform-center-x="6.0622926"
       inkscape:transform-center-y="-104.74336"
       id="use125"
       transform="rotate(20,254,142.63636)"
       style="stroke-width:2.31008" /><use
       x="0"
       y="0"
       xlink:href="#use125"
       inkscape:transform-center-x="-37.078311"
       inkscape:transform-center-y="-102.20349"
       id="use126"
       transform="rotate(20,254,142.63636)"
       style="stroke-width:2.31008" /><use
       x="0"
       y="0"
       xlink:href="#use126"
       inkscape:transform-center-x="-68.262446"
       inkscape:transform-center-y="-87.336369"
       id="use127"
       transform="rotate(20,254,142.63636)"
       style="stroke-width:2.31008" /><use
       x="0"
       y="0"
       xlink:href="#use127"
       inkscape:transform-center-x="-91.320488"
       inkscape:transform-center-y="-61.841175"
       id="use128"
       transform="rotate(20,254,142.63636)"
       style="stroke-width:2.31008" /><use
       x="0"
       y="0"
       xlink:href="#use128"
       inkscape:transform-center-x="-103.36395"
       inkscape:transform-center-y="-26.480876"
       id="use129"
       transform="rotate(20,254,142.63636)"
       style="stroke-width:2.31008" /><use
       x="0"
       y="0"
       xlink:href="#use129"
       inkscape:transform-center-x="-105.06967"
       inkscape:transform-center-y="15.332996"
       id="use130"
       transform="rotate(20,254,142.63636)"
       style="stroke-width:2.31008" /><use
       x="0"
       y="0"
       xlink:href="#use130"
       inkscape:transform-center-x="-96.231902"
       inkscape:transform-center-y="53.473517"
       id="use131"
       transform="rotate(20,254,142.63636)"
       style="stroke-width:2.31008" /><use
       x="0"
       y="0"
       xlink:href="#use131"
       inkscape:transform-center-x="-75.787164"
       inkscape:transform-center-y="81.022369"
       id="use132"
       transform="rotate(20,254,142.63636)"
       style="stroke-width:2.31008" /><use
       x="0"
       y="0"
       xlink:href="#use132"
       inkscape:transform-center-x="-45.27904"
       inkscape:transform-center-y="98.843874"
       id="use133"
       transform="rotate(20,254,142.63636)"
       style="stroke-width:2.31008" /></g><g
     inkscape:groupmode="layer"
     id="layer6"
     inkscape:label="Layer 4"
     sodipodi:insensitive="true"
     style="display:inline"
     transform="translate(442.83643,555.46384)"><path
       id="path116"
       style="fill:#000000;fill-opacity:0.730769;stroke:none;stroke-width:0.999992"
       inkscape:transform-center-x="-6.0623052"
       inkscape:transform-center-y="104.74335"
       d="m 265.39303,216.57503 c -8.38108,1.11828 -16.76163,2.24091 -25.14245,3.36137 -5.09991,7.15741 -8.61291,13.10214 -9.5771,21.86889 -0.96988,8.62987 0.54148,17.44022 3.82468,25.44665 1.84477,4.58887 4.23956,8.94035 6.93191,13.08289 h 51.28732 c -5.88349,-3.71556 -11.53923,-7.88466 -16.32539,-12.96388 -5.0971,-5.3624 -9.23067,-11.65876 -11.84819,-18.59497 -4.81008,-11.08307 -3.32056,-21.53169 0.84922,-32.20095 z"
       sodipodi:nodetypes="ccccccccc" /><path
       id="path84"
       style="fill:#000000;fill-opacity:0.730769;stroke:none;stroke-width:0.999992"
       inkscape:transform-center-x="-1.7201291"
       inkscape:transform-center-y="49.484643"
       d="m 253.58371,171.81401 c 1.18814,5.38782 1.4151,10.25817 0.50077,15.68485 -1.21378,7.24922 -4.17481,14.0638 -7.73778,20.46743 -1.88453,3.3992 -3.99354,6.6663 -6.13388,9.9084 8.3171,-1.30227 16.63408,-2.6053 24.95098,-3.90887 2.00874,-7.59879 3.40685,-15.44142 3.11879,-23.329 -0.40403,-11.74759 -4.36289,-16.75308 -5.69941,-18.85303 -3.02081,-0.0905 -6.04158,-0.18177 -9.06239,-0.27185 0.0209,0.10069 0.0419,0.20139 0.0629,0.30207 z"
       sodipodi:nodetypes="ccccccccc" /><path
       id="path51"
       style="fill:#000000;fill-opacity:0.730769;stroke:none;stroke-width:1;stroke-opacity:1"
       inkscape:transform-center-x="6.9757158"
       inkscape:transform-center-y="15.029499"
       d="m 249.175,147.77122 c -0.92094,0.78418 -1.7363,1.66194 -2.44661,2.59375 -1.38777,1.80654 -2.37087,3.93829 -2.82066,6.14008 -0.77735,3.76853 -0.36595,7.64651 0.5229,11.35655 0.0945,0.3047 0.11664,0.68097 0.26923,0.93597 2.10693,0.76551 4.21387,1.53101 6.3208,2.29652 -2.29737,-3.69796 -4.02881,-7.8437 -4.40165,-12.21466 -0.34868,-3.92334 0.48181,-8.03352 2.76545,-11.28982 -0.0698,0.0605 -0.13964,0.12108 -0.20946,0.18161 z" /></g><g
     inkscape:groupmode="layer"
     id="g69"
     inkscape:label="Layer 3 copy"
     transform="translate(442.83643,555.46384)"><path
       id="path92"
       style="fill-opacity:0.730769;stroke-width:0.999999"
       d="m 306.45805,-555.46384 c 20.84656,26.94528 39.88813,55.59819 53.40258,86.97976 14.46996,33.20564 22.94242,69.09483 23.36974,105.38884 3.56682,59.04265 -20.77796,104.61919 -57.82682,146.7218 40.43056,8.88887 80.8667,17.75913 121.29966,26.63825 35.44727,-24.38909 61.5653,-45.8589 80.6803,-84.57661 18.91285,-38.07827 26.71255,-81.14378 25.01452,-123.47554 -0.81242,-24.20058 -4.53426,-48.23117 -9.9836,-71.7972 z m -242.006882,24.17403 c 28.804353,18.19134 56.495762,38.60395 79.928512,63.47086 24.9548,26.25387 45.19109,57.08273 58.00597,91.04083 23.5499,54.26113 16.25743,105.41602 -4.16019,157.65156 41.03281,-5.47634 82.06499,-10.97226 123.09604,-16.45833 24.96852,-35.04119 42.16924,-64.14491 46.88913,-107.06581 4.74505,-42.24978 -2.64894,-85.38769 -18.72696,-124.58649 -9.0318,-22.46594 -20.75687,-43.77151 -33.9383,-64.05262 z m 16.812234,19.61066 -235.956312,85.87931 c 33.28946,7.23948 66.292428,16.95275 96.816928,32.30602 32.429026,16.13566 61.9897275,38.18191 85.646863,65.70986 40.687372,42.93481 51.328451,93.49809 50.010574,149.56552 36.685805,-19.17855 73.363145,-38.37448 110.044155,-57.56277 11.47757,-41.46823 17.68508,-74.70408 7.44253,-116.65084 -9.98817,-41.32603 -31.69405,-79.32895 -60.20487,-110.66594 -16.17153,-18.02236 -34.47536,-34.03148 -53.798547,-48.58116 z m 460.877848,16.26792 c 10.37253,32.44992 18.4637,65.88873 20.43007,99.99948 2.24247,36.15171 -2.07223,72.77462 -14.08279,107.02508 -16.83746,56.70332 -55.30837,91.2056 -104.52269,118.09799 34.95148,22.18064 69.91732,44.34429 104.87464,66.51683 41.6516,-10.7942 73.53636,-22.03355 104.74148,-51.8786 30.79574,-29.31366 52.85421,-67.11318 65.73744,-107.47289 7.52384,-23.01591 12.23382,-46.87492 15.17271,-70.88453 z m -674.3325,82.28639 -192.35021,161.40401 c 33.75833,-4.58259 68.09108,-6.74389 102.02573,-2.75444 35.99202,4.07069 71.30985,14.67612 102.95484,32.45309 52.918266,26.42869 80.215397,70.30522 98.152453,123.442058 27.913956,-30.569228 55.813262,-61.154358 83.71908,-91.730918 -3.396321,-42.89261 -8.930277,-76.24589 -32.903512,-112.15903 -23.5206727,-35.41834 -56.915861,-63.70381 -94.425601,-83.39998 -21.360186,-11.40446 -44.03885,-20.18949 -67.17278,-27.25348 z m 875.25989,54.75516 c -1.34887,34.04075 -5.18353,68.22737 -15.00271,100.9535 -10.25868,34.73872 -26.83529,67.68023 -49.83654,95.75719 -35.21729,47.5243 -83.16635,66.786625 -138.61079,75.225301 25.25758,32.797664 50.53409,65.583905 75.7998,98.375051 42.83135,4.103155 76.63599,4.444603 116.16695,-12.92844773 C 770.549,-18.00015 804.20727,-45.974955 830.1173,-79.494077 c 14.94045,-19.054916 27.52877,-39.863183 38.50166,-61.419003 z m -1023.99022,110.21879 v 0.04 c -6.05323,0.0715 -12.0993,0.32552 -18.1379,0.56927 l -125.54973,217.45861 c 30.15571,-15.850582 61.67962,-29.625133 94.93182,-37.48462 35.21365,-8.485091 72.02782,-10.597892 107.84519,-4.720945 58.76604,6.735745 99.42322,38.629162 134.453227,82.42624 15.775007,-38.272785 31.5291,-76.553282 47.29356,-114.830095 -17.86237,-39.14459 -34.469313,-68.59384 -69.279147,-94.1426 -34.21585,-25.23754 -75.27072,-40.39556 -117.25425,-46.07426 -17.97934,-2.55943 -36.15117,-3.47725 -54.30277,-3.24162 z m 472.35187,21.78991 c -0.001,0.005 0,0.009 0,0.0139 0.0127,-0.004 0.0154,-0.009 0.0243,-0.0131 z m 0,0.0139 c -36.07469,19.91341 -72.14925,39.83015 -108.220739,59.74926 3.485657,38.32187 10.182407,76.745663 24.715769,112.550375 21.52965,53.36948221 48.12568,69.771376 57.79124,77.194451 14.04825,-4.639411 28.09889,-9.281527 42.14715,-13.9258295 -0.24397,-0.4062228 -0.56848,-0.8530032 -0.81217,-1.2836469 -14.48863,-22.7972966 -23.68916,-44.8271386 -28.57003,-71.3237936 -6.55692,-35.383013 -4.33884,-71.692746 1.32433,-107.119636 2.97309,-18.78861 7.20467,-37.34658 11.62445,-55.84118 z m 130.0593,0.86015 c -40.71175,6.37694 -81.42374,12.7523 -122.13484,19.13331 -9.83366,37.20229 -16.67837,75.60207 -15.26788,114.218135 1.97438,57.514185 21.36053,82.020194 27.9036,92.30084345 14.78912,0.40627368 29.57774,0.89350985 44.36699,1.33224735 -0.0813,-0.4874776 -0.24383,-0.99119346 -0.32502,-1.47867105 -5.81769,-26.37810775 -6.93048,-50.22308875 -2.45365,-76.79130275 5.93941,-35.491152 20.43807,-68.856182 37.88186,-100.207612 9.22608,-16.64041 19.55172,-32.6351 30.02894,-48.50695 z m 0.59286,21.501 c -21.96522,31.59526 -41.53243,65.33508 -53.41429,102.1052 -17.81277,54.72253 -7.97936,84.381309 -5.34681,96.2804837 13.74597,5.47635314 27.49358,10.9543962 41.23981,16.4274713 0.0712,-0.487516 0.16213,-0.9994523 0.24357,-1.4950745 3.55882,-26.7770885 10.66922,-49.5642325 23.96259,-72.9994455 17.72332,-31.318192 42.75524,-57.711905 69.86942,-81.205615 14.36207,-12.48339 29.53555,-23.98331 44.8117,-35.31455 -40.4444,-7.93824 -80.88995,-15.86917 -121.33511,-23.79847 z m -253.149998,21.285 c -27.094617,31.058 -54.188122,62.1219 -81.277841,93.183969 16.3801033,34.819872 35.81771,68.635119 61.720373,97.3100363 C 87.859266,50.580346 118.46163,56.895307 130.0829,60.564603 141.6968,51.397912 153.31375,42.231247 164.926,33.062918 164.51979,32.73795 164.11332,32.412943 163.73951,32.128584 142.32854,15.66072 126.15091,-1.8913448 112.5024,-25.121661 94.241428,-56.128468 83.899041,-91.008108 77.109741,-126.23669 c -3.631864,-18.67845 -6.004681,-37.56972 -8.177289,-56.46429 z m 816.066038,21.82668 c -12.91231,31.52601 -28.20459,62.341101 -48.62451,89.735509 C 814.85259,-42.004807 788.00613,-16.71987 756.78893,1.7962987 707.44134,34.410272 655.79585,36.112492 600.81035,25.078671 c 12.51666,39.457668 25.05325,78.911959 37.58047,118.367189 38.8442,18.50401 70.49772,30.3865 113.58587,27.58241 42.43312,-2.65682 83.62897,-17.43719 119.44012,-40.07356 20.55613,-12.79533 39.50251,-28.04288 57.18644,-44.545689 z m -448.38992,1.08865 c -31.44654,22.17667 -61.37331,47.191 -85.11572,77.679681 -35.45387,45.330003 -36.35943,76.5629893 -37.9553,88.6442408 11.04442,9.8460032 22.08782,19.6966562 33.13389,29.5410712 0.24396,-0.406287 0.48767,-0.894133 0.7315,-1.332896 12.49963,-23.946361 26.97643,-42.9246086 47.48337,-60.399294 27.36525,-23.368633 59.91695,-39.608869 93.43216,-52.412405 17.76473,-6.816986 35.9583,-12.436015 54.18783,-17.859511 -35.29073,-21.290257 -70.58477,-42.576367 -105.87867,-63.860887 z m -467.869935,60.000073 0.0038,0.01449 c -14.838715,38.451723 -29.674178,76.908592 -44.505639,115.361942 27.300943,27.118091 57.133248,52.245181 91.281138,70.33232 50.79771,27.044185 81.711103,22.512775 93.886496,21.986255 7.77554,-12.586511 15.56024,-25.173766 23.33757,-37.761058 -0.48752,-0.162433 -0.95854,-0.325324 -1.43794,-0.487859 C 105.5518,61.509445 84.344475,50.550601 63.574468,33.390541 35.809585,10.498243 14.163146,-18.739905 -4.2660636,-49.521588 -14.064864,-65.832596 -22.754572,-82.774215 -31.261492,-99.785602 Z M 529.11037,-79.08436 v 0.0064 c -37.13589,10.084062 -73.81208,23.353437 -106.54979,43.883173 -48.81968,30.4699796 -60.3534,59.510016 -65.98559,70.317226 7.01194,13.029422 14.01927,26.060102 21.03222,39.088699 0.40621,-0.324981 0.7311,-0.649746 1.12931,-1.007228 19.93568,-18.226244 40.03081,-31.110679 65.27721,-40.51877 33.70782,-12.598779 69.84985,-16.726875 105.72302,-17.294833 19.02568,-0.324993 38.04119,0.650318 57.02634,1.747212 -25.88106,-32.075507 -51.76466,-64.149781 -77.65145,-96.222048 z m -804.1278,15.650056 c -18.56905,0.162382 -37.13236,2.380846 -55.24236,6.32961 -23.6938,4.997008 -46.71098,12.840104 -68.97317,22.299438 l -43.60347,247.283296 c 22.91628,-25.20917 47.82846,-48.93301 76.38684,-67.69081 30.18828,-20.01718 64.06105,-34.59493 99.72894,-41.3185 57.52629,-13.768924 106.63758,2.29969 154.53469,31.47148 1.73063,-41.360404 3.44492,-82.722343 5.16743,-124.083557 -30.17364,-30.674177 -55.85123,-52.666652 -97.30019,-64.768296 -22.94041,-6.760089 -46.82326,-9.779373 -70.69805,-9.522661 z m 177.97725,75.863512 c -0.812496,41.20765 -1.576291,82.417587 -2.364417,123.625252 34.929448,16.14523 71.554445,29.55452 109.828119,34.87071 56.983946,8.04364 84.486177,-6.79313 95.746658,-11.45112 3.0063,-14.4877 6.01304,-28.97446 9.01509,-43.46296 -0.48728,0.0169 -1.00784,0.0258 -1.51151,0.0479 v 0.003 C 86.687343,117.20676 63.011225,114.16772 37.623821,105.14162 3.704308,93.126342 -26.635943,73.054237 -54.482011,50.431775 -69.268709,38.455894 -83.227802,25.509429 -97.039519,12.433046 Z m 412.39126,4.50953 6.3e-4,6.61e-4 v -6.61e-4 z m 6.3e-4,6.61e-4 -0.0407,0.0038 c 0.0178,0.01461 0.0343,0.02935 0.0521,0.04396 0,-0.01525 -8.9e-4,-0.03202 -0.0127,-0.04727 z m 229.75473,9.426794 v 0.0038 c -24.10884,-0.08119 -48.19988,1.7719 -71.8156,6.833886 -56.29663,11.93498 -77.06532,35.278303 -86.05391,43.508258 2.12864,14.641493 4.25765,29.283113 6.39454,43.924563 0.48753,-0.16243 0.93414,-0.40613 1.39728,-0.56862 24.96687,-10.30918 48.2582,-15.54445 75.20033,-15.7492 35.98385,-0.32502 71.35767,8.17119 105.26154,19.90548 17.99129,6.19947 35.53825,13.58819 52.98953,21.15103 -13.34967,-38.99328 -26.70238,-77.986952 -40.05852,-116.977828 -14.37796,-1.210536 -28.85122,-1.974521 -43.31519,-2.03152 z m 405.72999,46.896981 c -22.91587,25.207887 -47.82836,48.933226 -76.38619,67.691486 -30.18776,20.01602 -64.06088,34.5937 -99.72898,41.3172 -57.52505,13.7696 -106.63772,-2.29966 -154.53392,-31.47017 -1.73056,41.35885 -3.44561,82.72266 -5.16816,124.08227 30.17314,30.67363 55.8518,52.66679 97.30023,64.76822 40.78339,12.01287 84.54952,12.21655 125.9423,3.19378 23.69347,-4.99688 46.71264,-12.84092 68.97453,-22.30014 z M 468.54821,112.49172 c -37.69406,-0.48749 -57.56482,9.99606 -66.71452,13.78071 -3.00636,14.48792 -6.01272,28.97562 -9.01502,43.46422 0.48753,-0.0165 1.00771,-0.0257 1.5115,-0.0485 26.9875,-1.1457 50.66217,1.89307 76.04999,10.91927 33.91975,12.01541 64.25934,32.08704 92.10577,54.70978 14.78696,11.97653 28.74562,24.92291 42.55753,37.99876 0.81255,-41.20753 1.58444,-82.41708 2.36446,-123.6252 -34.92912,-16.14465 -71.55309,-29.55511 -109.8282,-34.87136 -10.68458,-1.5113 -20.33338,-2.20995 -29.03214,-2.32371 z m -696.8663,1.84438 c -5.06199,-0.0811 -10.27173,0.0228 -15.65794,0.40644 -42.43374,2.65692 -83.62901,17.43882 -119.44072,40.07556 -20.5567,12.79627 -39.50147,28.04065 -57.18591,44.54368 l 43.60479,247.28275 c 12.91334,-31.52582 28.20415,-62.33744 48.62515,-89.73229 21.52115,-29.13456 48.36672,-54.41908 79.58447,-72.93639 49.34743,-32.61447 100.99207,-34.31504 155.979199,-23.28104 -12.516839,-39.45918 -25.054429,-78.91213 -37.581799,-118.36721 -33.98925,-16.19181 -62.47221,-27.31616 -97.92724,-27.96457 z m 107.83796,26.03943 c 13.34796,38.98844 26.699428,77.97902 40.053895,116.96605 38.344294,3.22554 77.3502896,3.29872 115.134745,-4.79384 56.296515,-11.93485 77.06533,-35.27726 86.05392,-43.50629 -2.12863,-14.64123 -4.25765,-29.28525 -6.39454,-43.9266 -0.48753,0.16238 -0.93478,0.40634 -1.39791,0.56872 -24.966565,10.30899 -48.258708,15.54437 -75.200396,15.74919 -35.98318,0.32502 -71.358125,-8.17224 -105.262124,-19.90618 -17.990078,-6.19925 -35.537,-13.58757 -52.98759,-21.15105 z m 531.74991,36.86349 v 0.005 c -5.40321,0.0712 -9.61868,0.48804 -12.66316,0.56936 -7.77593,12.58654 -15.5605,25.17092 -23.33694,37.75836 0.48753,0.16263 0.95943,0.3254 1.4387,0.48791 25.75171,8.15114 46.95787,19.11195 67.7282,36.27315 27.76536,22.89173 49.41114,52.12933 67.84053,82.91147 9.7991,16.31206 18.48847,33.25066 26.9955,50.26142 14.83804,-38.45147 29.67316,-76.90459 44.50562,-115.35936 -27.30134,-27.1185 -57.13282,-52.24508 -91.28115,-70.33166 -38.09888,-20.2837 -65.01193,-22.80494 -81.22399,-22.57586 z m -280.87101,34.29547 c -0.40621,0.32489 -0.73136,0.64991 -1.12944,1.0072 -19.93466,18.2261 -40.031198,31.11174 -65.27714,40.51886 -33.707266,12.59849 -69.849741,16.72692 -105.722379,17.29475 -19.025438,0.32502 -38.041345,-0.65004 -57.027,-1.75508 25.880516,32.0751 51.765263,64.15325 77.651447,96.22403 37.135244,-10.08397 73.813199,-23.35638 106.550364,-43.88582 48.818928,-30.46944 60.353408,-59.5101 65.985588,-70.31717 -7.01154,-13.02884 -14.01914,-26.05895 -21.03144,-39.08677 z m 247.5229,13.64876 v 0.001 c -11.61403,9.16673 -23.23059,18.33067 -34.8431,27.49905 0.40621,0.32502 0.81268,0.65003 1.18649,0.93439 21.41148,16.46822 37.58975,34.0195 51.23838,57.25022 18.26142,31.00717 28.60332,65.88343 35.39276,101.11241 3.63188,18.67893 6.00396,37.57056 8.17655,56.46562 27.095,-31.05837 54.18783,-62.11864 81.27786,-93.18133 -16.3794,-34.82023 -35.81815,-68.63389 -61.72031,-97.31001 -38.48577,-42.78713 -69.0871,-49.10149 -80.70863,-52.77162 z m -216.59451,24.49777 c -0.24155,0.40379 -0.48258,0.87747 -0.72425,1.3204 -12.49938,23.94518 -26.97708,42.92664 -47.48389,60.40194 -27.364944,23.36744 -59.916792,39.60835 -93.431543,52.41178 -17.7644456,6.81676 -35.957845,12.43331 -54.18785,17.85749 35.29005652,21.28912 70.585195,42.57609 105.879311,63.86025 31.446132,-22.17714 61.373742,-47.19254 85.114992,-77.67965 35.45425,-45.32947 36.35955,-76.56344 37.95606,-88.64428 -11.04048,-9.84243 -22.0807,-19.68703 -33.12283,-29.52793 z m 180.99109,12.92122 v 0.001 h -0.0191 c -14.04913,4.63946 -28.09927,9.27968 -42.14778,13.92321 0.24383,0.40621 0.56899,0.86108 0.81282,1.28368 14.48786,22.79847 23.68801,44.82403 28.56875,71.32184 6.55705,35.38259 4.33859,71.69488 -1.32447,107.12157 -2.98196,18.79443 -7.2067,37.35558 -11.62762,55.85561 36.08295,-19.91802 72.16373,-39.84125 108.2444,-59.76499 -3.48564,-38.3225 -10.18308,-76.74526 -24.7158,-112.55032 -21.53003,-53.37032 -48.12542,-69.76866 -57.79124,-77.19187 z m -494.87722,8.914 c -23.83458,0.40621 -46.30619,4.36311 -71.01256,15.22062 -38.9633,17.0128 -72.62309,44.99022 -98.53197,78.50897 -14.9402,19.05478 -27.52893,39.86146 -38.5017,61.41702 l 125.54973,217.45928 c 1.34877,-34.04059 5.1843,-68.23022 15.0033,-100.95689 10.25859,-34.73738 26.83561,-67.67712 49.83658,-95.75391 35.21604,-47.52366 83.167036,-66.79012 138.61016,-75.2279 -25.257262,-32.79719 -50.53361,-65.58433 -75.79983,-98.37503 -16.06144,-1.53577 -30.85296,-2.55149 -45.15371,-2.29152 z m 355.97811,3.40444 c 0.0114,10e-4 0.0174,0.0127 0.0269,0.0127 2.5e-4,-0.003 1.3e-4,-0.0102 0,-0.0127 z m 0.0269,0.0127 c -0.0712,0.4841 -0.16086,0.99157 -0.24167,1.48329 -3.55882,26.77671 -10.66934,49.56438 -23.96259,72.99941 -17.7223,31.31782 -42.7546,57.71195 -69.86941,81.20633 -14.361774,12.48235 -29.536436,23.98279 -44.812263,35.31385 40.443873,7.93819 80.890883,15.8685 121.335673,23.79779 21.9652,-31.59583 41.53241,-65.33808 53.41441,-102.10779 17.81162,-54.72122 7.97859,-84.38167 5.34604,-96.27981 -13.73618,-5.47246 -27.47401,-10.94391 -41.21019,-16.41307 z m 391.94668,0.63822 c -15.77384,38.27206 -31.52861,76.5567 -47.29356,114.8327 17.86283,39.14394 34.47056,68.5917 69.27986,94.13999 34.21606,25.23713 75.27111,40.39905 117.25484,46.0776 23.97199,3.41245 48.28539,3.90773 72.43933,2.6323 L 932.62367,315.79887 c -30.15611,15.84943 -61.68092,29.62183 -94.93183,37.482 -35.21386,8.48403 -72.02867,10.59933 -107.84454,4.7209 -58.76591,-6.73569 -99.42517,-38.63265 -134.45454,-82.42876 z m -343.71085,8.67894 -0.0204,10e-4 c 0.0813,0.48752 0.24382,0.98306 0.32502,1.47872 5.81755,26.37774 6.9306,50.22343 2.45377,76.79125 -5.93928,35.49085 -20.43909,68.85675 -37.88249,100.20761 -9.22594,16.64166 -19.55298,32.63721 -30.0316,48.51028 40.71834,-6.37814 81.44037,-12.75515 122.15771,-19.13723 9.83455,-37.20184 16.6799,-75.59969 15.26928,-114.21621 -1.97425,-57.51336 -21.36103,-82.02141 -27.90425,-92.30284 -14.78899,-0.40621 -29.57723,-0.89412 -44.36635,-1.33286 z m 277.74103,100.077 v 10e-4 c -27.91351,30.56868 -55.81381,61.15489 -83.71919,91.73094 3.39618,42.89272 8.93091,76.24718 32.90289,112.15974 23.52017,35.41766 56.91707,63.70435 94.42627,83.39925 21.35913,11.40514 44.03867,20.19031 67.17206,27.25344 L 832.55659,537.46954 c -33.75851,4.58253 -68.09312,6.74395 -102.0271,2.7544 -35.99147,-4.07049 -71.30977,-14.67668 -102.95414,-32.45234 -52.91735,-26.42908 -80.215,-70.30841 -98.15241,-123.44405 z m -570.249658,5.19433 c -41.650186,10.79309 -73.536212,22.03674 -104.740112,51.88054 -30.79525,29.31321 -52.85582,67.11438 -65.73877,107.47353 -7.52371,23.01561 -12.23323,46.87273 -15.17205,70.88132 L -34.127467,781.16118 C -44.499828,748.711 -52.591287,715.27458 -54.557563,681.16436 -56.800041,645.01242 -52.485154,608.3863 -40.474815,574.13542 -23.636595,517.43297 14.835101,482.92988 64.048007,456.03869 29.096839,433.85749 -5.8698631,411.6933 -40.826718,389.52188 Z M 430.23104,463.9685 c -36.68381,19.17865 -73.36241,38.37752 -110.04216,57.56532 -11.47744,41.46736 -17.68469,74.701 -7.44329,116.64699 9.98893,41.32594 31.6943,79.33003 60.20563,110.66654 16.17026,18.02203 34.4759,34.03461 53.79788,48.58385 l 235.95625,-85.882 C 629.41747,704.30997 596.41229,694.59612 565.88846,679.24323 533.46001,663.10778 503.89815,641.06265 480.24229,613.53528 439.55495,570.60241 428.91318,520.03439 430.23104,463.9685 Z M 61.310644,475.48723 c -35.446816,24.38773 -61.56469313,45.85677 -80.68033,84.57392 -18.911643,38.07753 -26.711958,81.14444 -25.013829,123.47556 0.812484,24.20019 4.533519,48.23151 9.982948,71.7978 l 235.956247,85.87933 c -20.8453,-26.9457 -39.88775,-55.59653 -53.40119,-86.9784 -14.47072,-33.20441 -22.94243,-69.09498 -23.36973,-105.38758 -3.56695,-59.0424 20.77796,-104.6223 57.82605,-146.72445 -40.42979,-8.8886 -80.86792,-17.75813 -121.300166,-26.63618 z M 309.7851,504.87527 c -41.03207,5.47628 -82.06565,10.97237 -123.09605,16.45831 -24.96801,35.04156 -42.16847,64.14817 -46.88913,107.06845 -4.74492,42.25005 2.65708,85.38647 18.72684,124.58391 9.03166,22.46633 20.75712,43.77184 33.9383,64.05262 H 443.5633 C 414.75872,798.8483 387.06655,778.435 363.63405,753.56762 338.68053,727.3149 318.44282,696.48791 305.62808,662.5294 282.07944,608.26928 289.37115,557.11006 309.78827,504.87527 Z" /></g></svg>
