<?xml version="1.0" encoding="UTF-8" standalone="no"?>
<!-- Created with Inkscape (http://www.inkscape.org/) -->

<svg
   width="1920"
   height="1080"
   viewBox="0 0 508 285.74999"
   version="1.1"
   id="svg6993"
   inkscape:version="1.3.2 (091e20e, 2023-11-25, custom)"
   sodipodi:docname="stars_bg2.svg"
   xml:space="preserve"
   xmlns:inkscape="http://www.inkscape.org/namespaces/inkscape"
   xmlns:sodipodi="http://sodipodi.sourceforge.net/DTD/sodipodi-0.dtd"
   xmlns:xlink="http://www.w3.org/1999/xlink"
   xmlns="http://www.w3.org/2000/svg"
   xmlns:svg="http://www.w3.org/2000/svg"><sodipodi:namedview
     id="namedview6995"
     pagecolor="#5b5b5b"
     bordercolor="#fffa97"
     borderopacity="0.98431373"
     inkscape:showpageshadow="2"
     inkscape:pageopacity="0"
     inkscape:pagecheckerboard="0"
     inkscape:deskcolor="#404040"
     inkscape:document-units="mm"
     showgrid="false"
     showguides="true"
     shape-rendering="crispEdges"
     inkscape:clip-to-page="false"
     inkscape:zoom="0.36915152"
     inkscape:cx="1094.4016"
     inkscape:cy="157.11706"
     inkscape:window-width="1902"
     inkscape:window-height="942"
     inkscape:window-x="1664"
     inkscape:window-y="11"
     inkscape:window-maximized="0"
     inkscape:current-layer="layer2" /><defs
     id="defs6990"><linearGradient
       id="linearGradient247"><stop
         style="stop-color:#062b60;stop-opacity:1;"
         offset="0"
         id="stop251" /><stop
         style="stop-color:#440554;stop-opacity:0.37123287;"
         offset="1"
         id="stop252" /></linearGradient><linearGradient
       id="linearGradient247-1"><stop
         style="stop-color:#460660;stop-opacity:1;"
         offset="0"
         id="stop248" /><stop
         style="stop-color:#440554;stop-opacity:0.03770492;"
         offset="1"
         id="stop249" /></linearGradient><linearGradient
       id="linearGradient245"
       inkscape:collect="always"><stop
         style="stop-color:#3b042a;stop-opacity:1;"
         offset="0"
         id="stop246" /><stop
         style="stop-color:#130660;stop-opacity:0;"
         offset="1"
         id="stop247" /></linearGradient><radialGradient
       inkscape:collect="always"
       xlink:href="#linearGradient245"
       id="radialGradient247"
       cx="355.30508"
       cy="37.33754"
       fx="355.30508"
       fy="37.33754"
       r="191.2858"
       gradientTransform="matrix(0.72272749,1.918426,-0.69896385,0.26332023,124.61392,-627.41119)"
       gradientUnits="userSpaceOnUse" /><radialGradient
       inkscape:collect="always"
       xlink:href="#linearGradient247-1"
       id="radialGradient252"
       gradientUnits="userSpaceOnUse"
       gradientTransform="matrix(1.7144937,0.13283351,-0.06715771,0.86681043,-37.434175,-22.956304)"
       cx="89.828209"
       cy="215.9624"
       fx="89.828209"
       fy="215.9624"
       r="177.65254" /><filter
       inkscape:collect="always"
       style="color-interpolation-filters:sRGB"
       id="filter252"
       x="-0.22868103"
       y="-0.33373296"
       width="1.4573621"
       height="1.6674659"><feGaussianBlur
         inkscape:collect="always"
         stdDeviation="33.854805"
         id="feGaussianBlur252" /></filter><filter
       inkscape:collect="always"
       style="color-interpolation-filters:sRGB"
       id="filter253"
       x="-0.20605633"
       y="-0.27587506"
       width="1.4121127"
       height="1.5517501"><feGaussianBlur
         inkscape:collect="always"
         stdDeviation="32.846376"
         id="feGaussianBlur253" /></filter></defs><g
     inkscape:groupmode="layer"
     id="layer2"
     inkscape:label="BG Overlay1"
     style="display:inline"><path
       style="display:inline;mix-blend-mode:normal;fill:url(#radialGradient252);fill-opacity:0.947891;stroke-width:0.499999;filter:url(#filter252)"
       d="m 0,42.287287 c 0,0 13.880481,52.941521 35.836685,63.072563 16.124587,7.44021 35.542302,-15.849397 52.321557,-10.03427 13.442378,4.658676 14.863578,26.67828 27.952618,32.25302 29.93311,12.74877 65.18626,-9.00574 97.47578,-5.01714 27.52611,3.40019 71.78611,-2.25538 79.55743,24.36894 2.37432,8.13434 -19.01007,11.26304 -16.48487,19.35181 8.03032,25.7229 69.98855,-4.90457 78.12397,20.78528 3.48161,10.99416 -11.18969,23.14975 -22.21875,26.51915 -29.7217,9.08004 -61.55404,-12.39658 -89.5917,-25.80241 -20.27112,-9.69236 -33.2302,-33.93984 -55.18849,-38.70362 -28.02537,-6.08002 -83.09286,-12.87087 -84.57458,15.76814 -1.26159,24.3843 66.51257,-3.34547 70.2399,20.78527 1.62857,10.54336 -15.94001,16.54124 -26.51915,17.91835 -33.11693,4.31092 -66.143762,-50.43556 -94.60884,-32.96975 -12.124342,7.43934 -14.533589,31.11104 -5.73387,42.28728 24.662346,31.32286 88.6243,-13.66157 118.97779,12.18448 7.72169,6.57503 -1.03236,24.5536 7.88407,29.38608 31.15267,16.88397 65.65559,-34.42698 101.05946,-32.96975 25.89085,1.06567 68.81704,4.34794 71.67335,30.10281 C 348.34801,271.10086 298.1612,285.75 298.1612,285.75 H 0 Z"
       id="path250"
       sodipodi:nodetypes="csssssssssssssssssssccc" /><path
       style="mix-blend-mode:normal;fill:url(#radialGradient247);fill-opacity:1;stroke-width:0.499999;filter:url(#filter253)"
       d="m 125.42839,0 c 0,0 50.81022,78.627236 86.72478,69.523167 9.54855,-2.420485 3.2614,-21.787072 11.46774,-27.23588 18.51008,-12.290231 57.20786,-20.109721 66.65624,0 5.41133,11.517355 -24.77393,16.66728 -24.36895,29.386083 0.7315,22.973552 25.72912,42.24506 47.30441,50.17136 18.27656,6.71441 42.37392,-17.99211 58.05543,-6.45061 12.15111,8.94315 -3.1506,34.97526 8.60081,44.43749 15.63561,12.58978 47.70041,-17.13679 60.20564,-1.43347 15.66604,19.67247 -31.32895,51.39748 -18.63508,73.10684 9.74124,16.65971 39.81586,4.39448 55.90522,15.05141 13.82791,9.15903 30.65536,39.19361 30.65536,39.19361 v -77.89723 c 0,0 -34.65534,-21.48766 -37.82269,-39.42035 -2.67921,-15.16897 24.97558,-28.24899 18.63508,-42.28729 C 478.08242,102.38827 436.2,116.58853 414.27206,102.49292 391.5064,87.858813 356.06724,69.09207 359.80031,42.287287 c 0.93269,-6.69702 10.4403,-10.683824 17.20162,-10.751005 24.21384,-0.240589 38.24589,35.01635 62.35581,37.270153 17.23398,1.611038 31.43205,-17.581622 48.73789,-17.918343 6.97319,-0.135678 19.90436,6.450603 19.90436,6.450603 V 0 Z"
       id="path251"
       sodipodi:nodetypes="cssssssssssccsssssssccc" /></g></svg>
